<?xml version="1.0" encoding="utf-8"?>
<!-- Generator: Adobe Illustrator 26.0.3, SVG Export Plug-In . SVG Version: 6.00 Build 0)  -->
<svg version="1.1" id="Vrstva_1" xmlns="http://www.w3.org/2000/svg" xmlns:xlink="http://www.w3.org/1999/xlink" x="0px" y="0px"
     viewBox="0 0 324 342" style="enable-background:new 0 0 324 342;" xml:space="preserve">
<style type="text/css">
    .st0{fill:#FFFFFF;}
</style>
<path class="st0" d="M164.3,40.3c13,0,24.9,7.3,30.7,18.9l96.4,192.8c8.5,16.9,1.6,37.5-15.3,46c-4.8,2.4-10,3.6-15.3,3.6H67.9
    c-18.9,0-34.3-15.3-34.3-34.3c0-5.3,1.2-10.6,3.6-15.3l96.4-192.8C139.4,47.6,151.3,40.3,164.3,40.3 M164.3,16.8
    c-21.9,0-41.9,12.4-51.7,32L16.1,241.5c-14.3,28.6-2.7,63.3,25.9,77.6c8,4,16.9,6.1,25.9,6.1h192.8c31.9,0,57.8-25.9,57.8-57.8
    c0-9-2.1-17.8-6.1-25.9L216,48.7C206.2,29.1,186.2,16.8,164.3,16.8z"/>
</svg>
