<?xml version="1.0" encoding="UTF-8"?><svg id="Layer_2" xmlns="http://www.w3.org/2000/svg" viewBox="0 0 104 101.32"><defs><style>.cls-1{fill:#edba1d;}.cls-2{fill:#fff;}.cls-3{fill:#efba1c;fill-rule:evenodd;}.cls-4{fill:#221536;}.cls-5{fill:#ecba1e;}.cls-6{fill:none;}</style></defs><g id="Binaris"><g><g id="Binaris-2"><circle class="cls-4" cx="43.5" cy="57.82" r="43.5"/><g><path class="cls-6" d="M32.88,73.05c.55-3.93,3.6-6.3,4.55-7.04,1.94-1.51,4.28-2.18,8.96-3.5,3.87-1.1,6.27-1.41,8.39-3.63,.82-.85,1.33-1.71,1.63-2.32-4.22,1.49-7.68,2.26-10.08,2.69-3.01,.54-5.99,1.24-8.99,1.78-1.12,.2-2.42,.43-4,1.17-.95,.45-2.75,1.33-4.2,3.19-1.94,2.49-2.09,5.23-2.14,6.43-.16,3.89,1.57,6.74,2.3,7.82,2.5,1.63,5.29,2.84,8.28,3.54-.34-.26-5.5-4.42-4.7-10.13Z"/><path class="cls-6" d="M25.08,74.55c-.84-1.45-1.63-2.8-1.89-4.73-.51-3.75,1.34-6.74,1.91-7.58,.75-1.1,2.37-3.06,6.95-4.93,6.44-2.62,8.39-.84,18.04-3.13,1.25-.3,5.37-1.31,9.3-3.78,1.74-1.1,3.09-2.25,4.24-3.72,.87-1.11,1.43-2.16,1.78-2.93-.98-1.52-2.11-2.93-3.38-4.22,.12,.74,.2,2.03-.41,3.36-.52,1.13-1.4,1.95-3.11,2.96-3.48,2.04-6.53,2.62-6.53,2.62-6.99,1.31-10.16,1.31-14.34,2.08-5.15,.95-10.01,1.85-13.9,5.57-3.26,3.12-4.53,6.98-5.09,9.47,1.82,5.83,5.63,10.77,10.64,14.04-1.16-1-2.81-2.66-4.22-5.08Z"/><path class="cls-6" d="M53.07,35.86c.32,1.35-.23,2.52-.44,2.94-1.07,2.18-3.33,3.19-9.66,5.12-2.31,.7-5.24,1.55-8.69,2.44,6.75,.11,12.18-.63,16.01-1.37,4.27-.83,7.04-1.77,8.26-4.15,.71-1.4,.68-2.86,.53-3.89-2.89-2.17-6.25-3.74-9.9-4.55,.43,.12,3.31,1.05,3.89,3.46Z"/><path class="cls-1" d="M23.74,56.13c3.89-3.73,8.75-4.62,13.9-5.57,4.18-.77,7.35-.77,14.34-2.08,0,0,3.05-.57,6.53-2.62,1.72-1.01,2.59-1.83,3.11-2.96,.61-1.33,.53-2.63,.41-3.36-.92-.93-1.9-1.79-2.95-2.57,.15,1.03,.19,2.49-.53,3.89-1.22,2.39-3.99,3.32-8.26,4.15-3.83,.74-9.25,1.48-16.01,1.37,3.44-.89,6.38-1.74,8.69-2.44,6.33-1.93,8.59-2.94,9.66-5.12,.21-.43,.76-1.6,.44-2.94-.58-2.41-3.46-3.33-3.89-3.46-1.83-.41-3.73-.62-5.68-.62-14.38,0-26.03,11.66-26.03,26.03,0,2.71,.42,5.32,1.19,7.78,.55-2.48,1.83-6.34,5.09-9.47Z"/><path class="cls-5" d="M65.41,43.75c-.35,.76-.92,1.81-1.78,2.93-1.15,1.47-2.5,2.63-4.24,3.72-3.92,2.47-8.04,3.48-9.3,3.78-9.65,2.29-11.61,.52-18.04,3.13-4.58,1.86-6.2,3.82-6.95,4.93-.57,.84-2.42,3.82-1.91,7.58,.26,1.93,1.05,3.29,1.89,4.73,1.41,2.43,3.06,4.08,4.22,5.08h0c-.73-1.07-2.46-3.93-2.3-7.81,.05-1.2,.2-3.95,2.14-6.43,1.45-1.86,3.25-2.74,4.2-3.19,1.58-.75,2.87-.97,4-1.17,3.01-.54,5.98-1.24,8.99-1.78,2.4-.43,5.86-1.2,10.08-2.69-.31,.61-.82,1.47-1.63,2.32-2.12,2.22-4.52,2.53-8.39,3.63-4.68,1.33-7.02,1.99-8.96,3.5-.95,.74-4,3.11-4.55,7.04-.8,5.7,4.37,9.86,4.7,10.13,1.9,.44,3.88,.67,5.91,.67,14.38,0,26.03-11.66,26.03-26.03,0-5.18-1.51-10.01-4.12-14.07Z"/></g><g><g><path class="cls-2" d="M35.85,49.59l-3.16-1.86-3.14,1.86v2.95c1.02-.39,2.07-.7,3.14-.97v-.12l3.16-1.86Z"/><path class="cls-2" d="M40.36,49.59l.74,.44c1.58-.2,3.22-.37,5.21-.64l-2.81-1.66-3.14,1.86Z"/></g><g><path class="cls-2" d="M38.11,67.32l-1.33-.78c-.63,.53-1.47,1.34-2.23,2.41l3.56,2.09v-3.72Z"/><path class="cls-2" d="M32.71,62.51v-4.71l-.77-.45c-.91,.37-1.7,.75-2.39,1.12v6.43c1.08-1.21,2.27-1.94,3.15-2.39Z"/><path class="cls-2" d="M37.98,60.9l-3.02-1.79v2.45c.88-.27,1.66-.41,2.38-.54,.21-.04,.43-.08,.64-.12Z"/></g><polygon class="cls-2" points="54.3 51.45 54.3 55.15 57.46 53.29 57.46 49.59 54.3 47.73 51.16 49.59 54.3 51.45"/><polygon class="cls-2" points="40.36 68.65 40.36 72.35 43.5 74.21 46.66 72.35 46.66 68.65 43.5 70.51 40.36 68.65"/><polygon class="cls-2" points="54.32 57.8 54.3 64.15 48.91 67.32 48.91 71.04 57.46 66.02 57.46 55.94 54.32 57.8"/><polygon class="cls-2" points="52.05 59.11 48.91 60.97 48.91 64.67 52.05 62.83 52.05 59.11"/><g><path class="cls-6" d="M41.71,46.15c1.08-.08,2.11-.18,3.08-.3l-1.29-.76-1.79,1.06Z"/><path class="cls-6" d="M34.28,46.37c.26,0,.51,0,.76,0l.63-.37c-.45,.12-.92,.24-1.39,.37Z"/><path class="cls-2" d="M48.91,48.28l3.14-1.86-2.26-1.33c-1.46,.27-3.13,.54-5,.76l4.12,2.43Z"/><path class="cls-2" d="M35.67,46c2.85-.76,5.31-1.47,7.3-2.08,1.19-.36,2.23-.69,3.15-1l-2.61-1.54-7.83,4.62Z"/><path class="cls-2" d="M35.04,46.38l-.07,.04,3.14,1.86,3.6-2.13c-2.04,.16-4.27,.24-6.67,.23Z"/></g><polygon class="cls-2" points="52.05 52.77 52.05 52.77 52.07 52.77 48.91 50.91 43.5 54.1 38.12 50.91 34.97 52.77 34.97 56.48 40.38 59.66 40.38 66.02 43.52 67.86 46.66 66.02 46.66 59.66 52.07 56.48 52.05 52.77"/></g></g><g><path class="cls-3" d="M82.88,0c11.66,0,21.12,9.45,21.12,21.12s-9.45,21.12-21.12,21.12-21.12-9.45-21.12-21.12S71.22,0,82.88,0h0Z"/><path class="cls-2" d="M73.37,21.12l.02,5.58,4.74,2.79v3.27l-7.52-4.41v-8.87l2.76,1.63h0Zm0-5.58v3.25l-2.76-1.63v-3.25l2.76-1.63,2.78,1.63-2.78,1.63h0Zm6.74-1.63l2.76-1.63,2.78,1.63-2.78,1.63-2.76-1.63h0Z"/><path class="cls-2" d="M75.37,25.54v-3.27l2.76,1.63v3.25l-2.76-1.62h0Zm4.74,5.12l2.76,1.63,2.78-1.63v3.25l-2.78,1.63-2.76-1.63v-3.25h0Zm9.5-16.76l2.76-1.63,2.78,1.63v3.25l-2.78,1.63v-3.25l-2.76-1.63h0Zm2.76,12.8l.02-5.58,2.76-1.63v8.87l-7.52,4.41v-3.27l4.74-2.79h0Z"/><polygon class="cls-2" points="90.4 25.54 87.63 27.16 87.63 23.91 90.4 22.27 90.4 25.54"/><path class="cls-2" d="M90.4,16.69l.02,3.27-4.76,2.79v5.6l-2.76,1.62-2.76-1.62v-5.6l-4.76-2.79v-3.27l2.77-1.63,4.73,2.81,4.76-2.81,2.78,1.63h-.01Zm-15.03-5.58l7.51-4.43,7.52,4.43-2.76,1.63-4.76-2.81-4.74,2.81-2.76-1.63h0Z"/></g></g></g></svg>