<svg xmlns="http://www.w3.org/2000/svg" viewBox="0 0 123.29 123.29"><defs><style>.cls-1{fill:#221536;}.cls-2{fill:#f7941f;}.cls-3{fill:#ed2139;}.cls-4{fill:#fff;}</style></defs><g id="Layer_2" data-name="Layer 2"><g id="btc_bond" data-name="btc bond"><g id="Logo"><circle class="cls-1" cx="61.65" cy="61.65" r="61.65"/><path class="cls-2" d="M60.85,58.21l-.11.47C63,59.25,70,61.57,71.17,57h0a4,4,0,0,0,.09-.59l-.28.07A73.32,73.32,0,0,1,60.85,58.21Z"/><path class="cls-2" d="M57.73,70.76l-.22.87C60.24,72.31,68.68,75,69.92,70h0a3.61,3.61,0,0,0-.36-2.76c-1.16.32-2.42.64-3.82,1C62.3,69.26,59.77,70,57.73,70.76Z"/><path class="cls-2" d="M92.69,41.71a20.93,20.93,0,0,1-2.53,4.15,22.33,22.33,0,0,1-6,5.27,39.52,39.52,0,0,1-5.24,2.74,6.9,6.9,0,0,1,.22,3.21h0a7.73,7.73,0,0,1-1.33,3.51A6.31,6.31,0,0,1,74,63a10.34,10.34,0,0,1,2.15,1.44c2.11,1.86,2.92,4.46,1.56,8.34-2.18,6.22-7.35,6.75-14.23,5.45L61.8,84.93l-4-1,1.64-6.6c-1-.26-2.11-.53-3.21-.83l-1.66,6.63-4-1,1.67-6.71-1.25-.32a14.43,14.43,0,0,0-4.33,8.14c-1.13,8.09,6.19,14,6.67,14.35A36.9,36.9,0,0,0,92.69,41.71Z"/><path class="cls-2" d="M45.41,60.93c-6.49,2.64-8.79,5.42-9.85,7a15.94,15.94,0,0,0-2.7,10.74,17.12,17.12,0,0,0,2.68,6.71,28.08,28.08,0,0,0,6,7.21h0a18.56,18.56,0,0,1-3.26-11.08,15.42,15.42,0,0,1,3-9.12,15.78,15.78,0,0,1,6-4.51,17.58,17.58,0,0,1,4.09-1.36l1.92-7.67A29.52,29.52,0,0,0,45.41,60.93Z"/><path class="cls-2" d="M59.72,62.75,59.17,65c1.73-.36,3.45-.71,5.18-1C62.53,63.34,60.72,63,59.72,62.75Z"/><path class="cls-3" d="M53.34,51.35c5.92-1.09,10.42-1.09,20.32-3a31.89,31.89,0,0,0,9.25-3.71c2.43-1.42,3.67-2.58,4.41-4.19a8.34,8.34,0,0,0,.59-4.76,36.4,36.4,0,0,0-4.19-3.65A9.12,9.12,0,0,1,83,37.6c-1.73,3.38-5.65,4.71-11.71,5.88a108.83,108.83,0,0,1-20.24,2l.17-.7h0c3.76-1,7-2,9.7-2.78,9-2.73,12.18-4.16,13.69-7.25a6.2,6.2,0,0,0,.62-4.17c-.82-3.42-4.91-4.73-5.51-4.9a36.91,36.91,0,0,0-43.26,47,26.42,26.42,0,0,1,7.21-13.42C39.15,54,46,52.7,53.34,51.35Z"/><path class="cls-4" d="M77.81,60.59h0a7.73,7.73,0,0,0,1.33-3.51h0a6.9,6.9,0,0,0-.22-3.21,47.9,47.9,0,0,1-7.66,2.55,4,4,0,0,1-.09.59h0C70,61.57,63,59.25,60.74,58.68l.11-.47,1.9-7.58h0l.14-.57h0c2.74-.34,5.92-.77,10-1.53-.6-.25-1.22-.5-1.87-.73l1.12-4.51.53-2.11-4-1-1,3.94-.62,2.52c-1-.26-2.09-.5-3.14-.74l-.1,0,.32-1.25,1-4,.31-1.24-4-1-.93,3.72L59.77,45c-.88-.2-1.74-.4-2.58-.61v0l-2.44-.61L51.63,43l-.44,1.76-.17.7-.46,1.85s3,.69,2.93.73a2.15,2.15,0,0,1,1.88,2.35C54.66,53.18,54,56,53.26,58.83L51.34,66.5c.55-.12,1.08-.22,1.58-.31,2.09-.37,4.17-.8,6.25-1.23l.55-2.21c1,.25,2.81.59,4.63,1.18,2.14.68,4.29,1.71,5.22,3.32A3.61,3.61,0,0,1,69.93,70h0c-1.24,5-9.68,2.3-12.41,1.62l.22-.87A17.15,17.15,0,0,0,53,73.25a23.16,23.16,0,0,0-2.11,1.84l1.25.32-1.67,6.71,4,1,1.66-6.63c1.1.3,2.17.57,3.21.83l-1.64,6.6,4,1,1.67-6.69c6.88,1.3,12,.77,14.23-5.45,1.36-3.88.55-6.48-1.56-8.34A10.34,10.34,0,0,0,74,63,6.31,6.31,0,0,0,77.81,60.59Z"/></g></g></g></svg>