<?xml version="1.0" encoding="UTF-8"?><svg xmlns="http://www.w3.org/2000/svg" viewBox="0 0 104 101.32"><defs><style>.e{fill:#8696cb;}.f{fill:#fff;}.g{fill:#c3c9e4;}.h{fill:#221536;}.i{fill:rgba(255,255,255,.2);}.j{fill:rgba(255,255,255,.6);}.k{fill:#6779bb;}.l{fill:#fefefe;}</style></defs><g id="a"/><g id="b"><g id="c"><g><circle class="h" cx="43.5" cy="57.82" r="43.5"/><g><path class="f" d="M37.72,45.45l5.96-9.88,4.08,6.77c2.81-1.07,4.13-2.02,4.87-3.52,.21-.43,.76-1.6,.44-2.94-.58-2.41-3.46-3.33-3.89-3.46-1.83-.41-3.73-.62-5.68-.62-14.38,0-26.03,11.66-26.03,26.03,0,2.71,.42,5.32,1.19,7.78,.55-2.48,1.83-6.34,5.09-9.47,3.02-2.9,6.63-4.08,10.51-4.91l2.92-4.85,.55-.91Z"/><path class="f" d="M62.03,39.53c-.92-.93-1.9-1.79-2.95-2.57,.15,1.03,.19,2.49-.53,3.89-1.22,2.39-3.99,3.32-8.26,4.15-.26,.05-.55,.1-.83,.15l2.05,3.4c.16-.03,.31-.05,.47-.09,0,0,3.05-.57,6.53-2.62,1.72-1.01,2.59-1.83,3.11-2.96,.61-1.33,.53-2.63,.41-3.36Z"/></g><g><polygon class="g" points="57.35 60.82 43.68 68.89 43.68 80.07 57.35 60.82"/><polygon class="l" points="43.68 68.89 38.05 65.56 32.8 62.46 30.02 60.82 31.65 63.12 35.19 68.11 43.68 80.07 43.68 68.89"/><polygon class="e" points="37.72 45.45 37.17 46.36 34.25 51.21 30.02 58.23 30.1 58.19 30.1 58.19 32.02 57.32 32.02 57.32 43.68 52.02 43.68 49.72 43.68 45.97 43.68 43.71 43.68 35.56 37.72 45.45"/><polygon class="g" points="56.35 56.58 54.16 52.95 51.51 48.55 49.46 45.15 47.76 42.33 43.68 35.56 43.68 43.71 43.68 45.97 43.68 49.72 43.68 52.02 48.98 54.43 54.84 57.09 55.84 57.55 57.34 58.23 56.38 56.63 56.35 56.58"/></g><path class="e" d="M32.8,62.46c.2-.1,.38-.19,.54-.27,.76-.36,1.45-.6,2.09-.77l-5.41-3.2c-3.06,1.56-4.3,3.08-4.93,4.01-.57,.84-2.42,3.82-1.91,7.58,.26,1.93,1.05,3.29,1.89,4.73,1.41,2.43,3.06,4.08,4.22,5.08h0c-.73-1.07-2.46-3.93-2.3-7.81,.05-1.2,.2-3.95,2.14-6.43,.8-1.03,1.7-1.74,2.51-2.27l-1.63-2.3,2.78,1.64Z"/><path class="e" d="M56.38,56.63l.96,1.6-13.66,8.07-3.27-1.94c-.9,.36-1.66,.74-2.36,1.19l5.63,3.33,13.67-8.07-13.67,19.25-8.49-11.96c-1.02,1.2-2.02,2.85-2.31,4.94-.8,5.7,4.37,9.86,4.7,10.13,1.9,.44,3.88,.67,5.91,.67,14.38,0,26.03-11.66,26.03-26.03,0-5.18-1.51-10.01-4.12-14.07-.35,.76-.92,1.81-1.78,2.93-1.15,1.47-2.5,2.63-4.24,3.72-1.8,1.13-3.64,1.96-5.23,2.55l2.19,3.63,.03,.05Z"/></g></g><g id="d"><g><circle class="k" cx="82.88" cy="21.12" r="21.12"/><g><path class="j" d="M83.54,5.28v11.71l9.89,4.42-9.89-16.13Z"/><path class="f" d="M83.54,5.28l-9.9,16.13,9.9-4.42V5.28Z"/><path class="j" d="M83.54,28.99v7.95l9.9-13.7-9.9,5.74Z"/><path class="f" d="M83.54,36.95v-7.96l-9.9-5.74,9.9,13.7Z"/><path class="i" d="M83.54,27.15l9.89-5.74-9.89-4.42v10.16Z"/><path class="j" d="M73.64,21.41l9.9,5.74v-10.16l-9.9,4.42Z"/></g></g></g></g></svg>