<svg xmlns="http://www.w3.org/2000/svg" viewBox="0 0 422.34 73.61"><defs><style>.cls-1{fill:none;}.cls-2{fill:#fff;}</style></defs><g id="Layer_2" data-name="Layer 2"><g id="Meno_logo" data-name="Meno logo"><g id="Logo"><path class="cls-1" d="M21.79,58.34c.65-5.46,5.08-8.9,6.43-10,2.74-2.13,6.05-3.07,12.67-5,5.48-1.55,8.87-2,11.87-5.13A13.61,13.61,0,0,0,55.06,35a90.54,90.54,0,0,1-14.25,3.81c-4.25.76-8.46,1.75-12.71,2.51A20.38,20.38,0,0,0,22.44,43a15.75,15.75,0,0,0-5.93,4.51,15.31,15.31,0,0,0-3,9.09,18.62,18.62,0,0,0,3.25,11.06,37.17,37.17,0,0,0,5.6,3A36.75,36.75,0,0,0,30.19,73C24.53,69.52,21.15,63.83,21.79,58.34Z"/><path class="cls-1" d="M10.76,60.46a17.4,17.4,0,0,1-2.68-6.69,16,16,0,0,1,2.7-10.72c1.06-1.56,3.35-4.33,9.83-7,9.1-3.7,11.86-1.19,25.51-4.43a44.92,44.92,0,0,0,13.14-5.34,22.28,22.28,0,0,0,6-5.27,21.08,21.08,0,0,0,2.53-4.13A37.18,37.18,0,0,0,63,11a8.28,8.28,0,0,1-.58,4.75c-.74,1.6-2,2.76-4.4,4.18a31.92,31.92,0,0,1-9.23,3.7c-9.88,1.85-14.37,1.85-20.27,2.94-7.29,1.35-14.15,2.62-19.65,7.89A26.23,26.23,0,0,0,1.68,47.8a36.85,36.85,0,0,0,15,19.85A28.31,28.31,0,0,1,10.76,60.46Z"/><path class="cls-1" d="M50.33,5.77a6.28,6.28,0,0,1-.62,4.16C48.2,13,45,14.44,36.05,17.17c-3.26,1-7.41,2.19-12.28,3.45A109.52,109.52,0,0,0,46.4,18.69c6-1.18,10-2.5,11.68-5.88a9.13,9.13,0,0,0,.75-5.49,36.68,36.68,0,0,0-14-6.44C45.43,1.06,49.51,2.36,50.33,5.77Z"/><path class="cls-2" d="M8.87,34.42c5.5-5.27,12.36-6.54,19.65-7.89,5.9-1.09,10.39-1.09,20.27-2.94A31.92,31.92,0,0,0,58,19.89c2.42-1.42,3.66-2.58,4.4-4.18A8.28,8.28,0,0,0,63,11a37,37,0,0,0-4.17-3.64,9.13,9.13,0,0,1-.75,5.49c-1.73,3.38-5.64,4.7-11.68,5.88a109.52,109.52,0,0,1-22.63,1.93c4.87-1.26,9-2.46,12.28-3.45C45,14.44,48.2,13,49.71,9.93a6.28,6.28,0,0,0,.62-4.16c-.82-3.41-4.9-4.71-5.5-4.89a37.21,37.21,0,0,0-8-.88A36.81,36.81,0,0,0,1.68,47.8,26.23,26.23,0,0,1,8.87,34.42Z"/><path class="cls-2" d="M67.78,16.92a21.08,21.08,0,0,1-2.53,4.13,22.28,22.28,0,0,1-6,5.27,44.92,44.92,0,0,1-13.14,5.34c-13.65,3.24-16.41.73-25.51,4.43-6.48,2.63-8.77,5.4-9.83,7a16,16,0,0,0-2.7,10.72,17.4,17.4,0,0,0,2.68,6.69,28.31,28.31,0,0,0,6,7.19h0a19.88,19.88,0,0,1-2.09-4,16.91,16.91,0,0,1-.63-2,18.88,18.88,0,0,1-.53-5,15.28,15.28,0,0,1,3-9.09A15.75,15.75,0,0,1,22.44,43a20.38,20.38,0,0,1,5.66-1.66c4.25-.76,8.46-1.75,12.71-2.51A90.54,90.54,0,0,0,55.06,35a13.61,13.61,0,0,1-2.3,3.28c-3,3.14-6.39,3.58-11.87,5.13-6.62,1.88-9.93,2.82-12.67,5-1.34,1-5.65,4.41-6.43,10C20.67,66.4,28,72.28,28.45,72.65A36.81,36.81,0,0,0,73.61,36.8,36.61,36.61,0,0,0,67.78,16.92Z"/></g><g id="Text"><path class="cls-2" d="M103.33,56.93H100.9a.67.67,0,0,1-.76-.77V22.22a.68.68,0,0,1,.76-.78h12.66a7.78,7.78,0,0,1,5.85,2.18,8.25,8.25,0,0,1,2.11,6v6.13a8.23,8.23,0,0,1-2.11,6,7.85,7.85,0,0,1-5.85,2.15h-8.93c-.36,0-.54.16-.54.5V56.16A.67.67,0,0,1,103.33,56.93Zm1.3-16.61H113q4.55,0,4.55-4.75V29.78q0-4.8-4.55-4.8h-8.39c-.36,0-.54.16-.54.49V39.82C104.09,40.15,104.27,40.32,104.63,40.32Z"/><path class="cls-2" d="M140.2,56.93h-4.66a7.87,7.87,0,0,1-5.87-2.15,8.13,8.13,0,0,1-2.14-6V37a8.13,8.13,0,0,1,2.14-6,7.87,7.87,0,0,1,5.87-2.16h4.66a7.87,7.87,0,0,1,5.87,2.16,8.13,8.13,0,0,1,2.14,6V48.77a8.13,8.13,0,0,1-2.14,6A7.87,7.87,0,0,1,140.2,56.93ZM136,53.4h3.79c3,0,4.55-1.58,4.55-4.74V37.06c0-3.16-1.51-4.74-4.55-4.74H136q-4.54,0-4.54,4.74v11.6Q131.43,53.4,136,53.4Z"/><path class="cls-2" d="M158.6,56.93h-2.43a.67.67,0,0,1-.76-.77V18.9a.68.68,0,0,1,.76-.77h2.43a.68.68,0,0,1,.76.77V56.16A.67.67,0,0,1,158.6,56.93Z"/><path class="cls-2" d="M177.39,56.93h-2.82a7.87,7.87,0,0,1-5.87-2.15,8.13,8.13,0,0,1-2.14-6V37a8.13,8.13,0,0,1,2.14-6,7.87,7.87,0,0,1,5.87-2.16h11.75a.68.68,0,0,1,.76.78v26.6a.68.68,0,0,1-.76.77h-2.44a.67.67,0,0,1-.75-.77V54h-.22Q181.56,56.94,177.39,56.93Zm5.74-8.61V32.81c0-.33-.18-.49-.55-.49H175q-4.5,0-4.5,4.8V48.6q0,4.8,4.5,4.8h3.08a5,5,0,0,0,3.74-1.32A5.19,5.19,0,0,0,183.13,48.32Z"/><path class="cls-2" d="M197.74,56.93h-2.43a.67.67,0,0,1-.76-.77V29.56a.68.68,0,0,1,.76-.78h2.43a.68.68,0,0,1,.76.78v2.2h.22a4.76,4.76,0,0,1,2.05-2.09,7,7,0,0,1,3.58-.89h2.11c.47,0,.7.26.7.78v2a.87.87,0,0,1-.16.58.57.57,0,0,1-.54.14h-2.93a4.65,4.65,0,0,0-3.73,1.49,6,6,0,0,0-1.3,4.08V56.16A.67.67,0,0,1,197.74,56.93Z"/><path class="cls-2" d="M212.3,24.15V19c0-.52.24-.77.71-.77h2.49a.68.68,0,0,1,.76.77v5.19a.68.68,0,0,1-.76.77H213C212.54,24.92,212.3,24.66,212.3,24.15Zm0,32V29.56c0-.52.24-.78.71-.78h2.49a.68.68,0,0,1,.76.78v26.6a.68.68,0,0,1-.76.77h-2.44A.68.68,0,0,1,212.3,56.16Z"/><path class="cls-2" d="M233.36,56.93h-9.63a.67.67,0,0,1-.76-.77V54.23c0-.48.25-.72.76-.72h9.09c2.81,0,4.22-1.06,4.22-3.2V49.26a4,4,0,0,0-2.76-4l-6.39-2.76a9.4,9.4,0,0,1-3.95-2.73,6.77,6.77,0,0,1-1.19-4.17q0-6.78,7.31-6.79h8.88a.68.68,0,0,1,.76.78v1.93c0,.48-.26.72-.76.72h-8.18a4.57,4.57,0,0,0-2.95.82,2.46,2.46,0,0,0-1,1.94v.93q0,2.33,3.09,3.54l6.39,2.92a7.06,7.06,0,0,1,3.81,2.93,10.46,10.46,0,0,1,1,5Q241.1,56.94,233.36,56.93Z"/><path class="cls-2" d="M264.92,56.93h-2.43a.67.67,0,0,1-.76-.77V22.22a.68.68,0,0,1,.76-.78h16.83a.68.68,0,0,1,.76.78v2a.68.68,0,0,1-.76.78h-13.1c-.36,0-.54.16-.54.49v12c0,.33.18.49.54.49h11.59a.67.67,0,0,1,.75.77v2a.67.67,0,0,1-.75.77H266.22a.49.49,0,0,0-.54.56V56.16A.67.67,0,0,1,264.92,56.93Z"/><path class="cls-2" d="M286.2,24.15V19c0-.52.23-.77.7-.77h2.49a.68.68,0,0,1,.76.77v5.19a.68.68,0,0,1-.76.77H286.9C286.43,24.92,286.2,24.66,286.2,24.15Zm0,32V29.56c0-.52.23-.78.7-.78h2.49a.68.68,0,0,1,.76.78v26.6a.68.68,0,0,1-.76.77H287A.67.67,0,0,1,286.2,56.16Z"/><path class="cls-2" d="M301.08,56.93h-2.43a.67.67,0,0,1-.76-.77V29.56a.68.68,0,0,1,.76-.78h2.43a.68.68,0,0,1,.76.78v2.15h.22q1.35-2.92,5.52-2.93h3a7.55,7.55,0,0,1,5.74,2.16,8.34,8.34,0,0,1,2,6V56.16a.67.67,0,0,1-.75.77h-2.44a.68.68,0,0,1-.76-.77v-19q0-4.8-4.54-4.8h-3a5,5,0,0,0-3.73,1.32,5.12,5.12,0,0,0-1.3,3.75V56.16A.67.67,0,0,1,301.08,56.93Z"/><path class="cls-2" d="M335.89,56.93h-2.81a7.91,7.91,0,0,1-5.88-2.15,8.17,8.17,0,0,1-2.14-6V37a8.17,8.17,0,0,1,2.14-6,7.91,7.91,0,0,1,5.88-2.16h11.74a.68.68,0,0,1,.76.78v26.6a.67.67,0,0,1-.76.77h-2.43a.67.67,0,0,1-.76-.77V54h-.22Q340.06,56.94,335.89,56.93Zm5.74-8.61V32.81c0-.33-.18-.49-.54-.49h-7.58q-4.5,0-4.5,4.8V48.6q0,4.8,4.5,4.8h3.08a5,5,0,0,0,3.74-1.32A5.15,5.15,0,0,0,341.63,48.32Z"/><path class="cls-2" d="M356.24,56.93h-2.43a.67.67,0,0,1-.76-.77V29.56a.68.68,0,0,1,.76-.78h2.43a.68.68,0,0,1,.76.78v2.15h.22q1.35-2.92,5.52-2.93h3a7.54,7.54,0,0,1,5.74,2.16,8.35,8.35,0,0,1,2.06,6V56.16a.68.68,0,0,1-.76.77h-2.44a.67.67,0,0,1-.75-.77v-19q0-4.8-4.55-4.8h-3a5,5,0,0,0-3.74,1.32,5.12,5.12,0,0,0-1.3,3.75V56.16A.67.67,0,0,1,356.24,56.93Z"/><path class="cls-2" d="M396.84,54.18v2c0,.48-.25.71-.75.71h-7.85a7.91,7.91,0,0,1-5.88-2.15,8.17,8.17,0,0,1-2.13-6V37a8.17,8.17,0,0,1,2.13-6,7.91,7.91,0,0,1,5.88-2.16h7.85q.75,0,.75.78v2q0,.72-.75.72h-7.42c-3,0-4.49,1.6-4.49,4.8V48.6c0,3.2,1.49,4.8,4.49,4.8h7.42Q396.84,53.4,396.84,54.18Z"/><path class="cls-2" d="M421.31,56.93H409.84A7.91,7.91,0,0,1,404,54.78a8.17,8.17,0,0,1-2.14-6V37a8.17,8.17,0,0,1,2.14-6,7.91,7.91,0,0,1,5.88-2.16h4.54a7.81,7.81,0,0,1,5.85,2.16,8.2,8.2,0,0,1,2.11,6v7c0,.56-.25.83-.76.83H406.26c-.36,0-.54.17-.54.5v3.37q0,4.8,4.55,4.8h11a.68.68,0,0,1,.76.77v2C422.07,56.7,421.82,56.93,421.31,56.93ZM406.26,41.87H418a.49.49,0,0,0,.54-.56V37.06q0-4.74-4.55-4.74h-3.68q-4.54,0-4.55,4.74v4.25A.49.49,0,0,0,406.26,41.87Z"/></g></g></g></svg>