<svg xmlns="http://www.w3.org/2000/svg" viewBox="0 0 104 101.31"><defs><style>.cls-1{fill:#221536;}.cls-2{fill:none;}.cls-3{fill:#fff;}.cls-4{fill:#ffd83f;}.cls-5{fill:#192952;}.cls-6{fill:#ffd83e;}.cls-7{fill:#f37021;}</style></defs><g id="Layer_2" data-name="Layer 2"><g id="discord_lunar_peg" data-name="discord lunar peg"><g id="Logo"><circle class="cls-1" cx="43.5" cy="57.82" r="43.5"/><path class="cls-2" d="M32.88,73.05c.55-3.93,3.6-6.31,4.55-7,1.94-1.52,4.28-2.18,9-3.51,3.87-1.1,6.28-1.41,8.39-3.62a10,10,0,0,0,1.64-2.32,64.45,64.45,0,0,1-10.09,2.69c-3,.54-6,1.23-9,1.77a14.5,14.5,0,0,0-4,1.18,11,11,0,0,0-4.2,3.19A10.86,10.86,0,0,0,27,71.82a13.21,13.21,0,0,0,2.3,7.82,25.71,25.71,0,0,0,8.29,3.53C37.25,82.91,32.09,78.75,32.88,73.05Z"/><path class="cls-2" d="M25.08,74.55a12,12,0,0,1-1.89-4.73,11.23,11.23,0,0,1,1.9-7.58c.75-1.11,2.37-3.07,7-4.93,6.44-2.62,8.39-.84,18.05-3.13a31.89,31.89,0,0,0,9.29-3.78,15.73,15.73,0,0,0,4.24-3.73,15.33,15.33,0,0,0,1.79-2.92A26.51,26.51,0,0,0,62,39.53a5.92,5.92,0,0,1-.41,3.36,6.73,6.73,0,0,1-3.11,3A22.55,22.55,0,0,1,52,48.47c-7,1.31-10.16,1.31-14.34,2.08-5.16,1-10,1.85-13.9,5.58a18.56,18.56,0,0,0-5.09,9.46,26,26,0,0,0,10.65,14A19.68,19.68,0,0,1,25.08,74.55Z"/><path class="cls-2" d="M53.07,35.86a4.43,4.43,0,0,1-.44,3C51.56,41,49.3,42,43,43.93c-2.3.7-5.24,1.55-8.68,2.44a77.37,77.37,0,0,0,16-1.37c4.27-.83,7-1.77,8.26-4.15A6.5,6.5,0,0,0,59.08,37a25.9,25.9,0,0,0-9.9-4.55C49.6,32.53,52.49,33.45,53.07,35.86Z"/><path class="cls-3" d="M23.74,56.13c3.89-3.73,8.74-4.63,13.9-5.58,4.18-.77,7.35-.77,14.34-2.08a22.55,22.55,0,0,0,6.53-2.62,6.73,6.73,0,0,0,3.11-3A5.92,5.92,0,0,0,62,39.53a26.62,26.62,0,0,0-3-2.57,6.5,6.5,0,0,1-.53,3.89c-1.22,2.38-4,3.32-8.26,4.15a77.37,77.37,0,0,1-16,1.37c3.44-.89,6.38-1.74,8.68-2.44C49.3,42,51.56,41,52.63,38.81a4.43,4.43,0,0,0,.44-3c-.58-2.41-3.47-3.33-3.89-3.45A26.05,26.05,0,0,0,18.65,65.59,18.56,18.56,0,0,1,23.74,56.13Z"/><path class="cls-4" d="M65.41,43.75a15.33,15.33,0,0,1-1.79,2.92,15.73,15.73,0,0,1-4.24,3.73,31.89,31.89,0,0,1-9.29,3.78c-9.66,2.29-11.61.51-18.05,3.13-4.58,1.86-6.2,3.82-6.95,4.93a11.23,11.23,0,0,0-1.9,7.58,12,12,0,0,0,1.89,4.73,19.68,19.68,0,0,0,4.22,5.08h0A13.21,13.21,0,0,1,27,71.82a10.86,10.86,0,0,1,2.14-6.43,11,11,0,0,1,4.2-3.19,14.5,14.5,0,0,1,4-1.18c3-.54,6-1.23,9-1.77a64.45,64.45,0,0,0,10.09-2.69,10,10,0,0,1-1.64,2.32c-2.11,2.21-4.52,2.52-8.39,3.62-4.68,1.33-7,2-9,3.51-1,.73-4,3.11-4.55,7-.79,5.7,4.37,9.86,4.71,10.12A26,26,0,0,0,69.53,57.82,25.88,25.88,0,0,0,65.41,43.75Z"/></g><g id="Luna"><circle class="cls-5" cx="82.88" cy="21.12" r="21.12"/><path class="cls-6" d="M78.77,9.44a12.26,12.26,0,0,1,7.78-.17A12.45,12.45,0,0,1,94,15.87a7.62,7.62,0,0,1,.82,2.79A28.2,28.2,0,0,0,89,16.27c-3.24-1.17-6.63-2-9.69-3.59-.72-.42-1.63-.86-1.82-1.75s.73-1.2,1.31-1.49"/><path class="cls-6" d="M71.31,16.91a12.16,12.16,0,0,1,3.48-5.08,15.71,15.71,0,0,0,4.17,9,15.05,15.05,0,0,0,10.89,4.65,22.06,22.06,0,0,0,4.78-.63c-1.56,5.61-7.7,9.33-13.4,8.44a12.36,12.36,0,0,1-9.92-16.36Z"/><path class="cls-7" d="M89,16.27a28.2,28.2,0,0,1,5.89,2.39l.13.07a12.62,12.62,0,0,1,.06,3.88,11.69,11.69,0,0,1-2.46-1.69c-1.51-1.26-3.06-2.7-3.62-4.65"/></g></g></g></svg>