<svg xmlns="http://www.w3.org/2000/svg" viewBox="0 0 512 512"><defs><style>.cls-1{fill:#FFFFFF;}</style></defs><g id="Layer_2" data-name="Layer 2"><g id="Layer_1-2" data-name="Layer 1"><path class="cls-1" d="M256,0C114.61,0,0,114.61,0,256S114.61,512,256,512,512,397.39,512,256,397.39,0,256,0ZM180.8,352.62A96.62,96.62,0,1,1,277.42,256,96.62,96.62,0,0,1,180.8,352.62ZM335.4,345c-27,0-48.89-39.84-48.89-89s21.89-89,48.89-89,48.88,39.84,48.88,89S362.4,345,335.4,345Zm75.38-7.63c-9.4,0-17-36.43-17-81.36s7.63-81.36,17-81.36h0c9.41,0,17,36.43,17,81.36S420.19,337.36,410.78,337.36Z"/></g></g></svg>
