<svg xmlns="http://www.w3.org/2000/svg" viewBox="0 0 425.26 74.76"><defs><style>.cls-1{fill:none;}.cls-2,.cls-3{fill:#fff;}.cls-3{font-size:55.2px;font-family:Rajdhani-Medium, Rajdhani;font-weight:500;}</style></defs><g id="Layer_2" data-name="Layer 2"><g id="Meno_logo" data-name="Meno logo"><g id="Logo"><path class="cls-1" d="M21.79,58.34c.65-5.46,5.08-8.9,6.43-10,2.74-2.13,6.05-3.07,12.67-5,5.48-1.55,8.87-2,11.87-5.13A13.61,13.61,0,0,0,55.06,35a90.54,90.54,0,0,1-14.25,3.81c-4.25.76-8.46,1.75-12.71,2.51A20.38,20.38,0,0,0,22.44,43a15.75,15.75,0,0,0-5.93,4.51,15.31,15.31,0,0,0-3,9.09,18.62,18.62,0,0,0,3.25,11.06,37.17,37.17,0,0,0,5.6,3A36.75,36.75,0,0,0,30.19,73C24.53,69.52,21.15,63.83,21.79,58.34Z"/><path class="cls-1" d="M10.76,60.46a17.4,17.4,0,0,1-2.68-6.69,16,16,0,0,1,2.7-10.72c1.06-1.56,3.35-4.33,9.83-7,9.1-3.7,11.86-1.19,25.51-4.43a44.92,44.92,0,0,0,13.14-5.34,22.28,22.28,0,0,0,6-5.27,21.08,21.08,0,0,0,2.53-4.13A37.18,37.18,0,0,0,63,11a8.28,8.28,0,0,1-.58,4.75c-.74,1.6-2,2.76-4.4,4.18a31.92,31.92,0,0,1-9.23,3.7c-9.88,1.85-14.37,1.85-20.27,2.94-7.29,1.35-14.15,2.62-19.65,7.89A26.23,26.23,0,0,0,1.68,47.8a36.85,36.85,0,0,0,15,19.85A28.31,28.31,0,0,1,10.76,60.46Z"/><path class="cls-1" d="M50.33,5.77a6.28,6.28,0,0,1-.62,4.16C48.2,13,45,14.44,36.05,17.17c-3.26,1-7.41,2.19-12.28,3.45A109.52,109.52,0,0,0,46.4,18.69c6-1.18,10-2.5,11.68-5.88a9.13,9.13,0,0,0,.75-5.49,36.68,36.68,0,0,0-14-6.44C45.43,1.06,49.51,2.36,50.33,5.77Z"/><path class="cls-2" d="M8.87,34.42c5.5-5.27,12.36-6.54,19.65-7.89,5.9-1.09,10.39-1.09,20.27-2.94A31.92,31.92,0,0,0,58,19.89c2.42-1.42,3.66-2.58,4.4-4.18A8.28,8.28,0,0,0,63,11a37,37,0,0,0-4.17-3.64,9.13,9.13,0,0,1-.75,5.49c-1.73,3.38-5.64,4.7-11.68,5.88a109.52,109.52,0,0,1-22.63,1.93c4.87-1.26,9-2.46,12.28-3.45C45,14.44,48.2,13,49.71,9.93a6.28,6.28,0,0,0,.62-4.16c-.82-3.41-4.9-4.71-5.5-4.89a37.21,37.21,0,0,0-8-.88A36.81,36.81,0,0,0,1.68,47.8,26.23,26.23,0,0,1,8.87,34.42Z"/><path class="cls-2" d="M67.78,16.92a21.08,21.08,0,0,1-2.53,4.13,22.28,22.28,0,0,1-6,5.27,44.92,44.92,0,0,1-13.14,5.34c-13.65,3.24-16.41.73-25.51,4.43-6.48,2.63-8.77,5.4-9.83,7a16,16,0,0,0-2.7,10.72,17.4,17.4,0,0,0,2.68,6.69,28.31,28.31,0,0,0,6,7.19h0a19.88,19.88,0,0,1-2.09-4,16.91,16.91,0,0,1-.63-2,18.88,18.88,0,0,1-.53-5,15.28,15.28,0,0,1,3-9.09A15.75,15.75,0,0,1,22.44,43a20.38,20.38,0,0,1,5.66-1.66c4.25-.76,8.46-1.75,12.71-2.51A90.54,90.54,0,0,0,55.06,35a13.61,13.61,0,0,1-2.3,3.28c-3,3.14-6.39,3.58-11.87,5.13-6.62,1.88-9.93,2.82-12.67,5-1.34,1-5.65,4.41-6.43,10C20.67,66.4,28,72.28,28.45,72.65A36.81,36.81,0,0,0,73.61,36.8,36.61,36.61,0,0,0,67.78,16.92Z"/></g><g id="Text"><text class="cls-3" transform="translate(95.86 56.93) scale(0.98 1)">Polaris Finance</text></g></g></g></svg>