<?xml version="1.0" encoding="UTF-8"?><svg id="Layer_2" xmlns="http://www.w3.org/2000/svg" viewBox="0 0 104 101.32"><defs><style>.cls-1{fill:#fff;}.cls-2{fill:#221536;}.cls-3{fill:#5b5665;}.cls-4{fill:#282138;}.cls-5{fill:#f19244;}.cls-6{fill:#f7941f;}</style></defs><g id="orbital-btc"><g id="Logo"><circle class="cls-2" cx="43.5" cy="57.82" r="43.5"/><g><g><path class="cls-6" d="M42.94,55.39l-.08,.33c1.61,.4,6.56,2.03,7.36-1.18h0c.04-.14,.05-.28,.06-.41-.07,.02-.14,.03-.2,.05-3.01,.71-5.26,1.03-7.15,1.21Z"/><path class="cls-6" d="M40.73,64.24l-.15,.62c1.93,.48,7.88,2.39,8.76-1.15h0c.19-.76,.07-1.4-.25-1.95-.82,.22-1.71,.45-2.7,.73-2.43,.69-4.22,1.2-5.66,1.74Z"/><path class="cls-6" d="M65.41,43.75c-.35,.76-.92,1.81-1.78,2.93-1.15,1.47-2.5,2.63-4.24,3.72-1.25,.78-2.51,1.42-3.7,1.93,.22,.67,.28,1.42,.16,2.27h0c-.15,1.04-.49,1.84-.94,2.47-.66,.91-1.59,1.45-2.69,1.71,.58,.3,1.08,.64,1.52,1.02,1.49,1.31,2.06,3.15,1.1,5.89-1.54,4.39-5.19,4.76-10.04,3.84l-1.18,4.72-2.85-.71,1.16-4.66c-.74-.18-1.49-.38-2.27-.59l-1.17,4.68-2.84-.71,1.18-4.73c-.29-.07-.59-.15-.88-.23-1.22,1.21-2.69,3.14-3.06,5.75-.8,5.7,4.37,9.86,4.7,10.13,1.9,.44,3.88,.67,5.91,.67,14.38,0,26.03-11.66,26.03-26.03,0-5.18-1.51-10.01-4.12-14.07Z"/><path class="cls-6" d="M32.04,57.31c-4.58,1.86-6.2,3.82-6.95,4.93-.57,.84-2.42,3.82-1.91,7.58,.26,1.93,1.05,3.29,1.89,4.73,1.41,2.43,3.06,4.08,4.22,5.08h0c-.73-1.07-2.46-3.93-2.3-7.81,.05-1.2,.2-3.95,2.14-6.43,1.45-1.86,3.25-2.74,4.2-3.19,1.09-.52,2.03-.78,2.89-.96l1.35-5.41c-1.65,.21-3.33,.58-5.54,1.48Z"/><path class="cls-6" d="M42.14,58.59l-.39,1.56c1.22-.25,2.43-.5,3.65-.73-1.29-.41-2.56-.65-3.27-.83Z"/><path class="cls-6" d="M37.64,50.55c4.18-.77,7.35-.77,14.34-2.08,0,0,3.05-.57,6.53-2.62,1.72-1.01,2.59-1.83,3.11-2.96,.61-1.33,.53-2.63,.41-3.36-.92-.93-1.9-1.79-2.95-2.57,.15,1.03,.19,2.49-.53,3.89-1.22,2.39-3.99,3.32-8.26,4.15-3.5,.68-8.33,1.34-14.29,1.37l.12-.49h0c2.66-.71,4.96-1.38,6.85-1.96,6.33-1.93,8.59-2.94,9.66-5.12,.21-.43,.76-1.6,.44-2.94-.58-2.41-3.46-3.33-3.89-3.46-1.83-.41-3.73-.62-5.68-.62-14.38,0-26.03,11.66-26.03,26.03,0,2.71,.42,5.32,1.19,7.78,.55-2.48,1.83-6.34,5.09-9.47,3.89-3.73,8.75-4.62,13.9-5.57Z"/></g><path class="cls-1" d="M54.9,57.07h0c.46-.63,.79-1.44,.94-2.47h0c.13-.85,.06-1.6-.16-2.27-2.38,1.03-4.44,1.57-5.41,1.8-.01,.14-.03,.27-.06,.41h0c-.8,3.22-5.76,1.58-7.36,1.18l.08-.33,1.33-5.35h0l.1-.4h0c1.94-.24,4.18-.54,7.09-1.07-.42-.18-.86-.36-1.32-.51l.79-3.18,.37-1.49-2.85-.71-.69,2.78-.44,1.78c-.73-.18-1.47-.35-2.21-.52l-.07-.02,.22-.89,.7-2.82,.22-.88-2.85-.71-.65,2.62-.51,2.05c-.62-.14-1.23-.28-1.82-.43h0l-1.72-.44-2.21-.55-.31,1.24-.12,.49-.33,1.31s2.11,.48,2.07,.51c1.15,.29,1.36,1.05,1.33,1.66-.5,1.99-.99,3.99-1.49,5.98l-1.35,5.41c.39-.08,.76-.15,1.11-.22,1.48-.26,2.94-.57,4.41-.87l.39-1.56c.7,.18,1.98,.42,3.27,.83,1.51,.48,3.03,1.21,3.68,2.35,.32,.55,.44,1.19,.25,1.95h0c-.88,3.54-6.83,1.62-8.76,1.15l.15-.62c-1.34,.5-2.37,1.03-3.31,1.76-.32,.25-.87,.68-1.49,1.29,.29,.08,.59,.15,.88,.23l-1.18,4.73,2.84,.71,1.17-4.68c.78,.21,1.53,.41,2.27,.59l-1.16,4.66,2.85,.71,1.18-4.72c4.85,.92,8.51,.55,10.04-3.84,.96-2.74,.39-4.58-1.1-5.89-.43-.38-.94-.72-1.52-1.02,1.1-.25,2.03-.79,2.69-1.71Z"/></g></g><g id="wbtc_colour"><circle class="cls-1" cx="82.9" cy="21.1" r="20.54"/><path id="Shape" class="cls-3" d="M96.2,8.86l-1.16,1.16c5.74,6.27,5.74,15.88,0,22.16l1.16,1.16c6.38-6.92,6.38-17.58,0-24.5v.03Z"/><path id="Shape-2" class="cls-3" d="M71.81,8.96c6.27-5.74,15.88-5.74,22.16,0l1.16-1.16c-6.92-6.38-17.58-6.38-24.5,0l1.19,1.16Z"/><path id="Shape-3" class="cls-3" d="M70.73,32.19c-5.73-6.27-5.73-15.87,0-22.14l-1.16-1.16c-6.38,6.92-6.38,17.58,0,24.5l1.16-1.2Z"/><path id="Shape-4" class="cls-3" d="M93.96,33.26c-6.27,5.74-15.88,5.74-22.16,0l-1.16,1.16c6.92,6.38,17.58,6.38,24.5,0l-1.19-1.16Z"/><path id="Shape-5" class="cls-5" d="M90.2,17.25c-.23-2.42-2.32-3.23-4.96-3.48v-3.33h-2.04v3.27h-1.63v-3.27h-2.03v3.36h-4.14v2.18s1.51-.03,1.48,0c.56-.06,1.08,.33,1.16,.9v9.18c-.01,.19-.1,.37-.25,.5-.14,.13-.33,.19-.53,.18,.03,.02-1.48,0-1.48,0l-.39,2.44h4.1v3.41h2.04v-3.36h1.63v3.34h2.04v-3.37c3.45-.21,5.85-1.06,6.15-4.29,.24-2.6-.98-3.76-2.93-4.22,1.19-.58,1.92-1.67,1.75-3.44Zm-2.86,7.26c0,2.54-4.34,2.25-5.73,2.25v-4.5c1.38,0,5.73-.39,5.73,2.25Zm-.95-6.34c0,2.32-3.63,2.04-4.78,2.04v-4.09c1.15,0,4.78-.36,4.78,2.05Z"/><path id="Shape-6" class="cls-4" d="M82.88,42.23c-11.66,0-21.11-9.46-21.11-21.12C61.77,9.45,71.22,0,82.88,0c11.66,0,21.11,9.45,21.11,21.11,0,11.66-9.45,21.12-21.11,21.12h0Zm0-40.59c-10.75,0-19.45,8.73-19.44,19.47,0,10.75,8.73,19.45,19.47,19.44,10.74,0,19.44-8.71,19.44-19.45,0-10.75-8.7-19.46-19.45-19.47,0,0-.02,0-.02,0Z"/></g></g></svg>