<svg xmlns="http://www.w3.org/2000/svg" viewBox="0 0 104 101.32"><defs><style>.cls-1{fill:#221536;}.cls-2{fill:none;}.cls-3{fill:#fff;}.cls-4{fill:#febd11;}.cls-5{fill:#9f9dcd;}.cls-6{fill:#676767;}</style></defs><g id="Layer_2" data-name="Layer 2"><g id="stnear_polar" data-name="stnear polar"><g id="Logo"><circle class="cls-1" cx="43.5" cy="57.82" r="43.5"/><path class="cls-2" d="M32.88,73.05c.55-3.93,3.6-6.31,4.55-7,1.94-1.52,4.28-2.18,9-3.51,3.87-1.1,6.28-1.41,8.39-3.62a10,10,0,0,0,1.64-2.32,64.45,64.45,0,0,1-10.09,2.69c-3,.54-6,1.23-9,1.77a14.5,14.5,0,0,0-4,1.18,11.11,11.11,0,0,0-4.2,3.19A10.86,10.86,0,0,0,27,71.82a13.21,13.21,0,0,0,2.3,7.82,25.71,25.71,0,0,0,8.29,3.53C37.25,82.91,32.09,78.75,32.88,73.05Z"/><path class="cls-2" d="M25.08,74.55a12,12,0,0,1-1.89-4.73,11.23,11.23,0,0,1,1.9-7.58c.75-1.11,2.37-3.07,7-4.93,6.44-2.62,8.39-.84,18.05-3.13a31.89,31.89,0,0,0,9.29-3.78,15.87,15.87,0,0,0,4.24-3.72,15.67,15.67,0,0,0,1.79-2.93A26.51,26.51,0,0,0,62,39.53a5.92,5.92,0,0,1-.41,3.36,6.73,6.73,0,0,1-3.11,3A22.55,22.55,0,0,1,52,48.47c-7,1.31-10.16,1.31-14.34,2.08-5.16,1-10,1.85-13.9,5.58a18.56,18.56,0,0,0-5.09,9.46,26,26,0,0,0,10.65,14A19.68,19.68,0,0,1,25.08,74.55Z"/><path class="cls-2" d="M53.07,35.86a4.43,4.43,0,0,1-.44,3C51.56,41,49.3,42,43,43.93c-2.31.7-5.25,1.55-8.69,2.44a77.37,77.37,0,0,0,16-1.37c4.27-.83,7-1.77,8.26-4.15A6.5,6.5,0,0,0,59.08,37a25.9,25.9,0,0,0-9.9-4.55C49.6,32.53,52.49,33.45,53.07,35.86Z"/><path class="cls-3" d="M23.74,56.13c3.89-3.73,8.74-4.63,13.9-5.58,4.18-.77,7.35-.77,14.34-2.08a22.55,22.55,0,0,0,6.53-2.62,6.73,6.73,0,0,0,3.11-3A5.92,5.92,0,0,0,62,39.53a26.62,26.62,0,0,0-3-2.57,6.5,6.5,0,0,1-.53,3.89c-1.22,2.38-4,3.32-8.26,4.15a77.37,77.37,0,0,1-16,1.37c3.44-.89,6.38-1.74,8.69-2.44C49.3,42,51.56,41,52.63,38.81a4.43,4.43,0,0,0,.44-3c-.58-2.41-3.47-3.33-3.89-3.45A26.05,26.05,0,0,0,18.65,65.59,18.56,18.56,0,0,1,23.74,56.13Z"/><path class="cls-3" d="M65.41,43.75a15.67,15.67,0,0,1-1.79,2.93,15.87,15.87,0,0,1-4.24,3.72,31.89,31.89,0,0,1-9.29,3.78c-9.66,2.29-11.61.51-18.05,3.13-4.58,1.86-6.2,3.82-6.95,4.93a11.23,11.23,0,0,0-1.9,7.58,12,12,0,0,0,1.89,4.73,19.68,19.68,0,0,0,4.22,5.08h0A13.21,13.21,0,0,1,27,71.82a10.86,10.86,0,0,1,2.14-6.43,11.11,11.11,0,0,1,4.2-3.19,14.5,14.5,0,0,1,4-1.18c3-.54,6-1.23,9-1.77a64.45,64.45,0,0,0,10.09-2.69,10,10,0,0,1-1.64,2.32c-2.11,2.21-4.52,2.52-8.39,3.62-4.68,1.33-7,2-9,3.51-1,.73-4,3.11-4.55,7-.79,5.7,4.37,9.86,4.71,10.12A26,26,0,0,0,69.53,57.82,25.91,25.91,0,0,0,65.41,43.75Z"/></g><g id="stnear"><path id="path505" class="cls-3" d="M82.89,0A21.12,21.12,0,1,0,104,21.12h0A21.12,21.12,0,0,0,82.89,0Z"/><path id="path1051" class="cls-4" d="M69.1,17.12l7.72.23,1.47,3.71L83,23.12l5.31-2.07,1.46-3.66,7.65,0L95.9,33.57l-14.32,2.9L69.78,32.6Z"/><path id="path1815" class="cls-5" d="M83.34,7.64l-6.5,6,.68,6.23L83,23.12l6.1-3.29.67-7.06Z"/><path id="path928" class="cls-6" d="M82.88,2.47a19,19,0,0,1,2.92.23,18.64,18.64,0,1,1-2.92-.23Zm.46,5.17c-1.27,3.53-5.49,6.08-5.49,9a5.44,5.44,0,0,0,10.88,0C88.73,13.72,84.55,11.27,83.34,7.64Zm2,6.29h.15l.16,0,.15,0,.14,0,.14.07.13.07.13.09.11.1a1.14,1.14,0,0,0,.11.11l.09.12.08.13.06.14a.58.58,0,0,1,0,.14,1,1,0,0,1,0,.14.77.77,0,0,1,0,.15.76.76,0,0,1,0,.15,1.83,1.83,0,0,1,0,.4,1.65,1.65,0,0,1-.16.36,1.54,1.54,0,0,1-.25.32,2.43,2.43,0,0,1-.32.24,1.37,1.37,0,0,1-.38.15,1.43,1.43,0,0,1-.82,0,1.37,1.37,0,0,1-.38-.15,2.43,2.43,0,0,1-.32-.24,1.59,1.59,0,0,1-.41-.69,1.67,1.67,0,0,1,0-.39,1.74,1.74,0,0,1,0-.39,1.59,1.59,0,0,1,.41-.69,2,2,0,0,1,.33-.24,1.51,1.51,0,0,1,.37-.15,1.44,1.44,0,0,1,.41-.05Zm-8.5,3.42c-2.55.29-4,.74-4,1.22s1.79,1,4.75,1.3A6.5,6.5,0,0,1,76.82,17.35Zm13,0a6.48,6.48,0,0,1-.67,2.43c2.69-.29,4.29-.76,4.29-1.26S92.1,17.69,89.8,17.4Zm4.32,2c-.29.73-2.55,1.34-5.78,1.65a6.45,6.45,0,0,1-10,0c-3.29-.32-5.59-.93-5.86-1.65h0v3.22h0a.8.8,0,0,0,0,.15c0,1.12,4.87,2,10.86,2s10.86-.91,10.86-2a.38.38,0,0,0,0-.15Zm0,4.56C93.72,25,89,25.84,83.28,25.84S72.83,25,72.45,24h0V27.2h0a.33.33,0,0,0,0,.15c0,1.12,4.87,2,10.86,2s10.86-.9,10.86-2a.38.38,0,0,0,0-.15Zm0,4.49c-.42,1.05-5.12,1.89-10.86,1.89s-10.45-.84-10.83-1.87h0v3.22h0a.37.37,0,0,0,0,.15c0,1.12,4.87,2,10.86,2s10.86-.9,10.86-2a.38.38,0,0,0,0-.15Z"/></g></g></g></svg>