<?xml version="1.0" encoding="UTF-8"?><svg id="Layer_2" xmlns="http://www.w3.org/2000/svg" viewBox="0 0 104 101.32"><defs><style>.cls-1{fill:#fff;}.cls-2{fill:#221536;}.cls-3{fill:#3774ba;}.cls-4{fill:none;}</style></defs><g id="orbital-btc"><g id="Logo"><circle class="cls-2" cx="43.5" cy="57.82" r="43.5"/><g><path class="cls-4" d="M32.88,73.05c.55-3.93,3.6-6.3,4.55-7.04,1.94-1.51,4.28-2.18,8.96-3.5,3.87-1.1,6.27-1.41,8.39-3.63,.82-.85,1.33-1.71,1.63-2.32-4.22,1.49-7.68,2.26-10.08,2.69-3.01,.54-5.99,1.24-8.99,1.78-1.12,.2-2.42,.43-4,1.17-.95,.45-2.75,1.33-4.2,3.19-1.94,2.49-2.09,5.23-2.14,6.43-.16,3.89,1.57,6.74,2.3,7.82,2.5,1.63,5.29,2.84,8.28,3.54-.34-.26-5.5-4.42-4.7-10.13Z"/><path class="cls-4" d="M25.08,74.55c-.84-1.45-1.63-2.8-1.89-4.73-.51-3.75,1.34-6.74,1.91-7.58,.75-1.1,2.37-3.06,6.95-4.93,6.44-2.62,8.39-.84,18.04-3.13,1.25-.3,5.37-1.31,9.3-3.78,1.74-1.1,3.09-2.25,4.24-3.72,.87-1.11,1.43-2.16,1.78-2.93-.98-1.52-2.11-2.93-3.38-4.22,.12,.74,.2,2.03-.41,3.36-.52,1.13-1.4,1.95-3.11,2.96-3.48,2.04-6.53,2.62-6.53,2.62-6.99,1.31-10.16,1.31-14.34,2.08-5.15,.95-10.01,1.85-13.9,5.57-3.26,3.12-4.53,6.98-5.09,9.47,1.82,5.83,5.63,10.77,10.64,14.04-1.16-1-2.81-2.66-4.22-5.08Z"/><path class="cls-4" d="M53.07,35.86c.32,1.35-.23,2.52-.44,2.94-1.07,2.18-3.33,3.19-9.66,5.12-2.31,.7-5.24,1.55-8.69,2.44,6.75,.11,12.18-.63,16.01-1.37,4.27-.83,7.04-1.77,8.26-4.15,.71-1.4,.68-2.86,.53-3.89-2.89-2.17-6.25-3.74-9.9-4.55,.43,.12,3.31,1.05,3.89,3.46Z"/><path class="cls-1" d="M23.74,56.13c3.89-3.73,8.75-4.62,13.9-5.57,4.18-.77,7.35-.77,14.34-2.08,0,0,3.05-.57,6.53-2.62,1.72-1.01,2.59-1.83,3.11-2.96,.61-1.33,.53-2.63,.41-3.36-.92-.93-1.9-1.79-2.95-2.57,.15,1.03,.19,2.49-.53,3.89-1.22,2.39-3.99,3.32-8.26,4.15-3.83,.74-9.25,1.48-16.01,1.37,3.44-.89,6.38-1.74,8.69-2.44,6.33-1.93,8.59-2.94,9.66-5.12,.21-.43,.76-1.6,.44-2.94-.58-2.41-3.46-3.33-3.89-3.46-1.83-.41-3.73-.62-5.68-.62-14.38,0-26.03,11.66-26.03,26.03,0,2.71,.42,5.32,1.19,7.78,.55-2.48,1.83-6.34,5.09-9.47Z"/><path class="cls-1" d="M65.41,43.75c-.35,.76-.92,1.81-1.78,2.93-1.15,1.47-2.5,2.63-4.24,3.72-3.92,2.47-8.04,3.48-9.3,3.78-9.65,2.29-11.61,.52-18.04,3.13-4.58,1.86-6.2,3.82-6.95,4.93-.57,.84-2.42,3.82-1.91,7.58,.26,1.93,1.05,3.29,1.89,4.73,1.41,2.43,3.06,4.08,4.22,5.08h0c-.73-1.07-2.46-3.93-2.3-7.81,.05-1.2,.2-3.95,2.14-6.43,1.45-1.86,3.25-2.74,4.2-3.19,1.58-.75,2.87-.97,4-1.17,3.01-.54,5.98-1.24,8.99-1.78,2.4-.43,5.86-1.2,10.08-2.69-.31,.61-.82,1.47-1.63,2.32-2.12,2.22-4.52,2.53-8.39,3.63-4.68,1.33-7.02,1.99-8.96,3.5-.95,.74-4,3.11-4.55,7.04-.8,5.7,4.37,9.86,4.7,10.13,1.9,.44,3.88,.67,5.91,.67,14.38,0,26.03-11.66,26.03-26.03,0-5.18-1.51-10.01-4.12-14.07Z"/></g></g></g><g id="Layer_22"><g><circle class="cls-2" cx="82.88" cy="21.12" r="21.12"/><path class="cls-3" d="M73.29,20.3c1.89-1.81,4.25-2.24,6.75-2.71,2.03-.37,3.57-.37,6.96-1.01,0,0,1.48-.28,3.17-1.27,.83-.49,1.26-.89,1.51-1.44,.3-.65,.26-1.27,.2-1.63-.45-.45-.92-.87-1.43-1.25,.07,.5,.09,1.21-.26,1.89-.59,1.16-1.94,1.61-4.01,2.02-1.86,.36-4.49,.72-7.77,.66,1.67-.43,3.1-.85,4.22-1.19,3.07-.94,4.17-1.43,4.69-2.48,.1-.21,.37-.77,.21-1.43-.28-1.17-1.68-1.62-1.89-1.68-.89-.2-1.81-.3-2.76-.3-6.98,0-12.64,5.66-12.64,12.64,0,1.32,.2,2.58,.58,3.78,.27-1.21,.89-3.08,2.47-4.6Z"/><path class="cls-3" d="M93.52,14.29c-.17,.37-.44,.88-.87,1.42-.56,.71-1.21,1.28-2.06,1.81-1.91,1.2-3.9,1.69-4.51,1.84-4.69,1.11-5.63,.25-8.76,1.52-2.22,.9-3.01,1.86-3.37,2.39-.28,.41-1.18,1.86-.93,3.68,.13,.94,.51,1.59,.92,2.3,.68,1.18,1.49,1.98,2.05,2.47h0c-.36-.52-1.19-1.91-1.12-3.79,.02-.58,.1-1.92,1.04-3.12,.7-.9,1.58-1.33,2.04-1.55,.77-.36,1.4-.47,1.94-.57,1.46-.26,2.91-.6,4.37-.86,1.16-.21,2.84-.58,4.89-1.31-.15,.29-.4,.71-.79,1.13-1.03,1.08-2.19,1.23-4.07,1.76-2.27,.64-3.41,.97-4.35,1.7-.46,.36-1.94,1.51-2.21,3.42-.39,2.77,2.12,4.79,2.28,4.92,.92,.21,1.88,.33,2.87,.33,6.98,0,12.64-5.66,12.64-12.64,0-2.52-.74-4.86-2-6.83Z"/><path class="cls-1" d="M88.15,21.83s.03,.04,.04,.06c.26,.47,.4,.97,.47,1.5,.04,.32,.06,.64,.04,.95-.03,1.03-.38,1.94-1.05,2.73-.61,.71-1.37,1.19-2.25,1.51-.36,.13-.73,.22-1.12,.29v2.01c0,.24-.09,.44-.24,.61-.12,.14-.29,.2-.47,.2-.42,0-.84,.01-1.26,0-.26,0-.48-.12-.64-.33-.07-.09-.12-.2-.12-.32,0-.1,0-.19,0-.29v-1.88c-.17-.03-.32-.06-.47-.09-.72-.15-1.42-.39-2.05-.77-.35-.21-.66-.47-.96-.77-.02-.02-.03-.04-.05-.06-.54-.59-.87-1.29-1.06-2.06-.03-.14-.06-.27-.09-.41-.03-.14-.03-.29,.03-.42,.09-.21,.25-.33,.48-.36,.05,0,.1,0,.15,0h1.36c.38,0,.61,.19,.7,.55,.06,.22,.13,.43,.2,.66,.11,.27,.25,.5,.43,.7,.33,.37,.75,.6,1.22,.73,.7,.19,1.41,.24,2.12,.14,.49-.07,.94-.23,1.34-.52,.49-.35,.82-.82,.91-1.42s.05-1.19-.36-1.69c0,0,0-.01,0-.02,.34-.1,.69-.2,1.02-.31,.6-.19,1.15-.47,1.62-.9,0,0,.02-.01,.03-.02Z"/><path class="cls-1" d="M77.19,18.2c-.06-.36-.07-.72-.04-1.08,.04-.46,.15-.91,.35-1.33,.32-.69,.8-1.24,1.42-1.68,.65-.46,1.37-.73,2.15-.89,.13-.03,.26-.05,.4-.07v-1.93c0-.23,.09-.43,.23-.59,.12-.13,.27-.21,.45-.21,.43,0,.87,0,1.3,0,.34,0,.66,.27,.73,.58,.01,.06,.01,.12,.01,.17v2.07c.36,.04,.7,.1,1.04,.22-.03,.02-.07,.05-.12,.06-.77,.3-1.56,.55-2.34,.79-1.39,.43-2.78,.82-4.18,1.19-.03,0-.06,.02-.09,.03,.13,.05,.84,.05,2.6-.02-.03,.03-.07,.05-.11,.06-.51,.25-.86,.65-.99,1.21-.06,.27-.06,.54-.05,.81-.4,.08-.81,.15-1.21,.23-.52,.1-1.04,.23-1.56,.37Z"/><path class="cls-1" d="M82.98,22.05c-.18-.03-.35-.07-.52-.09-.87-.12-1.73-.27-2.56-.56-.54-.19-1.06-.45-1.5-.82-.02-.02-.05-.04-.08-.06,.14-.05,.29-.1,.43-.14,.66-.17,1.33-.26,2.01-.31,.61-.04,1.23-.08,1.84-.14,.46-.04,.91-.11,1.36-.17,.05,0,.1-.01,.16-.02,.38,.08,.76,.15,1.13,.24,.58,.14,1.15,.35,1.66,.66,.2,.12,.37,.26,.56,.4-.09,.04-.19,.07-.28,.1-1.05,.3-2.11,.53-3.19,.72-.3,.05-.6,.12-.9,.17-.04,.01-.08,.01-.13,.02Z"/><path class="cls-1" d="M85.43,16.85s-.03-.09-.05-.12c-.34-.75-.92-1.2-1.72-1.37-.06-.01-.12-.03-.18-.06,.53-.08,1.07-.14,1.6-.23,.64-.11,1.28-.24,1.92-.37,.04,0,.08-.02,.12-.02,.2,.23,.38,.46,.53,.72,.16,.28,.29,.57,.4,.87,.04,.16,.08,.32,.12,.48,.03,.12,.03,.23,0,.35-.06,.25-.27,.44-.54,.46-.03,0-.07,0-.11,0-.44,0-.89,0-1.33,0-.33,0-.6-.21-.67-.48-.02-.08-.06-.16-.09-.24Z"/></g></g></svg>