<svg xmlns="http://www.w3.org/2000/svg" viewBox="0 0 131.49 109.83"><defs><style>.cls-1{fill:#221536;}.cls-2{fill:none;}.cls-3{fill:#fff;}.cls-4{fill:#7bc24f;}</style></defs><g id="Layer_2" data-name="Layer 2"><g id="_POLAR" data-name="$POLAR"><g id="Logo"><circle class="cls-1" cx="43.5" cy="66.33" r="43.5"/><path class="cls-2" d="M32.88,81.56c.55-3.92,3.6-6.3,4.55-7,1.94-1.51,4.28-2.17,9-3.5,3.87-1.1,6.28-1.41,8.39-3.63a9.57,9.57,0,0,0,1.64-2.32,63.34,63.34,0,0,1-10.09,2.69c-3,.54-6,1.24-9,1.78a14.78,14.78,0,0,0-4,1.17,11.22,11.22,0,0,0-4.2,3.19A10.88,10.88,0,0,0,27,80.34a13.14,13.14,0,0,0,2.3,7.81,25.73,25.73,0,0,0,8.29,3.54C37.25,91.43,32.09,87.27,32.88,81.56Z"/><path class="cls-2" d="M25.08,83.07a12.08,12.08,0,0,1-1.89-4.74,11.27,11.27,0,0,1,1.9-7.58c.75-1.1,2.37-3.06,7-4.92,6.44-2.62,8.39-.84,18.05-3.13a31.72,31.72,0,0,0,9.29-3.79,15.53,15.53,0,0,0,4.24-3.72,15.33,15.33,0,0,0,1.79-2.92A26.07,26.07,0,0,0,62,48.05a5.93,5.93,0,0,1-.41,3.36,6.82,6.82,0,0,1-3.11,3A22.55,22.55,0,0,1,52,57c-7,1.31-10.16,1.31-14.34,2.08-5.16,1-10,1.85-13.9,5.57a18.62,18.62,0,0,0-5.09,9.47,26.08,26.08,0,0,0,10.65,14A19.85,19.85,0,0,1,25.08,83.07Z"/><path class="cls-2" d="M53.07,44.38a4.43,4.43,0,0,1-.44,2.95C51.56,49.5,49.3,50.52,43,52.44c-2.3.7-5.24,1.56-8.68,2.45a78.08,78.08,0,0,0,16-1.37c4.27-.83,7-1.77,8.26-4.16a6.46,6.46,0,0,0,.53-3.88,25.92,25.92,0,0,0-9.9-4.56C49.6,41.05,52.49,42,53.07,44.38Z"/><path class="cls-3" d="M23.74,64.64c3.89-3.72,8.74-4.62,13.9-5.57C41.82,58.3,45,58.3,52,57a22.55,22.55,0,0,0,6.53-2.62,6.82,6.82,0,0,0,3.11-3A5.93,5.93,0,0,0,62,48.05a26.62,26.62,0,0,0-3-2.57,6.46,6.46,0,0,1-.53,3.88c-1.22,2.39-4,3.33-8.26,4.16a78.08,78.08,0,0,1-16,1.37c3.44-.89,6.38-1.75,8.68-2.45,6.34-1.92,8.6-2.94,9.67-5.11a4.43,4.43,0,0,0,.44-2.95c-.58-2.41-3.47-3.33-3.89-3.46a26.57,26.57,0,0,0-5.68-.62A26.06,26.06,0,0,0,18.65,74.11,18.62,18.62,0,0,1,23.74,64.64Z"/><path class="cls-3" d="M65.41,52.27a15.33,15.33,0,0,1-1.79,2.92,15.53,15.53,0,0,1-4.24,3.72,31.72,31.72,0,0,1-9.29,3.79C40.43,65,38.48,63.21,32,65.83c-4.58,1.86-6.2,3.82-6.95,4.92a11.27,11.27,0,0,0-1.9,7.58,12.08,12.08,0,0,0,1.89,4.74,19.85,19.85,0,0,0,4.22,5.08h0A13.14,13.14,0,0,1,27,80.34a10.88,10.88,0,0,1,2.14-6.44,11.22,11.22,0,0,1,4.2-3.19,14.78,14.78,0,0,1,4-1.17c3-.54,6-1.24,9-1.78a63.34,63.34,0,0,0,10.09-2.69,9.57,9.57,0,0,1-1.64,2.32c-2.11,2.22-4.52,2.53-8.39,3.63-4.68,1.33-7,2-9,3.5-1,.74-4,3.12-4.55,7-.79,5.71,4.37,9.87,4.71,10.13A26.07,26.07,0,0,0,69.53,66.33,25.87,25.87,0,0,0,65.41,52.27Z"/></g><path class="cls-4" d="M95.33,5.52A8,8,0,0,1,102.51,10l22.6,45.2a8,8,0,0,1-7.18,11.63H72.73a8,8,0,0,1-7.19-11.63L88.14,10a8,8,0,0,1,7.19-4.44m0-5.52A13.56,13.56,0,0,0,83.2,7.49L60.6,52.69A13.57,13.57,0,0,0,72.73,72.32h45.2a13.55,13.55,0,0,0,12.12-19.63L107.46,7.49A13.57,13.57,0,0,0,95.33,0Z"/></g></g></svg>