<svg xmlns="http://www.w3.org/2000/svg" viewBox="0 0 76.3 76.3"><defs><style>.cls-1{fill:#221536;}.cls-2{fill:none;}.cls-3{fill:#ed2139;}.cls-4{fill:#d7e02e;}.cls-5{fill:#221335;}</style></defs><g id="Layer_2" data-name="Layer 2"><g id="_PTRI" data-name="$PTRI"><g id="Logo"><circle class="cls-1" cx="38.15" cy="38.15" r="38.15"/><path class="cls-2" d="M28.84,51.51a9.81,9.81,0,0,1,4-6.17c1.7-1.33,3.75-1.91,7.86-3.08,3.39-1,5.5-1.24,7.36-3.18a8.71,8.71,0,0,0,1.43-2,57.44,57.44,0,0,1-8.84,2.36c-2.64.47-5.25,1.08-7.89,1.55a13.1,13.1,0,0,0-3.51,1,9.83,9.83,0,0,0-3.68,2.8,9.6,9.6,0,0,0-1.88,5.64,11.56,11.56,0,0,0,2,6.86A22.64,22.64,0,0,0,33,60.39C32.67,60.16,28.14,56.51,28.84,51.51Z"/><path class="cls-2" d="M22,52.83a10.84,10.84,0,0,1-1.66-4.15A9.82,9.82,0,0,1,22,42c.66-1,2.08-2.69,6.09-4.32,5.65-2.3,7.36-.74,15.83-2.75a27.73,27.73,0,0,0,8.15-3.31,13.78,13.78,0,0,0,3.72-3.27,13.43,13.43,0,0,0,1.57-2.57,23,23,0,0,0-3-3.69A5.15,5.15,0,0,1,54,25.07a5.93,5.93,0,0,1-2.73,2.59A19.76,19.76,0,0,1,45.59,30C39.46,31.1,36.67,31.1,33,31.78c-4.52.83-8.78,1.62-12.19,4.89A16.25,16.25,0,0,0,16.36,45a22.93,22.93,0,0,0,9.33,12.32A17.77,17.77,0,0,1,22,52.83Z"/><path class="cls-2" d="M46.54,18.9a3.9,3.9,0,0,1-.38,2.58c-.94,1.91-2.93,2.8-8.48,4.49-2,.62-4.6,1.36-7.62,2.14a67.48,67.48,0,0,0,14-1.2c3.75-.73,6.18-1.55,7.25-3.64a5.57,5.57,0,0,0,.46-3.41,22.6,22.6,0,0,0-8.68-4C43.5,16,46,16.78,46.54,18.9Z"/><path class="cls-3" d="M20.82,36.67c3.41-3.27,7.67-4.06,12.19-4.89,3.66-.68,6.45-.68,12.58-1.83a19.76,19.76,0,0,0,5.72-2.29A5.93,5.93,0,0,0,54,25.07a5.15,5.15,0,0,0,.36-2.95,22.3,22.3,0,0,0-2.59-2.26,5.57,5.57,0,0,1-.46,3.41c-1.07,2.09-3.5,2.91-7.25,3.64a67.48,67.48,0,0,1-14,1.2c3-.78,5.6-1.52,7.62-2.14,5.55-1.69,7.54-2.58,8.48-4.49a3.9,3.9,0,0,0,.38-2.58c-.51-2.12-3-2.93-3.41-3A22.84,22.84,0,0,0,16.36,45,16.25,16.25,0,0,1,20.82,36.67Z"/><path class="cls-4" d="M57.37,25.81a13.43,13.43,0,0,1-1.57,2.57,13.78,13.78,0,0,1-3.72,3.27A27.73,27.73,0,0,1,43.93,35c-8.47,2-10.18.45-15.83,2.75-4,1.63-5.43,3.35-6.09,4.32a9.82,9.82,0,0,0-1.68,6.65A10.84,10.84,0,0,0,22,52.83a17.77,17.77,0,0,0,3.7,4.46h0a11.56,11.56,0,0,1-2-6.86,9.6,9.6,0,0,1,1.88-5.64A9.83,9.83,0,0,1,29.24,42a13.1,13.1,0,0,1,3.51-1c2.64-.47,5.25-1.08,7.89-1.55a57.44,57.44,0,0,0,8.84-2.36,8.71,8.71,0,0,1-1.43,2c-1.86,1.94-4,2.22-7.36,3.18-4.11,1.17-6.16,1.75-7.86,3.08a9.81,9.81,0,0,0-4,6.17c-.7,5,3.83,8.65,4.13,8.88a22.66,22.66,0,0,0,5.18.59,24.25,24.25,0,0,0,9.65-2.13C56.39,54.84,61,45.18,61,38.15,61,34.7,60,31.42,57.37,25.81Z"/></g><path class="cls-5" d="M54.86,45.66a1.37,1.37,0,1,1-.36,2.71l-3.55,0v8.73L47.7,59.06V48.37H44.14a1.37,1.37,0,1,1-.33-2.71"/></g></g></svg>