<?xml version="1.0" encoding="UTF-8"?>
<svg xmlns="http://www.w3.org/2000/svg" xmlns:xlink="http://www.w3.org/1999/xlink" width="61.040001pt" height="61.040001pt" viewBox="0 0 61.040001 61.040001" version="1.1">
<g id="surface1">
<path style=" stroke:none;fill-rule:nonzero;fill:rgb(11%,11%,11%);fill-opacity:1;" d="M 61.039062 30.519531 C 61.039062 47.375 47.375 61.039062 30.519531 61.039062 C 13.664062 61.039062 0 47.375 0 30.519531 C 0 13.664062 13.664062 0 30.519531 0 C 47.375 0 61.039062 13.664062 61.039062 30.519531 Z M 61.039062 30.519531 "/>
<path style=" stroke:none;fill-rule:nonzero;fill:rgb(79%,79%,79%);fill-opacity:1;" d="M 16.65625 29.335938 C 19.382812 26.71875 22.792969 26.097656 26.40625 25.425781 C 29.335938 24.878906 31.566406 24.878906 36.472656 23.960938 C 36.472656 23.960938 38.609375 23.558594 41.054688 22.128906 C 42.257812 21.425781 42.871094 20.847656 43.238281 20.046875 C 43.671875 19.113281 43.609375 18.207031 43.527344 17.6875 C 42.886719 17.03125 42.191406 16.433594 41.457031 15.878906 C 41.558594 16.601562 41.585938 17.632812 41.089844 18.609375 C 40.230469 20.28125 38.289062 20.9375 35.289062 21.519531 C 32.601562 22.039062 28.792969 22.550781 24.054688 22.480469 C 26.472656 21.855469 28.535156 21.257812 30.152344 20.769531 C 34.59375 19.414062 36.183594 18.703125 36.929688 17.175781 C 37.070312 16.871094 37.464844 16.054688 37.238281 15.113281 C 36.832031 13.414062 34.808594 12.777344 34.511719 12.6875 C 33.230469 12.398438 31.894531 12.246094 30.527344 12.246094 C 20.441406 12.246094 12.265625 20.425781 12.265625 30.511719 C 12.265625 32.414062 12.558594 34.246094 13.097656 35.96875 C 13.480469 34.222656 14.375 31.519531 16.664062 29.328125 Z M 16.65625 29.335938 "/>
<path style=" stroke:none;fill-rule:nonzero;fill:rgb(77%,77%,77%);fill-opacity:1;" d="M 45.894531 20.648438 C 45.648438 21.183594 45.257812 21.921875 44.640625 22.703125 C 43.832031 23.734375 42.886719 24.542969 41.664062 25.320312 C 38.910156 27.046875 36.023438 27.761719 35.144531 27.976562 C 28.367188 29.585938 27 28.335938 22.488281 30.175781 C 19.273438 31.480469 18.136719 32.855469 17.609375 33.632812 C 17.207031 34.222656 15.902344 36.3125 16.273438 38.953125 C 16.457031 40.304688 17.007812 41.257812 17.601562 42.273438 C 18.585938 43.976562 19.742188 45.136719 20.558594 45.839844 C 20.046875 45.089844 18.839844 43.078125 18.945312 40.359375 C 18.976562 39.511719 19.078125 37.59375 20.449219 35.847656 C 21.464844 34.542969 22.726562 33.929688 23.390625 33.609375 C 24.496094 33.078125 25.40625 32.929688 26.199219 32.785156 C 28.3125 32.40625 30.398438 31.910156 32.511719 31.535156 C 34.191406 31.230469 36.625 30.695312 39.585938 29.648438 C 39.367188 30.070312 39.007812 30.679688 38.441406 31.273438 C 36.953125 32.824219 35.273438 33.046875 32.550781 33.816406 C 29.265625 34.742188 27.625 35.214844 26.265625 36.273438 C 25.601562 36.792969 23.457031 38.457031 23.070312 41.214844 C 22.511719 45.214844 26.136719 48.136719 26.375 48.320312 C 27.710938 48.632812 29.097656 48.792969 30.527344 48.792969 C 31.113281 48.792969 34.671875 48.753906 38.246094 47.089844 C 45.121094 43.878906 48.785156 36.152344 48.792969 30.527344 C 48.792969 27.769531 47.984375 25.144531 45.894531 20.65625 Z M 45.894531 20.648438 "/>
<path style=" stroke:none;fill-rule:nonzero;fill:rgb(11%,11%,11%);fill-opacity:1;" d="M 43.886719 36.527344 C 44.488281 36.601562 44.929688 37.078125 44.945312 37.59375 C 44.960938 38.199219 44.351562 38.785156 43.601562 38.703125 L 40.761719 38.703125 L 40.761719 45.703125 L 38.160156 47.246094 L 38.160156 38.703125 L 35.3125 38.703125 C 34.59375 38.785156 34 38.230469 34 37.617188 C 34 37.089844 34.441406 36.59375 35.046875 36.527344 "/>
</g>
</svg>
