<?xml version="1.0" encoding="UTF-8"?><svg xmlns="http://www.w3.org/2000/svg" xmlns:xlink="http://www.w3.org/1999/xlink" viewBox="0 0 104 101.32"><defs><style>.m{fill:#d7e032;}.n{fill:url(#c);}.o{fill:#221536;}.p{fill:url(#g);}.q{fill:#010101;fill-rule:evenodd;}.r{fill:url(#i);}.s{fill:url(#e);}.t{fill:none;}.u{fill:#a3d7ba;}.v{fill:url(#k);}.w{fill:#221335;}</style><linearGradient id="c" x1="-1104.36" y1="234.67" x2="-1104.27" y2="234.56" gradientTransform="translate(545623.1 116404.76) scale(494 -496)" gradientUnits="userSpaceOnUse"><stop offset="0" stop-color="#70c59b"/><stop offset=".3" stop-color="#8aafdd"/><stop offset="1" stop-color="#fff" stop-opacity="0"/></linearGradient><radialGradient id="e" cx="-1105.85" cy="233.66" fx="-1105.85" fy="233.66" r=".03" gradientTransform="translate(455630.27 -344321.41) rotate(-51.89) scale(498.75 -624.44) skewX(-.28)" gradientUnits="userSpaceOnUse"><stop offset="0" stop-color="#c5cb2e"/><stop offset=".54" stop-color="#d2de26"/><stop offset="1" stop-color="#fff" stop-opacity="0"/></radialGradient><radialGradient id="g" cx="-1106.58" cy="233.56" fx="-1106.58" fy="233.56" r=".26" gradientTransform="translate(329393.82 -466061.81) rotate(-69.58) scale(498.23 -625.1) skewX(-.19)" gradientUnits="userSpaceOnUse"><stop offset="0" stop-color="#fff" stop-opacity="0"/><stop offset=".07" stop-color="#eaf4e3" stop-opacity=".1"/><stop offset=".11" stop-color="#6abd45"/><stop offset=".13" stop-color="#71c8b7"/><stop offset=".19" stop-color="#71c8b7" stop-opacity="0"/><stop offset="1" stop-color="#71c8b7" stop-opacity="0"/></radialGradient><radialGradient id="i" cx="-1107.39" cy="235.28" fx="-1107.39" fy="235.28" r=".25" gradientTransform="translate(-298303.67 -482733.48) rotate(-135.14) scale(498.99 -559.92) skewX(.26)" gradientUnits="userSpaceOnUse"><stop offset="0" stop-color="#fff" stop-opacity="0"/><stop offset=".07" stop-color="#eaf4e3" stop-opacity=".1"/><stop offset=".11" stop-color="#6abd45"/><stop offset=".13" stop-color="#71c8b7"/><stop offset=".25" stop-color="#71c8b7" stop-opacity="0"/><stop offset="1" stop-color="#71c8b7" stop-opacity="0"/></radialGradient><radialGradient id="k" cx="-1107.45" cy="235.6" fx="-1107.45" fy="235.6" r=".03" gradientTransform="translate(-343735.87 -456481.36) rotate(-141.89) scale(499.23 -623.84) skewX(.28)" xlink:href="#e"/></defs><g id="a"/><g id="b"><g><g><circle class="o" cx="43.5" cy="57.82" r="43.5"/><path class="t" d="M32.88,73.05c.55-3.93,3.6-6.3,4.55-7.04,1.94-1.51,4.28-2.18,8.96-3.5,3.87-1.1,6.27-1.41,8.39-3.63,.82-.85,1.33-1.71,1.63-2.32-4.22,1.49-7.68,2.26-10.08,2.69-3.01,.54-5.99,1.24-8.99,1.78-1.12,.2-2.42,.43-4,1.17-.95,.45-2.75,1.33-4.2,3.19-1.94,2.49-2.09,5.23-2.14,6.43-.16,3.89,1.57,6.74,2.3,7.82,2.5,1.63,5.29,2.84,8.28,3.54-.34-.26-5.5-4.42-4.7-10.13Z"/><path class="t" d="M25.08,74.55c-.84-1.45-1.63-2.8-1.89-4.73-.51-3.75,1.34-6.74,1.91-7.58,.75-1.1,2.37-3.06,6.95-4.93,6.44-2.62,8.39-.84,18.04-3.13,1.25-.3,5.37-1.31,9.3-3.78,1.74-1.1,3.09-2.25,4.24-3.72,.87-1.11,1.43-2.16,1.78-2.93-.98-1.52-2.11-2.93-3.38-4.22,.12,.74,.2,2.03-.41,3.36-.52,1.13-1.4,1.95-3.11,2.96-3.48,2.04-6.53,2.62-6.53,2.62-6.99,1.31-10.16,1.31-14.34,2.08-5.15,.95-10.01,1.85-13.9,5.57-3.26,3.12-4.53,6.98-5.09,9.47,1.82,5.83,5.63,10.77,10.64,14.04-1.16-1-2.81-2.66-4.22-5.08Z"/><path class="t" d="M53.07,35.86c.32,1.35-.23,2.52-.44,2.94-1.07,2.18-3.33,3.19-9.66,5.12-2.31,.7-5.24,1.55-8.69,2.44,6.75,.11,12.18-.63,16.01-1.37,4.27-.83,7.04-1.77,8.26-4.15,.71-1.4,.68-2.86,.53-3.89-2.89-2.17-6.25-3.74-9.9-4.55,.43,.12,3.31,1.05,3.89,3.46Z"/><path class="m" d="M23.74,56.13c3.89-3.73,8.75-4.62,13.9-5.57,4.18-.77,7.35-.77,14.34-2.08,0,0,3.05-.57,6.53-2.62,1.72-1.01,2.59-1.83,3.11-2.96,.61-1.33,.53-2.63,.41-3.36-.92-.93-1.9-1.79-2.95-2.57,.15,1.03,.19,2.49-.53,3.89-1.22,2.39-3.99,3.32-8.26,4.15-3.83,.74-9.25,1.48-16.01,1.37,3.44-.89,6.38-1.74,8.69-2.44,6.33-1.93,8.59-2.94,9.66-5.12,.21-.43,.76-1.6,.44-2.94-.58-2.41-3.46-3.33-3.89-3.46-1.83-.41-3.73-.62-5.68-.62-14.38,0-26.03,11.66-26.03,26.03,0,2.71,.42,5.32,1.19,7.78,.55-2.48,1.83-6.34,5.09-9.47Z"/><path class="u" d="M65.41,43.75c-.35,.76-.92,1.81-1.78,2.93-1.15,1.47-2.5,2.63-4.24,3.72-3.92,2.47-8.04,3.48-9.3,3.78-9.65,2.29-11.61,.52-18.04,3.13-4.58,1.86-6.2,3.82-6.95,4.93-.57,.84-2.42,3.82-1.91,7.58,.26,1.93,1.05,3.29,1.89,4.73,1.41,2.43,3.06,4.08,4.22,5.08h0c-.73-1.07-2.46-3.93-2.3-7.81,.05-1.2,.2-3.95,2.14-6.43,1.45-1.86,3.25-2.74,4.2-3.19,1.58-.75,2.87-.97,4-1.17,3.01-.54,5.98-1.24,8.99-1.78,2.4-.43,5.86-1.2,10.08-2.69-.31,.61-.82,1.47-1.63,2.32-2.12,2.22-4.52,2.53-8.39,3.63-4.68,1.33-7.02,1.99-8.96,3.5-.95,.74-4,3.11-4.55,7.04-.8,5.7,4.37,9.86,4.7,10.13,1.9,.44,3.88,.67,5.91,.67,14.38,0,26.03-11.66,26.03-26.03,0-5.18-1.51-10.01-4.12-14.07Z"/><path class="w" d="M62.55,66.38c.86,.1,1.49,.79,1.5,1.51,.02,.87-.84,1.7-1.91,1.58h-4.05v9.98l-3.7,2.2v-12.18h-4.06c-1.02,.12-1.87-.68-1.87-1.55,0-.75,.63-1.45,1.49-1.55"/></g><g><g><circle id="d" class="n" cx="82.88" cy="21.12" r="20.69"/><circle id="f" class="s" cx="82.88" cy="21.12" r="20.69"/><circle id="h" class="p" cx="82.88" cy="21.12" r="20.69"/><circle id="j" class="r" cx="82.88" cy="21.12" r="20.69"/><circle id="l" class="v" cx="82.88" cy="21.12" r="20.69"/></g><path d="M82.88,0c-11.66,0-21.12,9.45-21.12,21.12s9.45,21.12,21.12,21.12,21.12-9.45,21.12-21.12S94.54,0,82.88,0Zm0,40.97c-10.96,0-19.85-8.89-19.85-19.85S71.92,1.27,82.88,1.27s19.85,8.89,19.85,19.85-8.89,19.85-19.85,19.85Z"/><path class="q" d="M92.63,7.41h-19.58c-1.32,0-2.39,1.07-2.39,2.38s1.07,2.38,2.39,2.38h6.92v21.54c0,1.6,1.3,2.89,2.91,2.89s2.91-1.3,2.91-2.89V12.18h6.84c1.32,0,2.39-1.07,2.39-2.38s-1.07-2.38-2.39-2.38Z"/></g></g></g></svg>