<svg xmlns="http://www.w3.org/2000/svg" xmlns:xlink="http://www.w3.org/1999/xlink" viewBox="0 0 104 101.32"><defs><style>.cls-1{fill:#221536;}.cls-2{fill:none;}.cls-3{fill:#a3d7ba;}.cls-4{fill:#d7e030;}.cls-5{fill:#221335;}.cls-6{fill:url(#linear-gradient);}.cls-7{fill:url(#radial-gradient);}.cls-8{fill:url(#radial-gradient-2);}.cls-9{fill:url(#radial-gradient-3);}.cls-10{fill:url(#radial-gradient-4);}.cls-11{fill:#010101;fill-rule:evenodd;}</style><linearGradient id="linear-gradient" x1="-1104.36" y1="234.61" x2="-1104.27" y2="234.5" gradientTransform="matrix(494, 0, 0, -496, 545623.1, 116374.25)" gradientUnits="userSpaceOnUse"><stop offset="0" stop-color="#70c59b"/><stop offset="0.3" stop-color="#8aafdd"/><stop offset="1" stop-color="#fff" stop-opacity="0"/></linearGradient><radialGradient id="radial-gradient" cx="-1105.85" cy="233.6" r="0.03" gradientTransform="matrix(307.82, -392.43, -492.84, -383.47, 455600.01, -344345.02)" gradientUnits="userSpaceOnUse"><stop offset="0" stop-color="#c5cb2e"/><stop offset="0.54" stop-color="#d2de26"/><stop offset="1" stop-color="#fff" stop-opacity="0"/></radialGradient><radialGradient id="radial-gradient-2" cx="-1106.58" cy="233.5" r="0.26" gradientTransform="matrix(173.84, -466.92, -586.39, -216.56, 329357.82, -466075.17)" gradientUnits="userSpaceOnUse"><stop offset="0" stop-color="#fff" stop-opacity="0"/><stop offset="0.07" stop-color="#eaf4e3" stop-opacity="0.1"/><stop offset="0.11" stop-color="#6abd45"/><stop offset="0.13" stop-color="#71c8b7"/><stop offset="0.19" stop-color="#71c8b7" stop-opacity="0"/><stop offset="1" stop-color="#71c8b7" stop-opacity="0"/></radialGradient><radialGradient id="radial-gradient-3" cx="-1107.39" cy="235.22" r="0.25" gradientTransform="matrix(-353.72, -351.96, -396.54, 395.31, -298328.02, -482709.27)" gradientUnits="userSpaceOnUse"><stop offset="0" stop-color="#fff" stop-opacity="0"/><stop offset="0.07" stop-color="#eaf4e3" stop-opacity="0.1"/><stop offset="0.11" stop-color="#6abd45"/><stop offset="0.13" stop-color="#71c8b7"/><stop offset="0.25" stop-color="#71c8b7" stop-opacity="0"/><stop offset="1" stop-color="#71c8b7" stop-opacity="0"/></radialGradient><radialGradient id="radial-gradient-4" cx="-1107.45" cy="235.54" r="0.03" gradientTransform="matrix(-392.8, -308.12, -386.95, 489.34, -343759.63, -456451.37)" xlink:href="#radial-gradient"/></defs><g id="Layer_2" data-name="Layer 2"><g id="TripolarXtri_lp" data-name="TripolarXtri lp"><g id="Tripolar"><circle class="cls-1" cx="43.5" cy="57.82" r="43.5"/><path class="cls-2" d="M32.88,73.05c.55-3.93,3.6-6.31,4.55-7,1.94-1.52,4.28-2.18,9-3.51,3.87-1.1,6.28-1.41,8.39-3.62a10,10,0,0,0,1.64-2.32,64.45,64.45,0,0,1-10.09,2.69c-3,.54-6,1.23-9,1.77a14.5,14.5,0,0,0-4,1.18,11,11,0,0,0-4.2,3.19A10.86,10.86,0,0,0,27,71.82a13.21,13.21,0,0,0,2.3,7.82,25.71,25.71,0,0,0,8.29,3.53C37.25,82.91,32.09,78.75,32.88,73.05Z"/><path class="cls-2" d="M25.08,74.55a12,12,0,0,1-1.89-4.73,11.23,11.23,0,0,1,1.9-7.58c.75-1.11,2.37-3.07,7-4.93,6.44-2.62,8.39-.84,18.05-3.13a31.89,31.89,0,0,0,9.29-3.78,15.73,15.73,0,0,0,4.24-3.73,15.33,15.33,0,0,0,1.79-2.92A26.51,26.51,0,0,0,62,39.53a5.92,5.92,0,0,1-.41,3.36,6.73,6.73,0,0,1-3.11,3A22.55,22.55,0,0,1,52,48.47c-7,1.31-10.16,1.31-14.34,2.08-5.16,1-10,1.85-13.9,5.58a18.56,18.56,0,0,0-5.09,9.46,26,26,0,0,0,10.65,14A19.68,19.68,0,0,1,25.08,74.55Z"/><path class="cls-2" d="M53.07,35.86a4.43,4.43,0,0,1-.44,3C51.56,41,49.3,42,43,43.93c-2.31.7-5.25,1.55-8.69,2.44a77.37,77.37,0,0,0,16-1.37c4.27-.83,7-1.77,8.26-4.15A6.5,6.5,0,0,0,59.08,37a25.9,25.9,0,0,0-9.9-4.55C49.6,32.53,52.49,33.45,53.07,35.86Z"/><path class="cls-3" d="M23.74,56.13c3.89-3.73,8.74-4.63,13.9-5.58,4.18-.77,7.35-.77,14.34-2.08a22.55,22.55,0,0,0,6.53-2.62,6.73,6.73,0,0,0,3.11-3A5.92,5.92,0,0,0,62,39.53a26.62,26.62,0,0,0-3-2.57,6.5,6.5,0,0,1-.53,3.89c-1.22,2.38-4,3.32-8.26,4.15a77.37,77.37,0,0,1-16,1.37c3.44-.89,6.38-1.74,8.69-2.44C49.3,42,51.56,41,52.63,38.81a4.43,4.43,0,0,0,.44-3c-.58-2.41-3.47-3.33-3.89-3.45A26.05,26.05,0,0,0,18.65,65.59,18.56,18.56,0,0,1,23.74,56.13Z"/><path class="cls-4" d="M65.41,43.75a15.33,15.33,0,0,1-1.79,2.92,15.73,15.73,0,0,1-4.24,3.73,31.89,31.89,0,0,1-9.29,3.78c-9.66,2.29-11.61.51-18.05,3.13-4.58,1.86-6.2,3.82-6.95,4.93a11.23,11.23,0,0,0-1.9,7.58,12,12,0,0,0,1.89,4.73,19.68,19.68,0,0,0,4.22,5.08h0A13.21,13.21,0,0,1,27,71.82a10.86,10.86,0,0,1,2.14-6.43,11,11,0,0,1,4.2-3.19,14.5,14.5,0,0,1,4-1.18c3-.54,6-1.23,9-1.77a64.45,64.45,0,0,0,10.09-2.69,10,10,0,0,1-1.64,2.32c-2.11,2.21-4.52,2.52-8.39,3.62-4.68,1.33-7,2-9,3.51-1,.73-4,3.11-4.55,7-.79,5.7,4.37,9.86,4.71,10.12A26,26,0,0,0,69.53,57.82,25.88,25.88,0,0,0,65.41,43.75Z"/><path class="cls-5" d="M62.55,66.38a1.64,1.64,0,0,1,1.5,1.51,1.67,1.67,0,0,1-1.91,1.58h-4v10l-3.7,2.2V69.47H50.33a1.65,1.65,0,0,1-1.87-1.55A1.63,1.63,0,0,1,50,66.38"/></g><g id="Xtri"><g id="svg"><g id="Gradients"><circle id="Gradient-Linear-BG" class="cls-6" cx="82.88" cy="21.12" r="20.69"/><circle id="Gradient-Radial-Yellow-1" class="cls-7" cx="82.88" cy="21.12" r="20.69"/><circle id="Gradient-Radial-Rings-1" class="cls-8" cx="82.88" cy="21.12" r="20.69"/><circle id="Gradient-Radial-Rings-2" class="cls-9" cx="82.88" cy="21.12" r="20.69"/><circle id="Gradient-Radial-Yellow-2" class="cls-10" cx="82.88" cy="21.12" r="20.69"/></g><g id="T"><path id="Rectangle" class="cls-11" d="M73.05,7.41H92.63A2.39,2.39,0,0,1,95,9.79h0a2.39,2.39,0,0,1-2.39,2.39H73.05a2.39,2.39,0,0,1-2.39-2.39h0A2.39,2.39,0,0,1,73.05,7.41Z"/><path id="Rectangle-2" data-name="Rectangle" class="cls-11" d="M82.88,8.77h0a2.9,2.9,0,0,1,2.91,2.9v22a2.9,2.9,0,0,1-2.91,2.89h0A2.9,2.9,0,0,1,80,33.72v-22A2.91,2.91,0,0,1,82.88,8.77Z"/></g><path id="border" d="M82.88,0A21.12,21.12,0,1,0,104,21.12,21.12,21.12,0,0,0,82.88,0Zm0,41a19.85,19.85,0,1,1,19.85-19.85A19.85,19.85,0,0,1,82.88,41Z"/></g></g></g></g></svg>