<?xml version="1.0" encoding="UTF-8"?><svg id="Layer_2" xmlns="http://www.w3.org/2000/svg" viewBox="0 0 117.08 117.1"><defs><style>.cls-1{fill:#fff;}.cls-2{fill:#3575bb;}.cls-3{fill:#221636;}.cls-4{fill:#3674ba;}</style></defs><g id="Layer_22"><path class="cls-3" d="M117.07,55.97c0,.38,.01,.75,.01,1.12,0,1.33,0,2.66-.03,4.04-.04,.38-.03,.71-.06,1.05-.05,.67-.12,1.34-.18,2.02-.04,.5-.08,1-.14,1.51-.11,.83-.23,1.65-.38,2.47-.22,1.22-.43,2.44-.72,3.65-.33,1.4-.7,2.79-1.12,4.16-.54,1.75-1.15,3.49-1.89,5.17-.41,.94-.81,1.9-1.26,2.83-.57,1.17-1.19,2.32-1.82,3.45-.57,1.01-1.18,2-1.8,2.98-.81,1.28-1.7,2.51-2.62,3.71-.4,.52-.8,1.03-1.22,1.54-.43,.52-.88,1.03-1.33,1.53-.55,.63-1.1,1.26-1.68,1.86-.84,.86-1.72,1.7-2.58,2.53-.47,.45-.96,.89-1.45,1.32-.66,.55-1.32,1.1-2,1.62-.96,.74-1.93,1.47-2.92,2.18-.88,.62-1.79,1.2-2.7,1.75-1.05,.64-2.1,1.26-3.18,1.83-1.54,.81-3.1,1.59-4.72,2.24-1.06,.42-2.1,.86-3.18,1.23-1.39,.48-2.79,.92-4.21,1.32-1.12,.32-2.26,.56-3.41,.81-.76,.17-1.53,.3-2.3,.43-.6,.1-1.21,.19-1.81,.27-.43,.06-.87,.1-1.31,.15-.56,.06-1.12,.13-1.69,.18-.48,.04-.96,.04-1.45,.08-.06,0-.11,.06-.17,.1-.29,0-.58,.01-.87,.01-1.84,0-3.69,0-5.57-.03-.06-.05-.09-.08-.11-.08-.65-.04-1.3-.09-1.95-.14-.54-.04-1.07-.08-1.6-.14-.58-.07-1.17-.16-1.75-.25-.71-.11-1.42-.21-2.12-.34-.92-.18-1.86-.34-2.76-.58-1.49-.39-2.99-.8-4.46-1.25-1.13-.35-2.23-.77-3.34-1.19-1.49-.56-2.94-1.21-4.37-1.91-.85-.43-1.71-.87-2.54-1.33-1.06-.59-2.12-1.19-3.14-1.84-1.65-1.05-3.26-2.16-4.77-3.39-1-.82-2-1.62-2.97-2.47-.79-.7-1.55-1.42-2.3-2.17-.6-.6-1.16-1.24-1.74-1.86-.31-.34-.64-.66-.94-1.02-.59-.7-1.19-1.41-1.75-2.14-.77-1-1.54-2.01-2.27-3.04-.66-.93-1.28-1.88-1.87-2.86-.71-1.19-1.4-2.39-2.05-3.62-.7-1.3-1.33-2.63-1.88-4-.52-1.28-1.03-2.57-1.49-3.88-.38-1.07-.69-2.17-1.01-3.26-.47-1.58-.82-3.2-1.13-4.82-.14-.73-.26-1.45-.38-2.18-.05-.32-.1-.63-.13-.95-.05-.45-.1-.89-.14-1.34-.06-.55-.13-1.1-.18-1.66-.04-.47-.04-.94-.08-1.42,0-.06-.06-.11-.1-.17,0-.29-.01-.58-.01-.87,0-1.84,0-3.69,.03-5.57,.05-.1,.08-.15,.09-.21,.03-.33,.04-.66,.06-1,.06-.73,.12-1.47,.2-2.21,.08-.73,.15-1.47,.27-2.19,.21-1.22,.45-2.44,.69-3.65,.33-1.67,.77-3.32,1.29-4.94,.41-1.27,.84-2.53,1.32-3.77,.47-1.2,.96-2.39,1.51-3.55,.63-1.31,1.29-2.6,2-3.87,.55-1,1.14-1.97,1.75-2.93,.52-.83,1.07-1.63,1.64-2.43,.53-.75,1.07-1.48,1.64-2.19,.66-.83,1.35-1.64,2.04-2.44,.52-.61,1.05-1.22,1.61-1.79,.79-.81,1.61-1.59,2.42-2.37,.45-.43,.91-.85,1.38-1.26,.68-.58,1.36-1.15,2.04-1.72,1.14-.94,2.34-1.81,3.57-2.65,.71-.48,1.44-.94,2.16-1.4,1.29-.83,2.63-1.58,4.01-2.28,1.12-.57,2.26-1.11,3.41-1.61,1.24-.54,2.5-1.04,3.77-1.5,2.32-.84,4.69-1.52,7.11-2.03,.6-.13,1.19-.24,1.79-.35,.7-.13,1.41-.26,2.12-.37,.36-.06,.72-.1,1.08-.15,.46-.05,.91-.1,1.37-.14,.7-.06,1.38-.13,2.08-.18,.46-.03,.92-.04,1.38-.07,.04,0,.08-.04,.11-.06,.4,0,.79-.01,1.19-.01,1.31,0,2.62,0,3.97,.03,.18,.03,.31,.04,.43,.05,.24,0,.47,0,.71,.01,.47,.03,.94,.08,1.41,.12,.31,.03,.62,.04,.93,.08,.61,.08,1.23,.16,1.84,.24,.77,.11,1.55,.2,2.32,.34,.97,.17,1.94,.36,2.9,.58,1.68,.4,3.35,.84,4.99,1.38,.92,.31,1.84,.65,2.76,.98,1.33,.47,2.62,1.03,3.88,1.64,1.32,.63,2.62,1.31,3.9,2.01,1.05,.58,2.09,1.21,3.09,1.85,1.42,.91,2.79,1.89,4.12,2.93,1.13,.87,2.23,1.79,3.28,2.74,.84,.75,1.65,1.54,2.46,2.33,.15,.15,.27,.33,.43,.48,.79,.78,1.53,1.59,2.25,2.44,.63,.76,1.28,1.5,1.88,2.28,.79,1.03,1.55,2.08,2.3,3.14,.45,.64,.87,1.31,1.28,1.98,.66,1.1,1.33,2.19,1.93,3.32,.85,1.59,1.66,3.21,2.33,4.89,.5,1.26,1,2.51,1.44,3.8,.42,1.22,.79,2.47,1.14,3.73,.26,.94,.47,1.89,.68,2.84,.18,.85,.34,1.7,.5,2.55,.08,.47,.14,.93,.21,1.4,.05,.38,.1,.77,.15,1.15,.06,.45,.12,.91,.17,1.37,.04,.35,.05,.71,.07,1.06,.04,.66,.08,1.33,.13,1.99-.03,.05,0,.15,.03,.24h0Zm-56.94-13.56c-.33,.04-.66,.1-.99,.13-1.03,.11-2.07,.22-3.11,.3-.78,.06-1.56,.1-2.4,.15-4.89,.19-6.85,.21-7.21,.06,.1-.03,.18-.06,.26-.08,3.89-1.02,7.76-2.11,11.6-3.29,2.19-.67,4.37-1.36,6.5-2.2,.12-.04,.23-.11,.39-.17,.96-.38,1.89-.83,2.77-1.37,.59-.36,1.15-.77,1.62-1.27,1-1.08,1.66-2.32,1.84-3.8,.12-.96,.03-1.89-.38-2.77-.41-.87-1.02-1.56-1.77-2.14-1.03-.8-2.18-1.39-3.46-1.68-.68-.15-1.37-.25-2.06-.36-1.15-.2-2.32-.31-3.5-.36-1.98-.08-3.95-.03-5.93,.22-1.3,.17-2.59,.39-3.87,.7-3.13,.75-6.09,1.91-8.9,3.47-2.76,1.53-5.26,3.4-7.51,5.59-.9,.87-1.73,1.8-2.53,2.76-2.16,2.63-3.91,5.5-5.23,8.64-.71,1.68-1.29,3.4-1.72,5.17-.41,1.68-.73,3.38-.87,5.11-.07,.92-.14,1.84-.17,2.77-.02,.75,0,1.51,.04,2.26,.05,.91,.11,1.82,.22,2.73,.18,1.56,.5,3.1,.89,4.62,.12,.45,.26,.9,.38,1.35,.08-.08,.1-.17,.12-.25,.2-.77,.38-1.54,.62-2.3,.61-1.95,1.46-3.8,2.54-5.53,1.28-2.05,2.77-3.91,4.63-5.47,1.95-1.65,4.14-2.9,6.52-3.8,1.08-.41,2.18-.74,3.32-1.11,1.42-.4,2.86-.74,4.32-1.02,1.12-.22,2.23-.43,3.39-.64,1.06-.17,2.12-.35,3.18-.51,.73-.11,1.47-.19,2.2-.28,.82-.1,1.64-.2,2.46-.3,.8-.1,1.6-.18,2.4-.29,.91-.11,1.81-.24,2.71-.37,.71-.1,1.42-.22,2.16-.31,.08,.21,.18,.41,.24,.63,.2,.73,.96,1.33,1.86,1.32,1.22-.03,2.46,0,3.68,0,.1,0,.19,0,.29,0,.73-.06,1.33-.57,1.49-1.28,.07-.32,.07-.64,0-.96-.11-.44-.22-.87-.27-1.32,1.04-.32,2.05-.72,3.03-1.2,.97-.47,1.9-1,2.86-1.49,1.17-.59,2.19-1.36,3.03-2.37,.47-.55,.9-1.14,1.17-1.81,.5-1.24,.66-2.53,.53-3.86-.03-.31-.14-.55-.38-.78-.92-.88-1.88-1.72-2.86-2.51-.27-.22-.56-.43-.88-.67,0,.13,.01,.2,.02,.27,.03,.35,.08,.7,.1,1.06,.03,.66-.06,1.31-.18,1.95-.39,1.91-1.35,3.44-2.96,4.56-1.28,.89-2.71,1.44-4.19,1.89-.63,.19-1.26,.35-1.95,.52-.1,.02-.21,.04-.31,.06-1.77,.34-3.53,.71-5.31,1.01-1.47,.25-2.95,.41-4.48,.61h0Zm-1.29,18.73c.11-.01,.22-.02,.32-.04,.84-.16,1.66-.33,2.5-.48,2.98-.53,5.93-1.19,8.83-2.01,.27-.08,.53-.17,.84-.25,.75-.23,1.49-.47,2.25-.7,.75-.22,1.48-.52,2.26-.74-.01,.07-.01,.1-.02,.11-.63,1.19-1.44,2.26-2.4,3.21-.08,.08-.15,.18-.27,.27-.03,.02-.06,.03-.08,.05-1.3,1.17-2.83,1.95-4.48,2.49-.94,.31-1.89,.57-2.88,.86-1.13,.31-2.26,.6-3.39,.92-2.4,.68-4.8,1.33-7.15,2.18-1.14,.41-2.27,.87-3.32,1.5-.61,.36-1.19,.78-1.81,1.14-.18-.59-.38-1.19-.54-1.79-.26-1.01-.88-1.54-1.93-1.54h-3.78c-.14,0-.28,0-.42,.02-.63,.09-1.07,.41-1.33,1-.17,.38-.17,.78-.1,1.17,.06,.38,.15,.76,.24,1.14,.53,2.14,1.45,4.06,2.94,5.71,.04,.04,.07,.11,.07,.19-.96,2.07-1.31,4.24-1.02,6.51,.17,1.38,.57,2.69,1.15,3.95,.73,1.59,1.71,3.01,2.85,4.32,.68,.78,1.4,1.52,2.21,2.17,.1,.08,.22,.13,.34,.16,1.24,.3,2.5,.53,3.78,.66,.95,.1,1.9,.2,2.86,.23,1.66,.06,3.34,.03,4.99-.18,.96-.12,1.92-.24,2.87-.42,1.99-.37,3.93-.92,5.82-1.65,2.54-.96,4.93-2.2,7.18-3.72s4.32-3.25,6.13-5.27c.79-.88,1.56-1.79,2.28-2.72,1.37-1.77,2.51-3.68,3.48-5.69,.55-1.12,1.03-2.27,1.45-3.44,.69-1.93,1.21-3.9,1.56-5.92,.25-1.42,.42-2.85,.48-4.29,.08-2,.04-4-.22-5.99-.16-1.22-.36-2.42-.63-3.62-.47-2.03-1.11-4-1.93-5.91-.73-1.72-1.61-3.36-2.6-4.94-.05-.08-.11-.14-.18-.24-.04,.07-.07,.1-.09,.14-.92,1.93-2.1,3.67-3.57,5.23-1.01,1.07-2.12,2.02-3.34,2.84-1.67,1.13-3.44,2.08-5.27,2.93-2.62,1.22-5.34,2.17-8.15,2.83-1.22,.29-2.46,.54-3.69,.8-.63,.13-1.26,.24-1.96,.36-.14,.02-.28,.03-.41,.05-1.26,.16-2.51,.35-3.78,.47-1.7,.16-3.41,.27-5.11,.39-1.88,.13-3.74,.4-5.57,.85-.41,.1-.82,.25-1.28,.37-.63,.21-1.27,.4-1.89,.63-1.66,.61-3.26,1.35-4.8,2.23-1.21,.7-2.35,1.47-3.39,2.4-1.58,1.42-2.72,3.13-3.53,5.07-.68,1.61-1.07,3.29-1.14,5.04-.04,.86-.06,1.73,.08,2.58,.27,1.6,.78,3.13,1.52,4.57,.31,.6,.69,1.17,1.03,1.75,1.41,2.4,3.14,4.55,5.21,6.42,.12,.11,.25,.21,.38,.31l.06-.06c-.06-.1-.11-.2-.18-.29-.55-.84-1.01-1.73-1.4-2.65-.92-2.19-1.4-4.47-1.41-6.84,0-1.15,.06-2.3,.29-3.43,.29-1.45,.81-2.83,1.51-4.14,.78-1.47,1.85-2.72,3.13-3.78,1.14-.95,2.4-1.7,3.76-2.3,1.35-.59,2.73-1.05,4.17-1.32,1-.19,2.01-.36,3.01-.55,1.76-.34,3.52-.7,5.28-1.07,.43-.08,.85-.19,1.33-.3Z"/><path class="cls-4" d="M62.01,54.72c.63-.12,1.27-.23,1.89-.36,1.23-.26,2.46-.52,3.69-.8,2.81-.66,5.53-1.61,8.15-2.83,1.82-.85,3.6-1.81,5.27-2.93,1.22-.82,2.33-1.77,3.34-2.84,1.47-1.55,2.65-3.3,3.57-5.23,.02-.04,.04-.07,.09-.14,.07,.1,.13,.16,.18,.24,1,1.58,1.87,3.22,2.6,4.94,.82,1.91,1.47,3.88,1.93,5.91,.27,1.19,.47,2.4,.63,3.62,.26,1.99,.3,3.99,.22,5.99-.06,1.44-.23,2.87-.48,4.29-.35,2.02-.87,3.99-1.56,5.92-.42,1.17-.91,2.32-1.45,3.44-.98,2.01-2.12,3.92-3.48,5.69-.72,.94-1.49,1.84-2.28,2.72-1.82,2.02-3.88,3.75-6.13,5.27s-4.64,2.76-7.18,3.72c-1.89,.72-3.83,1.28-5.82,1.65-.95,.18-1.91,.3-2.87,.42-1.66,.21-3.33,.24-4.99,.18-.96-.04-1.91-.14-2.86-.23-1.28-.13-2.53-.36-3.78-.66-.12-.03-.24-.08-.34-.16-.8-.65-1.53-1.38-2.21-2.17-1.14-1.31-2.12-2.74-2.85-4.32-.58-1.26-.98-2.57-1.15-3.95-.28-2.27,.06-4.43,1.06-6.51,.83,.8,1.7,1.52,2.68,2.11,1.76,1.07,3.67,1.72,5.68,2.14,.42,.09,.84,.16,1.29,.24v5.2c0,.27,0,.54,0,.81,0,.33,.12,.63,.33,.89,.45,.58,1.07,.89,1.78,.91,1.16,.04,2.33,.01,3.49,0,.5,0,.96-.18,1.29-.56,.43-.48,.68-1.05,.68-1.7v-5.57c1.08-.2,2.1-.45,3.1-.8,2.42-.87,4.55-2.2,6.23-4.18,1.85-2.18,2.81-4.71,2.9-7.56,.03-.88-.01-1.77-.12-2.64-.18-1.47-.57-2.86-1.3-4.16-.03-.06-.05-.11-.08-.18,.08-.09,.15-.18,.23-.26,.96-.95,1.77-2.02,2.4-3.21,0-.02,0-.04,.02-.11-.78,.22-1.51,.52-2.26,.74-.75,.22-1.5,.46-2.28,.67-.55-.4-1.04-.8-1.58-1.12-1.43-.86-2.99-1.42-4.61-1.82-1.01-.27-2.04-.47-3.07-.7Z"/><path class="cls-4" d="M42.75,50.45c-1.09,.37-2.19,.7-3.27,1.11-2.39,.9-4.57,2.16-6.52,3.8-1.86,1.56-3.35,3.43-4.63,5.47-1.08,1.73-1.93,3.58-2.54,5.53-.24,.76-.41,1.54-.62,2.3-.02,.08-.04,.16-.12,.25-.13-.45-.27-.89-.38-1.35-.4-1.52-.71-3.06-.89-4.62-.11-.91-.17-1.82-.22-2.73-.04-.75-.06-1.51-.04-2.26,.03-.92,.1-1.84,.17-2.77,.13-1.73,.45-3.43,.87-5.11,.43-1.77,1.01-3.49,1.72-5.17,1.33-3.13,3.07-6.02,5.23-8.64,.8-.96,1.63-1.89,2.53-2.76,2.26-2.19,4.76-4.06,7.51-5.59,2.81-1.56,5.78-2.72,8.9-3.47,1.28-.31,2.56-.53,3.87-.7,1.97-.26,3.95-.3,5.93-.22,1.17,.04,2.33,.15,3.5,.36,.69,.12,1.38,.21,2.06,.36,1.28,.29,2.42,.88,3.46,1.68,.75,.58,1.37,1.28,1.77,2.14,.41,.89,.5,1.81,.38,2.77-.18,1.47-.85,2.72-1.84,3.8-.47,.51-1.03,.91-1.62,1.27-.88,.55-1.81,1-2.82,1.37-.97-.32-1.92-.49-2.92-.61v-5.73c0-.16,0-.33-.03-.48-.17-.87-1.08-1.6-2.02-1.61-1.21-.01-2.41,0-3.62,0-.5,0-.92,.2-1.25,.57-.41,.47-.64,1.01-.64,1.65v5.36c-.4,.07-.76,.13-1.12,.2-2.15,.42-4.15,1.19-5.95,2.46-1.72,1.21-3.05,2.74-3.93,4.66-.54,1.17-.85,2.4-.96,3.7-.1,1-.07,2,.06,3Z"/><path class="cls-1" d="M73.16,60.52c.04,.05,.07,.11,.1,.17,.73,1.29,1.12,2.69,1.3,4.16,.11,.88,.15,1.76,.12,2.64-.1,2.86-1.05,5.38-2.9,7.57-1.68,1.98-3.8,3.31-6.23,4.18-1,.36-2.02,.61-3.1,.8v5.57c0,.66-.25,1.22-.68,1.7-.34,.38-.79,.56-1.29,.56-1.16,0-2.33,.03-3.49,0-.71-.03-1.33-.33-1.78-.91-.2-.26-.32-.56-.33-.89,0-.27,0-.54,0-.81v-5.2c-.46-.08-.88-.15-1.29-.24-2-.41-3.92-1.07-5.68-2.14-.97-.59-1.84-1.3-2.66-2.12-.06-.06-.08-.12-.13-.17-1.49-1.64-2.42-3.57-2.94-5.71-.1-.38-.17-.75-.24-1.14-.07-.4-.07-.79,.1-1.17,.26-.58,.7-.91,1.33-1,.14-.02,.28-.02,.42-.02h3.78c1.05,0,1.68,.52,1.93,1.54,.15,.61,.36,1.19,.55,1.82,.3,.75,.7,1.38,1.21,1.95,.92,1.03,2.09,1.66,3.39,2.02,1.93,.53,3.9,.66,5.88,.38,1.35-.19,2.61-.65,3.73-1.45,1.37-.98,2.28-2.26,2.53-3.94s.13-3.29-1.01-4.68c-.01-.02-.02-.04-.03-.06,.94-.29,1.9-.55,2.84-.85,1.65-.54,3.18-1.31,4.48-2.49,.01-.02,.04-.03,.1-.06Z"/><path class="cls-2" d="M58.78,61.15c-.43,.1-.85,.22-1.28,.3-1.76,.36-3.51,.71-5.28,1.07-1,.2-2.01,.37-3.01,.55-1.44,.27-2.83,.73-4.17,1.32-1.36,.59-2.62,1.35-3.76,2.3-1.28,1.07-2.35,2.3-3.13,3.78-.7,1.31-1.21,2.69-1.51,4.14-.23,1.14-.3,2.28-.29,3.43,.01,2.37,.49,4.66,1.41,6.84,.39,.92,.85,1.81,1.4,2.65,.06,.1,.12,.19,.18,.29l-.06,.06c-.13-.1-.26-.2-.38-.31-2.07-1.87-3.8-4.01-5.21-6.42-.34-.59-.71-1.15-1.03-1.75-.75-1.44-1.26-2.97-1.52-4.57-.15-.85-.11-1.72-.08-2.58,.07-1.75,.47-3.43,1.14-5.04,.81-1.95,1.96-3.66,3.53-5.07,1.04-.93,2.18-1.71,3.39-2.4,1.54-.88,3.14-1.61,4.8-2.23,.63-.23,1.26-.42,1.95-.63,.11,.06,.17,.13,.24,.18,1.24,1.03,2.66,1.73,4.17,2.28,2.3,.82,4.69,1.24,7.1,1.56,.47,.06,.94,.17,1.41,.26Z"/><path class="cls-1" d="M42.77,50.45c-.16-1-.18-1.99-.1-2.99,.11-1.29,.42-2.52,.96-3.7,.88-1.91,2.21-3.45,3.93-4.66,1.8-1.27,3.8-2.03,5.95-2.46,.36-.07,.72-.13,1.12-.2v-5.36c0-.63,.24-1.18,.64-1.65,.33-.37,.75-.57,1.25-.57,1.21,0,2.41-.01,3.62,0,.94,.01,1.84,.75,2.02,1.61,.03,.16,.03,.32,.03,.48v5.73c1,.11,1.95,.29,2.89,.61-.09,.06-.2,.13-.32,.18-2.13,.84-4.31,1.53-6.5,2.2-3.84,1.18-7.71,2.27-11.6,3.29-.08,.02-.16,.05-.26,.08,.36,.15,2.32,.13,7.22-.05-.09,.07-.19,.13-.3,.18-1.42,.7-2.37,1.79-2.74,3.36-.18,.74-.17,1.49-.13,2.25-1.12,.22-2.23,.43-3.35,.65-1.45,.29-2.89,.63-4.34,1.03Z"/><path class="cls-4" d="M65.71,63.93s.04,.04,.05,.06c1.14,1.39,1.26,3.01,1.01,4.68-.26,1.66-1.17,2.96-2.53,3.94-1.12,.8-2.37,1.26-3.73,1.45-1.98,.28-3.95,.15-5.88-.38-1.31-.36-2.47-.99-3.39-2.02-.51-.57-.91-1.2-1.19-1.93,.59-.41,1.17-.83,1.78-1.19,1.05-.63,2.18-1.08,3.32-1.5,2.35-.85,4.75-1.5,7.15-2.18,1.13-.31,2.26-.61,3.41-.92Z"/><path class="cls-1" d="M58.81,61.14c-.5-.09-.97-.2-1.45-.26-2.41-.32-4.8-.74-7.1-1.56-1.51-.54-2.93-1.24-4.17-2.28-.06-.06-.13-.11-.21-.18,.39-.13,.79-.27,1.21-.38,1.83-.46,3.69-.73,5.57-.85,1.7-.12,3.41-.23,5.11-.39,1.26-.12,2.51-.31,3.78-.47,.14-.02,.27-.03,.45-.05,1.06,.22,2.1,.42,3.12,.67,1.61,.4,3.18,.96,4.61,1.82,.54,.33,1.03,.73,1.56,1.12-.26,.11-.52,.2-.78,.28-2.91,.82-5.86,1.48-8.83,2.01-.84,.15-1.66,.32-2.5,.48-.11,.03-.22,.04-.35,.05Z"/><path class="cls-2" d="M70.29,40.71c.63-.17,1.27-.33,1.89-.53,1.47-.46,2.91-1.01,4.19-1.89,1.61-1.12,2.57-2.65,2.96-4.56,.13-.64,.21-1.29,.18-1.95-.01-.35-.06-.71-.1-1.06,0-.07,0-.15-.02-.27,.32,.24,.6,.45,.88,.67,1,.79,1.95,1.63,2.86,2.51,.24,.22,.34,.47,.38,.78,.13,1.33-.03,2.62-.53,3.86-.27,.67-.71,1.25-1.17,1.81-.84,1.01-1.86,1.77-3.03,2.37-.96,.48-1.89,1.02-2.86,1.49-.98,.47-1.99,.87-3.07,1.18-.34-.85-.69-1.65-1.14-2.41-.41-.71-.91-1.35-1.43-1.98Z"/><path class="cls-2" d="M50.49,48.78c-.06-.76-.06-1.51,.11-2.25,.37-1.56,1.32-2.65,2.74-3.36,.11-.05,.21-.11,.33-.18,.8-.06,1.58-.1,2.36-.17,1.03-.09,2.07-.2,3.11-.3,.33-.03,.66-.08,1.01-.11,.19,.07,.36,.13,.53,.16,2.23,.47,3.84,1.7,4.78,3.79,.05,.11,.08,.22,.12,.33-.71,.11-1.42,.23-2.13,.34-.9,.13-1.81,.26-2.71,.37-.8,.1-1.59,.19-2.4,.29-.82,.1-1.64,.2-2.46,.3-.73,.09-1.47,.17-2.2,.28-1.06,.16-2.11,.34-3.2,.5Z"/><path class="cls-1" d="M65.6,46.72c-.06-.13-.09-.24-.13-.34-.94-2.09-2.55-3.32-4.78-3.79-.17-.04-.33-.09-.5-.15,1.47-.22,2.96-.39,4.43-.64,1.78-.3,3.54-.68,5.31-1.01,.1-.02,.21-.04,.34-.06,.55,.63,1.05,1.28,1.46,1.98,.45,.77,.8,1.57,1.1,2.42,.12,.45,.23,.89,.34,1.33,.08,.32,.08,.64,0,.96-.15,.7-.76,1.22-1.49,1.28-.1,0-.19,0-.29,0-1.22,0-2.46-.02-3.68,0-.91,.02-1.66-.58-1.86-1.32-.06-.23-.17-.43-.26-.66Z"/></g></svg>