<?xml version="1.0" encoding="UTF-8"?><svg id="Layer_2" xmlns="http://www.w3.org/2000/svg" viewBox="0 0 104 101.32"><defs><style>.cls-1{fill:#fff;}.cls-2{fill:#3575bb;}.cls-3{fill:#221636;}.cls-4{fill:#3674ba;}</style></defs><g id="Layer_22"><g><path class="cls-3" d="M86.99,55.89c0,.28,0,.55,0,.83,0,.99,0,1.98-.02,3-.03,.28-.02,.53-.04,.78-.04,.5-.09,1-.14,1.5-.03,.37-.06,.74-.1,1.12-.08,.62-.17,1.23-.28,1.84-.17,.91-.32,1.82-.54,2.72-.25,1.04-.52,2.07-.83,3.09-.4,1.3-.85,2.59-1.4,3.84-.31,.7-.6,1.41-.94,2.1-.43,.87-.88,1.72-1.35,2.56-.42,.75-.88,1.48-1.34,2.21-.6,.95-1.26,1.86-1.94,2.76-.29,.39-.59,.77-.91,1.14-.32,.39-.65,.76-.99,1.14-.41,.46-.82,.94-1.25,1.38-.63,.64-1.28,1.26-1.92,1.88-.35,.34-.71,.66-1.08,.98-.49,.41-.98,.82-1.48,1.2-.72,.55-1.43,1.09-2.17,1.62-.65,.46-1.33,.89-2,1.3-.78,.47-1.56,.93-2.37,1.36-1.15,.6-2.3,1.18-3.51,1.66-.79,.31-1.56,.64-2.37,.91-1.03,.36-2.08,.68-3.13,.98-.83,.24-1.68,.42-2.53,.6-.56,.12-1.14,.22-1.71,.32-.45,.08-.9,.14-1.34,.2-.32,.04-.65,.07-.97,.11-.42,.05-.83,.1-1.26,.13-.36,.03-.72,.03-1.08,.06-.04,0-.09,.05-.13,.08-.21,0-.43,0-.64,0-1.37,0-2.74,0-4.14-.02-.05-.04-.07-.06-.09-.06-.48-.03-.97-.07-1.45-.1-.4-.03-.79-.06-1.19-.1-.43-.05-.87-.12-1.3-.18-.53-.08-1.05-.16-1.58-.26-.69-.13-1.38-.26-2.05-.43-1.11-.29-2.22-.59-3.31-.93-.84-.26-1.66-.57-2.48-.88-1.1-.42-2.19-.9-3.25-1.42-.64-.32-1.27-.64-1.89-.99-.79-.44-1.57-.89-2.33-1.37-1.22-.78-2.42-1.6-3.55-2.52-.74-.61-1.48-1.2-2.2-1.83-.59-.52-1.15-1.06-1.71-1.61-.45-.45-.86-.92-1.29-1.38-.23-.25-.48-.49-.7-.76-.44-.52-.89-1.05-1.3-1.59-.57-.74-1.15-1.49-1.69-2.26-.49-.69-.95-1.4-1.39-2.12-.53-.88-1.04-1.78-1.52-2.69-.52-.97-.99-1.95-1.39-2.97-.38-.95-.76-1.91-1.11-2.88-.28-.8-.51-1.61-.75-2.42-.35-1.18-.61-2.37-.84-3.58-.1-.54-.19-1.08-.28-1.62-.04-.24-.07-.47-.1-.71-.04-.33-.07-.66-.1-1-.04-.41-.1-.82-.13-1.23-.03-.35-.03-.7-.06-1.05,0-.04-.05-.09-.08-.13,0-.21,0-.43,0-.64,0-1.37,0-2.74,.02-4.14,.04-.07,.06-.11,.07-.16,.02-.25,.03-.49,.05-.74,.05-.55,.09-1.09,.15-1.64,.06-.55,.11-1.09,.2-1.63,.16-.91,.33-1.82,.51-2.72,.25-1.24,.57-2.47,.96-3.67,.3-.94,.63-1.88,.98-2.8,.35-.89,.72-1.78,1.12-2.64,.46-.98,.96-1.93,1.48-2.88,.41-.74,.85-1.46,1.3-2.18,.39-.62,.8-1.21,1.22-1.81,.39-.55,.8-1.1,1.22-1.63,.49-.62,1-1.22,1.52-1.82,.39-.46,.78-.91,1.2-1.33,.59-.6,1.19-1.18,1.8-1.76,.33-.32,.68-.63,1.03-.93,.5-.43,1.01-.86,1.52-1.28,.85-.7,1.74-1.35,2.65-1.97,.53-.36,1.07-.7,1.61-1.04,.96-.62,1.96-1.18,2.98-1.69,.83-.42,1.68-.82,2.54-1.19,.92-.4,1.86-.77,2.8-1.11,1.73-.63,3.49-1.13,5.28-1.51,.45-.09,.89-.18,1.33-.26,.52-.09,1.05-.19,1.57-.27,.27-.04,.54-.08,.81-.11,.34-.04,.68-.07,1.02-.1,.52-.05,1.03-.1,1.55-.14,.34-.02,.68-.03,1.03-.05,.03,0,.06-.03,.08-.04,.29,0,.59,0,.88,0,.97,0,1.94,0,2.95,.02,.13,.02,.23,.03,.32,.04,.18,0,.35,0,.53,0,.35,.02,.7,.06,1.05,.09,.23,.02,.46,.03,.69,.06,.46,.06,.91,.12,1.37,.18,.57,.08,1.15,.15,1.72,.26,.72,.13,1.44,.27,2.15,.43,1.25,.29,2.49,.62,3.71,1.03,.69,.23,1.37,.48,2.05,.73,.99,.35,1.95,.76,2.89,1.22,.98,.47,1.95,.97,2.9,1.49,.78,.43,1.55,.9,2.3,1.37,1.06,.67,2.07,1.41,3.06,2.18,.84,.65,1.65,1.33,2.44,2.03,.63,.56,1.22,1.15,1.83,1.73,.11,.11,.2,.25,.32,.36,.59,.58,1.14,1.18,1.67,1.82,.47,.56,.95,1.11,1.4,1.7,.59,.76,1.15,1.55,1.71,2.34,.34,.47,.65,.97,.95,1.47,.49,.82,.99,1.63,1.43,2.46,.63,1.18,1.23,2.38,1.73,3.64,.37,.93,.74,1.87,1.07,2.82,.31,.91,.59,1.84,.85,2.77,.19,.7,.35,1.41,.5,2.11,.14,.63,.26,1.26,.37,1.9,.06,.35,.1,.69,.16,1.04,.04,.28,.08,.57,.11,.85,.04,.34,.09,.68,.13,1.02,.03,.26,.04,.53,.05,.79,.03,.49,.06,.99,.09,1.48-.02,.04,0,.11,.02,.18h0Zm-42.31-10.08c-.25,.03-.49,.07-.73,.09-.77,.08-1.54,.16-2.31,.22-.58,.05-1.16,.08-1.79,.11-3.64,.14-5.09,.16-5.36,.05,.08-.02,.13-.05,.19-.06,2.89-.76,5.76-1.57,8.62-2.45,1.63-.5,3.25-1.01,4.83-1.64,.09-.03,.17-.09,.29-.13,.72-.28,1.41-.62,2.06-1.02,.44-.27,.86-.57,1.2-.94,.74-.8,1.23-1.73,1.37-2.82,.09-.71,.02-1.4-.28-2.06-.3-.64-.76-1.16-1.32-1.59-.77-.59-1.62-1.03-2.57-1.25-.51-.11-1.02-.18-1.53-.27-.86-.15-1.73-.23-2.6-.27-1.47-.06-2.94-.02-4.4,.17-.97,.13-1.92,.29-2.87,.52-2.32,.55-4.53,1.42-6.62,2.58-2.05,1.14-3.91,2.53-5.58,4.16-.67,.64-1.29,1.34-1.88,2.05-1.61,1.95-2.91,4.09-3.89,6.42-.53,1.25-.96,2.53-1.28,3.84-.31,1.25-.55,2.51-.64,3.8-.05,.68-.1,1.37-.12,2.06-.01,.56,0,1.12,.03,1.68,.04,.68,.08,1.36,.16,2.03,.14,1.16,.37,2.3,.66,3.43,.09,.34,.19,.67,.28,1,.06-.06,.08-.12,.09-.18,.15-.57,.28-1.15,.46-1.71,.45-1.45,1.09-2.82,1.89-4.11,.95-1.52,2.06-2.91,3.44-4.07,1.45-1.22,3.08-2.16,4.84-2.82,.8-.3,1.62-.55,2.46-.82,1.06-.29,2.13-.55,3.21-.76,.83-.16,1.66-.32,2.52-.48,.79-.13,1.57-.26,2.36-.38,.55-.08,1.09-.14,1.64-.21,.61-.08,1.22-.15,1.82-.22,.59-.07,1.19-.14,1.78-.21,.67-.09,1.34-.18,2.01-.27,.53-.08,1.05-.17,1.61-.23,.06,.16,.14,.31,.18,.47,.15,.55,.71,.99,1.38,.98,.91-.02,1.82,0,2.73,0,.07,0,.14,0,.22,0,.54-.04,.99-.42,1.1-.95,.05-.24,.05-.47,0-.72-.08-.33-.16-.65-.2-.98,.77-.24,1.52-.54,2.25-.89,.72-.35,1.41-.74,2.13-1.1,.87-.44,1.63-1.01,2.25-1.76,.35-.41,.67-.84,.87-1.35,.37-.92,.49-1.88,.39-2.87-.02-.23-.1-.41-.28-.58-.68-.65-1.39-1.28-2.13-1.86-.2-.16-.42-.32-.65-.5,0,.09,0,.15,.01,.2,.02,.26,.06,.52,.07,.79,.02,.49-.04,.97-.14,1.45-.29,1.42-1,2.56-2.2,3.39-.95,.66-2.01,1.07-3.11,1.41-.46,.14-.94,.26-1.45,.39-.08,.01-.16,.03-.23,.05-1.32,.26-2.63,.53-3.95,.75-1.09,.18-2.19,.31-3.33,.46h0Zm-.96,13.92c.08,0,.16-.01,.24-.03,.62-.12,1.24-.25,1.86-.36,2.21-.39,4.4-.88,6.56-1.49,.2-.06,.39-.13,.62-.18,.55-.17,1.11-.35,1.67-.52,.56-.16,1.1-.39,1.68-.55,0,.05,0,.07-.01,.09-.47,.89-1.07,1.68-1.78,2.38-.06,.06-.11,.13-.2,.2-.02,.01-.04,.02-.06,.04-.97,.87-2.1,1.45-3.33,1.85-.7,.23-1.41,.43-2.14,.64-.84,.23-1.68,.45-2.52,.68-1.78,.51-3.57,.99-5.31,1.62-.85,.31-1.69,.65-2.46,1.11-.45,.27-.88,.58-1.35,.85-.13-.44-.28-.88-.4-1.33-.19-.75-.65-1.14-1.44-1.14h-2.81c-.1,0-.21,0-.31,.01-.46,.07-.8,.31-.99,.74-.12,.28-.12,.58-.07,.87,.05,.28,.11,.56,.18,.84,.39,1.59,1.08,3.02,2.19,4.24,.03,.03,.05,.08,.05,.14-.71,1.54-.97,3.15-.76,4.83,.13,1.02,.42,2,.85,2.93,.55,1.18,1.27,2.24,2.12,3.21,.5,.58,1.04,1.13,1.64,1.61,.07,.06,.16,.1,.25,.12,.92,.22,1.86,.39,2.81,.49,.71,.07,1.41,.15,2.12,.17,1.24,.05,2.48,.02,3.71-.13,.71-.09,1.43-.18,2.13-.31,1.48-.27,2.92-.69,4.33-1.22,1.89-.72,3.66-1.64,5.33-2.76s3.21-2.41,4.55-3.92c.59-.65,1.16-1.33,1.69-2.02,1.01-1.32,1.86-2.73,2.59-4.23,.41-.83,.77-1.69,1.08-2.56,.51-1.43,.9-2.9,1.16-4.4,.18-1.06,.31-2.12,.36-3.19,.06-1.49,.03-2.97-.17-4.45-.12-.91-.27-1.8-.47-2.69-.35-1.51-.82-2.97-1.43-4.39-.55-1.28-1.19-2.49-1.93-3.67-.04-.06-.08-.1-.14-.18-.03,.05-.05,.08-.07,.1-.68,1.44-1.56,2.73-2.65,3.89-.75,.79-1.57,1.5-2.48,2.11-1.24,.84-2.56,1.55-3.92,2.18-1.95,.91-3.97,1.61-6.06,2.1-.91,.21-1.82,.4-2.74,.6-.47,.1-.94,.18-1.46,.27-.1,.01-.21,.02-.31,.04-.93,.12-1.87,.26-2.81,.35-1.27,.12-2.53,.2-3.8,.29-1.4,.09-2.78,.29-4.14,.64-.31,.08-.61,.18-.95,.27-.47,.16-.94,.3-1.41,.47-1.23,.46-2.42,1-3.56,1.65-.9,.52-1.75,1.09-2.52,1.79-1.17,1.05-2.02,2.33-2.63,3.77-.5,1.2-.79,2.45-.85,3.74-.03,.64-.05,1.28,.06,1.91,.2,1.19,.58,2.33,1.13,3.4,.23,.45,.51,.87,.76,1.3,1.05,1.79,2.33,3.38,3.87,4.77,.09,.08,.18,.16,.28,.23l.04-.04c-.04-.07-.09-.15-.13-.21-.41-.63-.75-1.28-1.04-1.97-.68-1.63-1.04-3.32-1.05-5.09,0-.86,.05-1.71,.22-2.55,.22-1.08,.6-2.1,1.12-3.08,.58-1.09,1.37-2.02,2.33-2.81,.85-.71,1.79-1.27,2.8-1.71,1-.44,2.03-.78,3.1-.98,.74-.14,1.49-.27,2.24-.41,1.31-.26,2.62-.52,3.92-.79,.32-.06,.64-.14,.99-.22Z"/><path class="cls-4" d="M46.08,54.96c.47-.09,.94-.17,1.41-.27,.91-.19,1.83-.38,2.74-.6,2.09-.49,4.11-1.19,6.06-2.1,1.36-.64,2.67-1.34,3.92-2.18,.91-.61,1.73-1.32,2.48-2.11,1.09-1.15,1.97-2.45,2.65-3.89,.01-.03,.03-.05,.07-.1,.05,.07,.1,.12,.14,.18,.74,1.17,1.39,2.39,1.93,3.67,.61,1.42,1.09,2.89,1.43,4.39,.2,.89,.35,1.78,.47,2.69,.19,1.48,.22,2.97,.17,4.45-.04,1.07-.17,2.13-.36,3.19-.26,1.5-.64,2.96-1.16,4.4-.31,.87-.67,1.73-1.08,2.56-.73,1.49-1.57,2.91-2.59,4.23-.54,.7-1.1,1.37-1.69,2.02-1.35,1.5-2.89,2.79-4.55,3.92s-3.45,2.05-5.33,2.76c-1.41,.54-2.85,.95-4.33,1.22-.71,.13-1.42,.22-2.13,.31-1.23,.16-2.47,.18-3.71,.13-.71-.03-1.42-.1-2.12-.17-.95-.09-1.88-.27-2.81-.49-.09-.02-.18-.06-.25-.12-.6-.48-1.14-1.03-1.64-1.61-.85-.98-1.57-2.04-2.12-3.21-.43-.93-.73-1.91-.85-2.93-.21-1.69,.05-3.29,.79-4.84,.62,.6,1.27,1.13,1.99,1.57,1.31,.8,2.73,1.28,4.22,1.59,.31,.07,.63,.12,.96,.18v3.87c0,.2,0,.4,0,.6,0,.25,.09,.47,.24,.66,.34,.43,.79,.66,1.32,.68,.86,.03,1.73,0,2.59,0,.37,0,.71-.13,.96-.42,.32-.36,.5-.78,.5-1.26v-4.14c.81-.15,1.56-.33,2.3-.6,1.8-.65,3.38-1.64,4.63-3.1,1.37-1.62,2.09-3.5,2.16-5.62,.02-.65,0-1.31-.09-1.96-.14-1.09-.43-2.13-.97-3.09-.02-.04-.04-.09-.06-.13,.06-.07,.11-.14,.17-.19,.72-.71,1.31-1.5,1.78-2.38,0-.01,0-.03,.01-.09-.58,.16-1.12,.38-1.68,.55-.56,.16-1.11,.34-1.69,.5-.41-.29-.77-.59-1.18-.83-1.06-.64-2.22-1.05-3.42-1.35-.75-.2-1.52-.35-2.28-.52Z"/><path class="cls-4" d="M31.77,51.8c-.81,.27-1.63,.52-2.43,.82-1.77,.67-3.39,1.6-4.84,2.82-1.38,1.16-2.49,2.55-3.44,4.07-.8,1.29-1.44,2.66-1.89,4.11-.18,.56-.31,1.14-.46,1.71-.01,.06-.03,.12-.09,.18-.09-.33-.2-.66-.28-1-.3-1.13-.53-2.27-.66-3.43-.08-.67-.12-1.35-.16-2.03-.03-.56-.05-1.12-.03-1.68,.02-.69,.08-1.37,.12-2.06,.09-1.28,.34-2.55,.64-3.8,.32-1.31,.75-2.59,1.28-3.84,.99-2.33,2.28-4.47,3.89-6.42,.59-.72,1.21-1.4,1.88-2.05,1.68-1.63,3.54-3.02,5.58-4.16,2.09-1.16,4.29-2.02,6.62-2.58,.95-.23,1.91-.39,2.87-.52,1.46-.19,2.93-.22,4.4-.17,.87,.03,1.73,.11,2.6,.27,.51,.09,1.03,.16,1.53,.27,.95,.21,1.8,.65,2.57,1.25,.56,.43,1.01,.95,1.32,1.59,.31,.66,.37,1.35,.28,2.06-.14,1.09-.63,2.02-1.37,2.82-.35,.38-.77,.67-1.2,.94-.65,.41-1.35,.74-2.09,1.02-.72-.24-1.43-.36-2.17-.45v-4.26c0-.12,0-.24-.02-.36-.13-.64-.8-1.19-1.5-1.2-.9,0-1.79,0-2.69,0-.37,0-.69,.15-.93,.43-.3,.35-.48,.75-.48,1.22v3.98c-.3,.05-.56,.09-.83,.15-1.6,.31-3.09,.88-4.42,1.82-1.28,.9-2.27,2.04-2.92,3.46-.4,.87-.64,1.79-.72,2.75-.07,.74-.05,1.49,.05,2.23Z"/><path class="cls-1" d="M54.36,59.28s.05,.09,.08,.13c.55,.96,.83,2,.97,3.09,.08,.65,.11,1.31,.09,1.96-.07,2.12-.78,4-2.16,5.62-1.25,1.47-2.82,2.46-4.63,3.1-.74,.27-1.5,.45-2.3,.6v4.14c0,.49-.18,.91-.5,1.26-.26,.28-.59,.42-.96,.42-.86,0-1.73,.02-2.59,0-.53-.02-.99-.25-1.32-.68-.15-.19-.24-.42-.24-.66,0-.2,0-.4,0-.6v-3.87c-.34-.06-.65-.11-.96-.18-1.49-.31-2.91-.8-4.22-1.59-.72-.44-1.37-.97-1.98-1.58-.04-.04-.06-.09-.09-.12-1.1-1.22-1.8-2.65-2.19-4.24-.07-.28-.13-.56-.18-.84-.05-.29-.05-.59,.07-.87,.19-.43,.52-.68,.99-.74,.1-.01,.21-.01,.31-.01h2.81c.78,0,1.25,.38,1.44,1.14,.11,.45,.27,.89,.41,1.36,.22,.55,.52,1.02,.9,1.45,.68,.76,1.55,1.23,2.52,1.5,1.44,.39,2.9,.49,4.37,.28,1-.14,1.94-.48,2.77-1.08,1.01-.73,1.69-1.68,1.88-2.92s.09-2.45-.75-3.47c0-.01-.01-.03-.02-.04,.7-.21,1.41-.41,2.11-.64,1.23-.4,2.36-.98,3.33-1.85,0-.01,.03-.02,.07-.04Z"/><path class="cls-2" d="M43.68,59.74c-.32,.08-.63,.16-.95,.22-1.31,.27-2.61,.53-3.92,.79-.74,.15-1.49,.27-2.24,.41-1.07,.2-2.1,.55-3.1,.98-1.01,.44-1.94,1-2.8,1.71-.95,.79-1.74,1.71-2.33,2.81-.52,.97-.9,2-1.12,3.08-.17,.84-.22,1.69-.22,2.55,0,1.76,.36,3.46,1.05,5.09,.29,.69,.64,1.35,1.04,1.97,.05,.07,.09,.14,.13,.21l-.04,.04c-.09-.08-.19-.15-.28-.23-1.54-1.39-2.82-2.98-3.87-4.77-.26-.44-.53-.86-.76-1.3-.56-1.07-.93-2.21-1.13-3.4-.11-.64-.09-1.28-.06-1.91,.05-1.3,.35-2.55,.85-3.74,.6-1.45,1.46-2.72,2.63-3.77,.77-.69,1.62-1.27,2.52-1.79,1.14-.65,2.33-1.2,3.56-1.65,.46-.17,.94-.31,1.45-.46,.08,.05,.13,.09,.18,.13,.92,.77,1.98,1.29,3.1,1.69,1.71,.61,3.48,.92,5.28,1.16,.35,.05,.7,.13,1.05,.19Z"/><path class="cls-1" d="M31.79,51.8c-.12-.74-.14-1.48-.08-2.22,.08-.96,.31-1.87,.72-2.75,.65-1.42,1.64-2.56,2.92-3.46,1.34-.94,2.82-1.51,4.42-1.82,.27-.05,.54-.09,.83-.15v-3.98c0-.47,.18-.88,.48-1.22,.24-.27,.55-.43,.93-.43,.9,0,1.79,0,2.69,0,.7,0,1.37,.55,1.5,1.2,.02,.12,.02,.24,.02,.36v4.26c.74,.08,1.45,.21,2.15,.45-.07,.05-.15,.09-.24,.13-1.58,.63-3.2,1.14-4.83,1.64-2.85,.88-5.73,1.69-8.62,2.45-.06,.01-.12,.04-.19,.06,.27,.11,1.73,.09,5.37-.04-.07,.05-.14,.09-.22,.13-1.06,.52-1.76,1.33-2.04,2.49-.13,.55-.13,1.11-.1,1.67-.83,.16-1.66,.32-2.49,.48-1.08,.21-2.15,.46-3.22,.76Z"/><path class="cls-4" d="M48.83,61.81s.03,.03,.04,.04c.84,1.03,.94,2.24,.75,3.47-.19,1.24-.87,2.2-1.88,2.92-.83,.59-1.76,.93-2.77,1.08-1.47,.21-2.93,.11-4.37-.28-.97-.27-1.84-.73-2.52-1.5-.38-.42-.67-.89-.88-1.43,.44-.31,.87-.62,1.32-.89,.78-.46,1.62-.81,2.46-1.11,1.74-.63,3.53-1.11,5.31-1.62,.84-.23,1.68-.45,2.54-.68Z"/><path class="cls-1" d="M43.7,59.74c-.37-.07-.72-.15-1.08-.19-1.79-.24-3.56-.55-5.28-1.16-1.12-.4-2.18-.92-3.1-1.69-.05-.04-.09-.09-.16-.13,.29-.1,.59-.2,.9-.28,1.36-.34,2.74-.54,4.14-.64,1.27-.09,2.54-.17,3.8-.29,.94-.09,1.87-.23,2.81-.35,.1-.01,.2-.02,.33-.04,.79,.17,1.56,.31,2.32,.5,1.2,.3,2.36,.71,3.42,1.35,.4,.24,.77,.54,1.16,.83-.19,.08-.38,.15-.58,.21-2.16,.61-4.35,1.1-6.56,1.49-.62,.11-1.24,.24-1.86,.36-.08,.02-.16,.03-.26,.04Z"/><path class="cls-2" d="M52.23,44.56c.47-.13,.94-.25,1.41-.39,1.09-.34,2.16-.75,3.11-1.41,1.2-.83,1.91-1.97,2.2-3.39,.09-.48,.16-.96,.14-1.45,0-.26-.05-.53-.07-.79,0-.05,0-.11-.01-.2,.24,.18,.45,.34,.65,.5,.74,.59,1.45,1.21,2.13,1.86,.18,.17,.26,.35,.28,.58,.09,.99-.02,1.95-.39,2.87-.2,.5-.53,.93-.87,1.35-.63,.75-1.38,1.32-2.25,1.76-.71,.36-1.41,.76-2.13,1.1-.73,.35-1.48,.65-2.28,.88-.25-.63-.51-1.23-.84-1.79-.3-.53-.67-1-1.06-1.47Z"/><path class="cls-2" d="M37.52,50.56c-.05-.56-.05-1.12,.08-1.67,.27-1.16,.98-1.97,2.04-2.49,.08-.04,.16-.08,.25-.13,.59-.05,1.18-.08,1.75-.12,.77-.07,1.54-.15,2.31-.22,.25-.02,.49-.06,.75-.08,.14,.05,.27,.09,.39,.12,1.65,.35,2.85,1.27,3.55,2.82,.04,.08,.06,.16,.09,.25-.53,.09-1.05,.17-1.58,.25-.67,.09-1.34,.19-2.01,.27-.59,.08-1.18,.14-1.78,.21-.61,.07-1.22,.15-1.82,.22-.55,.07-1.09,.13-1.64,.21-.79,.12-1.57,.25-2.37,.37Z"/><path class="cls-1" d="M48.74,49.03c-.04-.09-.07-.18-.1-.26-.7-1.55-1.9-2.47-3.55-2.82-.12-.03-.25-.07-.37-.11,1.09-.17,2.2-.29,3.29-.47,1.32-.22,2.63-.5,3.95-.75,.08-.01,.16-.03,.26-.05,.41,.47,.78,.95,1.09,1.47,.33,.57,.59,1.17,.82,1.8,.09,.34,.17,.66,.25,.99,.06,.24,.06,.48,0,.72-.11,.52-.56,.91-1.1,.95-.07,0-.14,0-.22,0-.91,0-1.82-.01-2.73,0-.67,.01-1.23-.43-1.38-.98-.05-.17-.12-.32-.19-.49Z"/></g><g><path class="cls-4" d="M82.88,42.23c11.7,0,21.12-9.41,21.12-21.12S94.58,0,82.88,0s-21.12,9.41-21.12,21.12,9.41,21.12,21.12,21.12Z"/><path class="cls-1" d="M88.69,24.46c0-3.08-1.85-4.14-5.54-4.58-2.64-.35-3.17-1.06-3.17-2.29s.88-2.02,2.64-2.02c1.58,0,2.46,.53,2.9,1.85,.09,.26,.35,.44,.62,.44h1.41c.35,0,.62-.26,.62-.62v-.09c-.35-1.94-1.94-3.43-3.96-3.61v-2.11c0-.35-.26-.62-.7-.7h-1.32c-.35,0-.62,.26-.7,.7v2.02c-2.64,.35-4.31,2.11-4.31,4.31,0,2.9,1.76,4.05,5.45,4.49,2.46,.44,3.26,.97,3.26,2.38s-1.23,2.38-2.9,2.38c-2.29,0-3.08-.97-3.34-2.29-.09-.35-.35-.53-.62-.53h-1.5c-.35,0-.62,.26-.62,.62v.09c.35,2.2,1.76,3.78,4.66,4.22v2.11c0,.35,.26,.62,.7,.7h1.32c.35,0,.62-.26,.7-.7v-2.11c2.64-.44,4.4-2.29,4.4-4.66h0Z"/><path class="cls-1" d="M78.39,33.7c-6.86-2.46-10.38-10.12-7.83-16.89,1.32-3.7,4.22-6.51,7.83-7.83,.35-.18,.53-.44,.53-.88v-1.23c0-.35-.18-.62-.53-.7-.09,0-.26,0-.35,.09-8.36,2.64-12.93,11.53-10.29,19.88,1.58,4.93,5.37,8.71,10.29,10.29,.35,.18,.7,0,.79-.35,.09-.09,.09-.18,.09-.35v-1.23c0-.26-.26-.62-.53-.79Zm9.33-27.45c-.35-.18-.7,0-.79,.35-.09,.09-.09,.18-.09,.35v1.23c0,.35,.26,.7,.53,.88,6.86,2.46,10.38,10.12,7.83,16.89-1.32,3.7-4.22,6.51-7.83,7.83-.35,.18-.53,.44-.53,.88v1.23c0,.35,.18,.62,.53,.7,.09,0,.26,0,.35-.09,8.36-2.64,12.93-11.53,10.29-19.88-1.58-5.02-5.46-8.8-10.29-10.38h0Z"/></g></g></svg>