<svg xmlns="http://www.w3.org/2000/svg" width="650" height="340" viewBox="0 0 650 340">
  <defs>
    <style>
      .cls-1 {
        fill: #70d44b;
      }

      .cls-2 {
        opacity: 0.3;
      }

      .cls-3 {
        fill: none;
      }

      .cls-4 {
        fill: rgba(255,255,255,0.5);
      }
    </style>
  </defs>
  <g id="value_locked" transform="translate(-1023.398 -167.216)">
    <rect id="Rectangle_3" data-name="Rectangle 3" class="cls-1" width="650" height="340" rx="20" transform="translate(1023.398 167.216)"/>
    <g id="Layer_2" data-name="Layer 2" class="cls-2" transform="translate(1066.413 194.911)">
      <g id="Layer_1" data-name="Layer 1" transform="translate(508.692 55.769)">
        <g id="Logo">
          <path id="Path_6" data-name="Path 6" class="cls-3" d="M31.2,82.309c.557-3.989,3.659-6.408,4.607-7.157,1.973-1.536,4.35-2.208,9.111-3.559,3.932-1.113,6.37-1.432,8.523-3.686A9.767,9.767,0,0,0,55.1,65.55a65.078,65.078,0,0,1-10.243,2.737c-3.071.545-6.082,1.255-9.134,1.8a14.69,14.69,0,0,0-4.058,1.19,11.318,11.318,0,0,0-4.262,3.24,11.022,11.022,0,0,0-2.173,6.527,13.311,13.311,0,0,0,2.334,7.944A26.288,26.288,0,0,0,35.98,92.6C35.639,92.326,30.394,88.1,31.2,82.309Z" transform="translate(-15.539 -40.381)"/>
          <path id="Path_7" data-name="Path 7" class="cls-3" d="M9.663,56.141a12.446,12.446,0,0,1-1.92-4.811,11.437,11.437,0,0,1,1.92-7.679c.768-1.125,2.407-3.114,7.061-4.991,6.527-2.657,8.527-.852,18.333-3.183A32,32,0,0,0,44.5,31.638a16.029,16.029,0,0,0,4.308-3.782,15.166,15.166,0,0,0,1.812-2.976A26.553,26.553,0,0,0,47.189,20.6a5.94,5.94,0,0,1-.415,3.413,6.922,6.922,0,0,1-3.164,3.01,22.886,22.886,0,0,1-6.634,2.657c-7.1,1.332-10.324,1.328-14.567,2.112-5.237.968-10.17,1.881-14.121,5.667A18.83,18.83,0,0,0,3.14,47.042,26.492,26.492,0,0,0,13.952,61.3a20.234,20.234,0,0,1-4.289-5.164Z" transform="translate(-1.934 -12.689)"/>
          <path id="Path_8" data-name="Path 8" class="cls-3" d="M63.563,5.2A4.465,4.465,0,0,1,63.1,8.191c-1.071,2.211-3.367,3.229-9.8,5.2-2.342.714-5.325,1.578-8.831,2.484a78.538,78.538,0,0,0,16.271-1.382c4.342-.841,7.153-1.793,8.393-4.223a6.562,6.562,0,0,0,.538-3.951A26.353,26.353,0,0,0,59.612,1.71C60.031,1.821,62.976,2.75,63.563,5.2Z" transform="translate(-27.396 -1.052)"/>
          <path id="Path_9" data-name="Path 9" class="cls-4" d="M6.373,24.731c3.951-3.786,8.884-4.7,14.121-5.667,4.242-.768,7.468-.768,14.567-2.112A22.887,22.887,0,0,0,41.7,14.3a6.922,6.922,0,0,0,3.164-3.01,5.939,5.939,0,0,0,.415-3.413,26.264,26.264,0,0,0-3-2.615,6.561,6.561,0,0,1-.538,3.955c-1.24,2.423-4.051,3.375-8.393,4.223a78.538,78.538,0,0,1-16.264,1.382c3.5-.906,6.481-1.77,8.831-2.484,6.427-1.97,8.723-2.987,9.794-5.2a4.465,4.465,0,0,0,.461-2.991C35.579,1.695,32.634.765,32.216.631A26.457,26.457,0,0,0,1.205,34.348,18.95,18.95,0,0,1,6.373,24.731Z" transform="translate(0.001 0.004)"/>
          <path id="Path_10" data-name="Path 10" class="cls-4" d="M57.9,31.66a15.165,15.165,0,0,1-1.812,2.976,16.029,16.029,0,0,1-4.308,3.782,32,32,0,0,1-9.445,3.839c-9.806,2.33-11.791.526-18.333,3.183-4.653,1.893-6.3,3.882-7.061,4.991a11.3,11.3,0,0,0-1.92,7.679,12.446,12.446,0,0,0,1.92,4.811,20.233,20.233,0,0,0,4.269,5.2h0A13.311,13.311,0,0,1,18.887,60.2a10.979,10.979,0,0,1,2.173-6.527A11.318,11.318,0,0,1,25.322,50.4a14.689,14.689,0,0,1,4.066-1.19c3.052-.549,6.078-1.259,9.134-1.8a65.077,65.077,0,0,0,10.243-2.737,9.767,9.767,0,0,1-1.659,2.357c-2.154,2.254-4.607,2.572-8.523,3.686-4.757,1.351-7.118,2.023-9.107,3.559-.96.768-4.062,3.167-4.607,7.157-.806,5.794,4.438,10.017,4.78,10.286A26.453,26.453,0,0,0,57.9,31.66Z" transform="translate(-9.197 -19.503)"/>
        </g>
      </g>
      <g id="Layer_1-2" data-name="Layer 1" transform="translate(0)">
        <g id="Logo-2" data-name="Logo">
          <path id="Path_6-2" data-name="Path 6" class="cls-3" d="M34.282,90.949c.844-6.046,5.545-9.712,6.983-10.846,2.991-2.328,6.593-3.346,13.808-5.394,5.959-1.687,9.653-2.17,12.918-5.586A14.8,14.8,0,0,0,70.5,65.55,98.631,98.631,0,0,1,54.979,69.7c-4.655.826-9.217,1.9-13.843,2.735a22.263,22.263,0,0,0-6.151,1.8,17.154,17.154,0,0,0-6.459,4.911,16.7,16.7,0,0,0-3.293,9.892,20.174,20.174,0,0,0,3.538,12.039,39.842,39.842,0,0,0,12.755,5.464C41.008,106.131,33.06,99.73,34.282,90.949Z" transform="translate(-10.546 -27.405)"/>
          <path id="Path_7-2" data-name="Path 7" class="cls-3" d="M13.026,74.465a18.863,18.863,0,0,1-2.909-7.291,17.334,17.334,0,0,1,2.909-11.638c1.164-1.7,3.648-4.719,10.7-7.565,9.892-4.027,12.924-1.292,27.785-4.824a48.494,48.494,0,0,0,14.314-5.819A24.294,24.294,0,0,0,72.355,31.6a22.985,22.985,0,0,0,2.747-4.51A40.244,40.244,0,0,0,69.9,20.6a9,9,0,0,1-.628,5.173c-.809,1.746-2.153,3.008-4.795,4.562a34.686,34.686,0,0,1-10.055,4.027c-10.759,2.019-15.647,2.013-22.077,3.2-7.937,1.466-15.414,2.851-21.4,8.589a28.539,28.539,0,0,0-7.8,14.524A40.15,40.15,0,0,0,19.526,82.292a30.666,30.666,0,0,1-6.5-7.826Z" transform="translate(-1.312 -8.611)"/>
          <path id="Path_8-2" data-name="Path 8" class="cls-3" d="M73.407,7a6.767,6.767,0,0,1-.7,4.533c-1.623,3.352-5.1,4.894-14.856,7.879C54.3,20.493,49.783,21.8,44.47,23.176a119.031,119.031,0,0,0,24.66-2.095c6.581-1.274,10.841-2.717,12.72-6.4a9.944,9.944,0,0,0,.815-5.988A39.941,39.941,0,0,0,67.42,1.71C68.054,1.879,72.517,3.287,73.407,7Z" transform="translate(-18.593 -0.713)"/>
          <path id="Path_9-2" data-name="Path 9" class="cls-4" d="M9.659,37.483c5.988-5.737,13.465-7.122,21.4-8.589,6.43-1.164,11.318-1.164,22.077-3.2a34.686,34.686,0,0,0,10.055-4.027c2.642-1.554,3.986-2.816,4.795-4.562a9,9,0,0,0,.628-5.173A39.805,39.805,0,0,0,64.071,7.97a9.944,9.944,0,0,1-.815,5.993c-1.879,3.672-6.139,5.115-12.72,6.4a119.03,119.03,0,0,1-24.649,2.095c5.3-1.373,9.822-2.682,13.383-3.765,9.741-2.985,13.22-4.527,14.844-7.879a6.767,6.767,0,0,0,.7-4.533C53.923,2.57,49.46,1.162,48.826.958a40.1,40.1,0,0,0-47,51.1A28.72,28.72,0,0,1,9.659,37.483Z" transform="translate(0.001 0.004)"/>
          <path id="Path_10-2" data-name="Path 10" class="cls-4" d="M80.06,31.66a22.984,22.984,0,0,1-2.746,4.51A24.294,24.294,0,0,1,70.785,41.9,48.494,48.494,0,0,1,56.47,47.72c-14.861,3.532-17.87.8-27.785,4.824-7.052,2.869-9.549,5.883-10.7,7.565a17.119,17.119,0,0,0-2.909,11.638,18.863,18.863,0,0,0,2.909,7.291,30.665,30.665,0,0,0,6.471,7.879h0a20.174,20.174,0,0,1-3.526-12,16.639,16.639,0,0,1,3.293-9.892,17.154,17.154,0,0,1,6.459-4.958,22.263,22.263,0,0,1,6.162-1.8c4.626-.832,9.211-1.909,13.843-2.735A98.629,98.629,0,0,0,66.211,51.38,14.8,14.8,0,0,1,63.7,54.953c-3.264,3.416-6.983,3.9-12.918,5.586-7.21,2.048-10.788,3.067-13.8,5.394-1.455,1.164-6.156,4.8-6.983,10.846-1.222,8.781,6.727,15.181,7.244,15.589A40.092,40.092,0,0,0,80.06,31.66Z" transform="translate(-6.241 -13.235)"/>
        </g>
      </g>
      <g id="Layer_1-3" data-name="Layer 1" transform="translate(202.201 226.515)">
        <g id="Logo-3" data-name="Logo">
          <path id="Path_6-3" data-name="Path 6" class="cls-3" d="M30.284,79.739a9.7,9.7,0,0,1,3.9-6.059c1.671-1.3,3.683-1.869,7.714-3.013,3.329-.943,5.393-1.212,7.216-3.121a8.27,8.27,0,0,0,1.4-2,55.1,55.1,0,0,1-8.673,2.318c-2.6.462-5.149,1.063-7.733,1.528A12.437,12.437,0,0,0,30.677,70.4a9.583,9.583,0,0,0-3.608,2.744,9.332,9.332,0,0,0-1.84,5.526A11.27,11.27,0,0,0,27.206,85.4a22.257,22.257,0,0,0,7.125,3.052C34.042,88.22,29.6,84.644,30.284,79.739Z" transform="translate(-17.024 -44.241)"/>
          <path id="Path_7-3" data-name="Path 7" class="cls-3" d="M8.663,50.691a10.537,10.537,0,0,1-1.625-4.073,9.684,9.684,0,0,1,1.625-6.5c.65-.952,2.038-2.636,5.978-4.226,5.526-2.249,7.22-.722,15.522-2.695a27.091,27.091,0,0,0,8-3.251,13.571,13.571,0,0,0,3.647-3.2,12.84,12.84,0,0,0,1.534-2.519A22.481,22.481,0,0,0,40.434,20.6a5.029,5.029,0,0,1-.351,2.89A5.861,5.861,0,0,1,37.4,26.038a19.377,19.377,0,0,1-5.617,2.249c-6.01,1.128-8.741,1.125-12.333,1.788-4.434.819-8.611,1.593-11.956,4.8A15.943,15.943,0,0,0,3.14,42.987a22.429,22.429,0,0,0,9.154,12.076,17.131,17.131,0,0,1-3.631-4.372Z" transform="translate(-2.119 -13.902)"/>
          <path id="Path_8-3" data-name="Path 8" class="cls-3" d="M60.635,4.665a3.78,3.78,0,0,1-.39,2.532c-.907,1.872-2.851,2.734-8.3,4.4-1.983.6-4.509,1.336-7.476,2.1a66.5,66.5,0,0,0,13.776-1.17c3.676-.712,6.056-1.518,7.106-3.576a5.555,5.555,0,0,0,.455-3.345,22.312,22.312,0,0,0-8.517-3.9C57.645,1.8,60.138,2.591,60.635,4.665Z" transform="translate(-30.014 -1.153)"/>
          <path id="Path_9-3" data-name="Path 9" class="cls-4" d="M5.4,20.938c3.345-3.205,7.522-3.979,11.956-4.8,3.592-.65,6.322-.65,12.333-1.788A19.377,19.377,0,0,0,35.3,12.1,5.861,5.861,0,0,0,37.98,9.554a5.029,5.029,0,0,0,.351-2.89,22.237,22.237,0,0,0-2.539-2.214A5.555,5.555,0,0,1,35.337,7.8c-1.05,2.051-3.429,2.857-7.106,3.576a66.494,66.494,0,0,1-13.77,1.17c2.961-.767,5.487-1.5,7.476-2.1,5.442-1.668,7.385-2.529,8.292-4.4a3.78,3.78,0,0,0,.39-2.532C30.123,1.434,27.63.648,27.275.534A22.4,22.4,0,0,0,1.02,29.081,16.044,16.044,0,0,1,5.4,20.938Z" transform="translate(0.001 0.004)"/>
          <path id="Path_10-3" data-name="Path 10" class="cls-4" d="M51.313,31.66a12.84,12.84,0,0,1-1.534,2.519,13.571,13.571,0,0,1-3.647,3.2,27.091,27.091,0,0,1-8,3.251c-8.3,1.973-9.983.445-15.522,2.695-3.94,1.6-5.334,3.286-5.978,4.226a9.563,9.563,0,0,0-1.625,6.5,10.537,10.537,0,0,0,1.625,4.073,17.131,17.131,0,0,0,3.615,4.4h0a11.27,11.27,0,0,1-1.97-6.7A9.3,9.3,0,0,1,20.12,50.3a9.583,9.583,0,0,1,3.608-2.77,12.437,12.437,0,0,1,3.442-1.008c2.584-.465,5.146-1.066,7.733-1.528a55.1,55.1,0,0,0,8.673-2.318,8.27,8.27,0,0,1-1.4,2c-1.824,1.908-3.9,2.178-7.216,3.121-4.028,1.144-6.027,1.713-7.71,3.013a9.668,9.668,0,0,0-3.9,6.059c-.683,4.905,3.758,8.481,4.047,8.708A22.4,22.4,0,0,0,51.313,31.66Z" transform="translate(-10.076 -21.367)"/>
        </g>
      </g>
    </g>
  </g>
</svg>
