<?xml version="1.0" encoding="UTF-8"?><svg id="Layer_2" xmlns="http://www.w3.org/2000/svg" viewBox="0 0 42.23 42.23"><defs><style>.cls-1{fill:#fff;}.cls-2{fill:#5b5665;}.cls-3{fill:#282138;}.cls-4{fill:#f19244;}</style></defs><g id="orbital-btc"><g id="wbtc_colour"><circle class="cls-1" cx="21.12" cy="21.12" r="21.12"/><path id="Shape" class="cls-2" d="M34.44,8.86l-1.16,1.16c5.74,6.27,5.74,15.88,0,22.16l1.16,1.16c6.38-6.92,6.38-17.58,0-24.5v.03Z"/><path id="Shape-2" class="cls-2" d="M10.05,8.96c6.27-5.74,15.88-5.74,22.16,0l1.16-1.16C26.44,1.42,15.78,1.42,8.86,7.8l1.19,1.16Z"/><path id="Shape-3" class="cls-2" d="M8.96,32.19c-5.73-6.27-5.73-15.87,0-22.14l-1.16-1.16c-6.38,6.92-6.38,17.58,0,24.5l1.16-1.2Z"/><path id="Shape-4" class="cls-2" d="M32.19,33.26c-6.27,5.74-15.88,5.74-22.16,0l-1.16,1.16c6.92,6.38,17.58,6.38,24.5,0l-1.19-1.16Z"/><path id="Shape-5" class="cls-4" d="M28.44,17.25c-.23-2.42-2.32-3.23-4.96-3.48v-3.33h-2.04v3.27h-1.63v-3.27h-2.03v3.36h-4.14v2.18s1.51-.03,1.48,0c.56-.06,1.08,.33,1.16,.9v9.18c-.01,.19-.1,.37-.25,.5-.14,.13-.33,.19-.53,.18,.03,.02-1.48,0-1.48,0l-.39,2.44h4.1v3.41h2.04v-3.36h1.63v3.34h2.04v-3.37c3.45-.21,5.85-1.06,6.15-4.29,.24-2.6-.98-3.76-2.93-4.22,1.19-.58,1.92-1.67,1.75-3.44Zm-2.86,7.26c0,2.54-4.34,2.25-5.73,2.25v-4.5c1.38,0,5.73-.39,5.73,2.25Zm-.95-6.34c0,2.32-3.63,2.04-4.78,2.04v-4.09c1.15,0,4.78-.36,4.78,2.05Z"/><path id="Shape-6" class="cls-3" d="M21.11,42.23C9.45,42.23,0,32.77,0,21.11,0,9.45,9.46,0,21.12,0c11.66,0,21.11,9.45,21.11,21.11,0,11.66-9.45,21.12-21.11,21.12h0ZM21.11,1.65C10.37,1.66,1.66,10.37,1.67,21.12c0,10.75,8.73,19.45,19.47,19.44,10.74,0,19.44-8.71,19.44-19.45,0-10.75-8.7-19.46-19.45-19.47,0,0-.02,0-.02,0Z"/></g></g></svg>