<svg xmlns="http://www.w3.org/2000/svg" xmlns:xlink="http://www.w3.org/1999/xlink" viewBox="0 0 42.23 42.23"><defs><style>.cls-1{fill:url(#linear-gradient);}.cls-2{fill:url(#radial-gradient);}.cls-3{fill:url(#radial-gradient-2);}.cls-4{fill:url(#radial-gradient-3);}.cls-5{fill:url(#radial-gradient-4);}.cls-6{fill:#010101;fill-rule:evenodd;}</style><linearGradient id="linear-gradient" x1="-1166.12" y1="234.61" x2="-1166.03" y2="234.5" gradientTransform="matrix(494, 0, 0, -496, 576073.09, 116374.25)" gradientUnits="userSpaceOnUse"><stop offset="0" stop-color="#70c59b"/><stop offset="0.3" stop-color="#8aafdd"/><stop offset="1" stop-color="#fff" stop-opacity="0"/></linearGradient><radialGradient id="radial-gradient" cx="-1167.61" cy="233.6" r="0.03" gradientTransform="matrix(307.82, -392.43, -492.84, -383.47, 474550.59, -368583.07)" gradientUnits="userSpaceOnUse"><stop offset="0" stop-color="#c5cb2e"/><stop offset="0.54" stop-color="#d2de26"/><stop offset="1" stop-color="#fff" stop-opacity="0"/></radialGradient><radialGradient id="radial-gradient-2" cx="-1168.35" cy="233.5" r="0.26" gradientTransform="matrix(173.84, -466.92, -586.39, -216.56, 340033.21, -494914.12)" gradientUnits="userSpaceOnUse"><stop offset="0" stop-color="#fff" stop-opacity="0"/><stop offset="0.07" stop-color="#eaf4e3" stop-opacity="0.1"/><stop offset="0.11" stop-color="#6abd45"/><stop offset="0.13" stop-color="#71c8b7"/><stop offset="0.19" stop-color="#71c8b7" stop-opacity="0"/><stop offset="1" stop-color="#71c8b7" stop-opacity="0"/></radialGradient><radialGradient id="radial-gradient-3" cx="-1169.15" cy="235.22" r="0.25" gradientTransform="matrix(-353.72, -351.96, -396.54, 395.31, -320237.25, -504448.02)" gradientUnits="userSpaceOnUse"><stop offset="0" stop-color="#fff" stop-opacity="0"/><stop offset="0.07" stop-color="#eaf4e3" stop-opacity="0.1"/><stop offset="0.11" stop-color="#6abd45"/><stop offset="0.13" stop-color="#71c8b7"/><stop offset="0.25" stop-color="#71c8b7" stop-opacity="0"/><stop offset="1" stop-color="#71c8b7" stop-opacity="0"/></radialGradient><radialGradient id="radial-gradient-4" cx="-1169.21" cy="235.54" r="0.03" gradientTransform="matrix(-392.8, -308.12, -386.95, 489.34, -368082.77, -475482.03)" xlink:href="#radial-gradient"/></defs><g id="Layer_2" data-name="Layer 2"><g id="TripolarXtri_lp" data-name="TripolarXtri lp"><g id="Xtri"><g id="svg"><g id="Gradients"><circle id="Gradient-Linear-BG" class="cls-1" cx="21.12" cy="21.12" r="20.69"/><circle id="Gradient-Radial-Yellow-1" class="cls-2" cx="21.12" cy="21.12" r="20.69"/><circle id="Gradient-Radial-Rings-1" class="cls-3" cx="21.12" cy="21.12" r="20.69"/><circle id="Gradient-Radial-Rings-2" class="cls-4" cx="21.12" cy="21.12" r="20.69"/><circle id="Gradient-Radial-Yellow-2" class="cls-5" cx="21.12" cy="21.12" r="20.69"/></g><g id="T"><path id="Rectangle" class="cls-6" d="M11.28,7.41H30.86a2.4,2.4,0,0,1,2.4,2.38h0a2.4,2.4,0,0,1-2.4,2.39H11.28A2.39,2.39,0,0,1,8.89,9.79h0A2.39,2.39,0,0,1,11.28,7.41Z"/><path id="Rectangle-2" data-name="Rectangle" class="cls-6" d="M21.12,8.77h0a2.9,2.9,0,0,1,2.9,2.9v22a2.89,2.89,0,0,1-2.9,2.89h0a2.9,2.9,0,0,1-2.91-2.89v-22A2.9,2.9,0,0,1,21.12,8.77Z"/></g><path id="border" d="M21.12,0A21.12,21.12,0,1,0,42.23,21.12,21.11,21.11,0,0,0,21.12,0Zm0,41A19.85,19.85,0,1,1,41,21.12,19.85,19.85,0,0,1,21.12,41Z"/></g></g></g></g></svg>