<svg xmlns="http://www.w3.org/2000/svg" viewBox="0 0 230.22 230.22"><defs><style>.cls-1{fill:#221536;}.cls-2{fill:none;}.cls-3{fill:#fff;}</style></defs><g id="Layer_2" data-name="Layer 2"><g id="Layer_1-2" data-name="Layer 1"><g id="Logo"><circle class="cls-1" cx="115.11" cy="115.11" r="115.11"/><path class="cls-2" d="M87,155.42c1.44-10.39,9.52-16.68,12-18.63,5.14-4,11.34-5.76,23.73-9.28,10.24-2.9,16.6-3.73,22.2-9.59a25.63,25.63,0,0,0,4.32-6.14,170.37,170.37,0,0,1-26.68,7.12c-8,1.42-15.83,3.27-23.79,4.7a38,38,0,0,0-10.59,3.11,29.32,29.32,0,0,0-11.11,8.43c-5.14,6.59-5.53,13.84-5.66,17a34.74,34.74,0,0,0,6.08,20.69,68.3,68.3,0,0,0,21.93,9.35C98.57,181.51,84.91,170.52,87,155.42Z"/><path class="cls-2" d="M66.36,159.4c-2.23-3.84-4.31-7.42-5-12.53C60,136.93,64.9,129,66.41,126.81c2-2.92,6.26-8.11,18.39-13,17-6.92,22.2-2.22,47.74-8.28a83.88,83.88,0,0,0,24.61-10,41.85,41.85,0,0,0,11.21-9.85,39.48,39.48,0,0,0,4.72-7.74,68.8,68.8,0,0,0-8.94-11.16,15.51,15.51,0,0,1-1.08,8.9c-1.38,3-3.7,5.16-8.24,7.83a59.61,59.61,0,0,1-17.28,6.92c-18.49,3.47-26.89,3.46-37.94,5.51C86,98.41,73.11,100.78,62.82,110.64c-8.63,8.27-12,18.48-13.46,25a69.07,69.07,0,0,0,28.16,37.16A53.07,53.07,0,0,1,66.36,159.4Z"/><path class="cls-2" d="M140.42,57a11.57,11.57,0,0,1-1.16,7.79c-2.83,5.77-8.81,8.45-25.56,13.55-6.11,1.85-13.88,4.1-23,6.46a205.37,205.37,0,0,0,42.36-3.62c11.31-2.2,18.63-4.67,21.87-11a17.06,17.06,0,0,0,1.39-10.29,68.5,68.5,0,0,0-26.2-12.05C131.26,48.2,138.89,50.64,140.42,57Z"/><path class="cls-3" d="M62.82,110.64C73.11,100.78,86,98.41,99.6,95.89c11.05-2,19.45-2,37.94-5.51a59.61,59.61,0,0,0,17.28-6.92c4.54-2.67,6.86-4.84,8.24-7.83a15.51,15.51,0,0,0,1.08-8.9,68.41,68.41,0,0,0-7.81-6.81,17.06,17.06,0,0,1-1.39,10.29c-3.24,6.32-10.56,8.79-21.87,11a205.37,205.37,0,0,1-42.36,3.62c9.11-2.36,16.88-4.61,23-6.46,16.75-5.1,22.73-7.78,25.56-13.55A11.57,11.57,0,0,0,140.42,57c-1.53-6.38-9.16-8.82-10.29-9.15a68.91,68.91,0,0,0-80.77,87.82C50.82,129.12,54.19,118.91,62.82,110.64Z"/><path class="cls-3" d="M173.08,77.89a39.48,39.48,0,0,1-4.72,7.74,41.85,41.85,0,0,1-11.21,9.85,83.88,83.88,0,0,1-24.61,10c-25.54,6.06-30.71,1.36-47.74,8.28-12.13,4.93-16.41,10.12-18.39,13C64.9,129,60,136.93,61.35,146.87c.7,5.11,2.78,8.69,5,12.53a53.07,53.07,0,0,0,11.16,13.45h0a34.74,34.74,0,0,1-6.08-20.69c.13-3.19.52-10.44,5.66-17a29.32,29.32,0,0,1,11.11-8.43,38,38,0,0,1,10.59-3.11c8-1.43,15.83-3.28,23.79-4.7a170.37,170.37,0,0,0,26.68-7.12,25.63,25.63,0,0,1-4.32,6.14c-5.6,5.86-12,6.69-22.2,9.59-12.39,3.52-18.59,5.27-23.73,9.28-2.5,2-10.58,8.24-12,18.63-2.11,15.1,11.55,26.09,12.45,26.79A68.9,68.9,0,0,0,173.08,77.89Z"/></g></g></g></svg>