<svg xmlns="http://www.w3.org/2000/svg" viewBox="0 0 137.78 137.78"><defs><style>.cls-1{fill:none;}.cls-2{fill:#fff;}</style></defs><g id="Layer_2" data-name="Layer 2"><g id="Layer_1-2" data-name="Layer 1"><g id="Logo"><path class="cls-1" d="M40.79,109.2c1.45-10.39,9.53-16.69,12-18.64,5.14-4,11.33-5.75,23.73-9.27,10.24-2.9,16.59-3.73,22.2-9.6a25.44,25.44,0,0,0,4.32-6.14,169.5,169.5,0,0,1-26.68,7.13c-8,1.42-15.84,3.27-23.79,4.7A38.26,38.26,0,0,0,42,80.48,29.48,29.48,0,0,0,30.9,88.92c-5.14,6.59-5.53,13.84-5.66,17a34.67,34.67,0,0,0,6.08,20.69A68.47,68.47,0,0,0,53.24,136C52.35,135.29,38.69,124.29,40.79,109.2Z"/><path class="cls-1" d="M20.13,113.17c-2.22-3.83-4.3-7.41-5-12.53-1.36-9.93,3.55-17.84,5-20,2-2.93,6.27-8.11,18.39-13,17-6.92,22.21-2.22,47.75-8.29a83.34,83.34,0,0,0,24.6-10,41.75,41.75,0,0,0,11.22-9.85,39.5,39.5,0,0,0,4.72-7.75,69.16,69.16,0,0,0-8.94-11.15,15.47,15.47,0,0,1-1.08,8.89c-1.39,3-3.7,5.17-8.24,7.84a59.61,59.61,0,0,1-17.28,6.92c-18.49,3.47-26.89,3.46-37.94,5.5-13.64,2.52-26.49,4.9-36.78,14.76C8,72.68,4.6,82.9,3.14,89.47A69,69,0,0,0,31.3,126.62,52.7,52.7,0,0,1,20.13,113.17Z"/><path class="cls-1" d="M94.2,10.8A11.63,11.63,0,0,1,93,18.59C90.21,24.35,84.23,27,67.47,32.13c-6.1,1.86-13.87,4.11-23,6.47A204.56,204.56,0,0,0,86.85,35c11.31-2.19,18.63-4.67,21.86-11a17.09,17.09,0,0,0,1.4-10.29,68.64,68.64,0,0,0-26.2-12C85,2,92.67,4.42,94.2,10.8Z"/><path class="cls-2" d="M16.6,64.42c10.29-9.86,23.14-12.24,36.78-14.76,11.05-2,19.45-2,37.94-5.5a59.61,59.61,0,0,0,17.28-6.92c4.54-2.67,6.85-4.84,8.24-7.84a15.47,15.47,0,0,0,1.08-8.89,68.41,68.41,0,0,0-7.81-6.81A17.09,17.09,0,0,1,108.71,24c-3.23,6.31-10.55,8.79-21.86,11A204.56,204.56,0,0,1,44.49,38.6c9.11-2.36,16.88-4.61,23-6.47C84.23,27,90.21,24.35,93,18.59A11.63,11.63,0,0,0,94.2,10.8C92.67,4.42,85,2,83.91,1.65A68.91,68.91,0,0,0,3.14,89.47C4.6,82.9,8,72.68,16.6,64.42Z"/><path class="cls-2" d="M126.86,31.66a39.5,39.5,0,0,1-4.72,7.75,41.75,41.75,0,0,1-11.22,9.85,83.34,83.34,0,0,1-24.6,10c-25.54,6.07-30.71,1.37-47.75,8.29-12.12,4.93-16.41,10.11-18.39,13-1.5,2.21-6.41,10.12-5,20,.7,5.12,2.78,8.7,5,12.53A52.7,52.7,0,0,0,31.3,126.62l0,0A34.67,34.67,0,0,1,25.24,106c.13-3.19.52-10.44,5.66-17A29.48,29.48,0,0,1,42,80.48a38.26,38.26,0,0,1,10.59-3.1c7.95-1.43,15.83-3.28,23.79-4.7a169.5,169.5,0,0,0,26.68-7.13,25.44,25.44,0,0,1-4.32,6.14c-5.61,5.87-12,6.7-22.2,9.6C64.15,84.81,58,86.56,52.82,90.56c-2.5,2-10.58,8.25-12,18.64-2.1,15.09,11.56,26.09,12.45,26.79A68.9,68.9,0,0,0,126.86,31.66Z"/></g></g></g></svg>