<?xml version="1.0" encoding="UTF-8"?><svg id="Layer_2" xmlns="http://www.w3.org/2000/svg" viewBox="0 0 94.78 94.8"><defs><style>.cls-1{fill:#fff;}.cls-2{fill:#ed2139;}.cls-3{fill:#221636;}</style></defs><g id="Layer_23"><path class="cls-3" d="M94.77,45.31c0,.3,.01,.6,.01,.91,0,1.07,0,2.15-.02,3.27-.03,.31-.03,.58-.05,.85-.04,.54-.1,1.08-.15,1.63-.04,.41-.06,.81-.11,1.22-.09,.67-.19,1.34-.3,2-.18,.99-.35,1.98-.58,2.96-.27,1.13-.57,2.26-.91,3.37-.43,1.42-.93,2.82-1.53,4.19-.34,.76-.66,1.54-1.02,2.29-.46,.94-.96,1.87-1.47,2.79-.46,.82-.96,1.62-1.46,2.41-.66,1.04-1.37,2.03-2.12,3.01-.32,.42-.65,.84-.99,1.24-.35,.42-.71,.83-1.07,1.24-.45,.51-.89,1.02-1.36,1.51-.68,.7-1.39,1.37-2.09,2.04-.38,.37-.77,.72-1.18,1.07-.53,.45-1.07,.89-1.62,1.31-.78,.6-1.56,1.19-2.36,1.76-.71,.5-1.45,.97-2.18,1.42-.85,.52-1.7,1.02-2.58,1.48-1.25,.66-2.51,1.29-3.82,1.81-.86,.34-1.7,.7-2.58,1-1.13,.39-2.26,.74-3.41,1.07-.91,.26-1.83,.45-2.76,.66-.61,.13-1.24,.24-1.86,.35-.49,.08-.98,.15-1.46,.22-.35,.05-.71,.08-1.06,.12-.45,.05-.91,.11-1.37,.14-.39,.03-.78,.04-1.17,.06-.05,0-.09,.05-.14,.08-.23,0-.47,.01-.7,.01-1.49,0-2.99,0-4.51-.03-.05-.04-.07-.07-.09-.07-.53-.04-1.05-.07-1.58-.11-.43-.03-.86-.06-1.3-.11-.47-.06-.94-.13-1.41-.2-.57-.09-1.15-.17-1.72-.28-.75-.14-1.5-.28-2.24-.47-1.21-.31-2.42-.65-3.61-1.01-.91-.28-1.81-.62-2.7-.96-1.2-.45-2.38-.98-3.54-1.55-.69-.35-1.38-.7-2.06-1.08-.86-.48-1.71-.97-2.54-1.49-1.33-.85-2.64-1.75-3.86-2.75-.81-.66-1.62-1.31-2.4-2-.64-.56-1.25-1.15-1.86-1.76-.49-.49-.94-1-1.41-1.5-.25-.27-.52-.54-.76-.83-.48-.57-.97-1.14-1.42-1.73-.62-.81-1.25-1.63-1.84-2.46-.53-.75-1.04-1.52-1.51-2.31-.58-.96-1.13-1.94-1.66-2.93-.56-1.05-1.07-2.13-1.52-3.24-.42-1.04-.83-2.08-1.21-3.14-.3-.87-.56-1.76-.82-2.64-.38-1.28-.67-2.59-.91-3.9-.11-.59-.21-1.18-.3-1.77-.04-.26-.08-.51-.11-.77-.04-.36-.08-.72-.11-1.08-.05-.45-.11-.89-.14-1.34-.03-.38-.04-.76-.06-1.15,0-.05-.05-.09-.08-.14,0-.23-.01-.47-.01-.7,0-1.49,0-2.99,.03-4.51,.04-.08,.07-.12,.07-.17,.02-.27,.03-.54,.05-.81,.05-.59,.1-1.19,.16-1.79,.06-.59,.12-1.19,.22-1.78,.17-.99,.36-1.98,.56-2.96,.27-1.35,.62-2.69,1.05-4,.33-1.03,.68-2.04,1.07-3.05,.38-.97,.78-1.94,1.22-2.88,.51-1.06,1.05-2.1,1.62-3.13,.44-.81,.92-1.6,1.42-2.38,.42-.67,.87-1.32,1.33-1.97,.43-.6,.87-1.2,1.33-1.77,.54-.67,1.09-1.33,1.65-1.98,.42-.5,.85-.99,1.31-1.45,.64-.66,1.3-1.29,1.96-1.92,.36-.35,.74-.69,1.12-1.02,.55-.47,1.1-.93,1.65-1.39,.92-.76,1.9-1.47,2.89-2.14,.57-.39,1.17-.76,1.75-1.14,1.05-.67,2.13-1.28,3.24-1.84,.91-.46,1.83-.9,2.76-1.3,1.01-.43,2.02-.84,3.05-1.21,1.88-.68,3.8-1.23,5.76-1.65,.49-.1,.97-.2,1.45-.28,.57-.1,1.14-.21,1.71-.3,.29-.05,.58-.08,.88-.12,.37-.04,.74-.08,1.11-.11,.56-.05,1.12-.11,1.68-.15,.37-.03,.74-.04,1.12-.06,.03,0,.06-.03,.09-.05,.32,0,.64-.01,.96-.01,1.06,0,2.12,0,3.22,.02,.14,.03,.25,.04,.35,.04,.19,0,.38,0,.57,.01,.38,.03,.76,.07,1.14,.1,.25,.02,.5,.03,.75,.06,.5,.06,1,.13,1.49,.2,.62,.09,1.25,.17,1.87,.28,.78,.14,1.57,.29,2.34,.47,1.36,.32,2.71,.68,4.04,1.12,.75,.25,1.49,.53,2.24,.8,1.07,.38,2.12,.83,3.14,1.33,1.07,.51,2.12,1.06,3.16,1.63,.85,.47,1.69,.98,2.5,1.5,1.15,.73,2.26,1.53,3.34,2.37,.91,.71,1.8,1.45,2.66,2.22,.68,.61,1.33,1.25,1.99,1.88,.12,.12,.22,.27,.35,.39,.64,.63,1.24,1.29,1.82,1.98,.51,.61,1.04,1.21,1.52,1.85,.64,.83,1.25,1.68,1.86,2.55,.37,.52,.71,1.06,1.03,1.6,.53,.89,1.07,1.77,1.56,2.69,.69,1.29,1.34,2.6,1.88,3.96,.4,1.02,.81,2.03,1.17,3.07,.34,.99,.64,2,.92,3.02,.21,.76,.38,1.53,.55,2.3,.15,.69,.28,1.37,.41,2.07,.07,.38,.11,.75,.17,1.13,.04,.31,.08,.62,.12,.93,.05,.37,.1,.74,.14,1.11,.03,.28,.04,.57,.06,.86,.04,.54,.07,1.07,.1,1.61-.02,.04,0,.12,.02,.19h0Zm-46.1-10.98c-.27,.04-.53,.08-.8,.1-.84,.09-1.67,.18-2.51,.24-.63,.05-1.27,.08-1.95,.12-3.96,.15-5.55,.17-5.84,.05,.08-.03,.14-.05,.21-.07,3.15-.83,6.28-1.71,9.39-2.66,1.77-.54,3.54-1.1,5.26-1.78,.1-.04,.19-.09,.31-.14,.78-.31,1.53-.67,2.25-1.11,.48-.29,.93-.62,1.31-1.03,.81-.87,1.34-1.88,1.49-3.07,.1-.77,.03-1.53-.31-2.25-.33-.7-.83-1.27-1.44-1.74-.84-.65-1.76-1.13-2.8-1.36-.55-.12-1.11-.2-1.67-.29-.93-.16-1.88-.25-2.83-.29-1.6-.06-3.2-.03-4.8,.18-1.05,.14-2.1,.31-3.13,.56-2.53,.6-4.93,1.54-7.21,2.81-2.23,1.24-4.25,2.75-6.08,4.53-.73,.7-1.4,1.46-2.04,2.24-1.75,2.13-3.17,4.46-4.23,7-.57,1.36-1.04,2.75-1.39,4.18-.34,1.36-.59,2.74-.7,4.14-.06,.74-.11,1.49-.13,2.24-.02,.61,0,1.22,.04,1.83,.04,.74,.09,1.48,.18,2.21,.15,1.26,.4,2.51,.72,3.74,.1,.37,.21,.73,.31,1.09,.06-.07,.08-.13,.1-.2,.17-.62,.31-1.25,.5-1.86,.49-1.58,1.18-3.07,2.06-4.48,1.03-1.66,2.25-3.17,3.75-4.43,1.58-1.33,3.35-2.35,5.28-3.08,.87-.33,1.76-.6,2.69-.9,1.15-.32,2.32-.6,3.5-.83,.9-.18,1.81-.35,2.75-.52,.86-.14,1.71-.28,2.57-.41,.59-.09,1.19-.15,1.78-.23,.66-.08,1.33-.17,1.99-.24,.65-.08,1.3-.15,1.94-.23,.73-.09,1.46-.19,2.19-.3,.57-.08,1.15-.18,1.75-.25,.07,.17,.15,.34,.2,.51,.17,.59,.77,1.08,1.5,1.07,.99-.02,1.99,0,2.98,0,.08,0,.15,0,.24,0,.59-.05,1.08-.46,1.2-1.03,.06-.26,.06-.52,0-.78-.09-.36-.18-.71-.22-1.07,.84-.26,1.66-.58,2.45-.97,.78-.38,1.54-.81,2.32-1.2,.94-.48,1.78-1.1,2.45-1.92,.38-.45,.73-.92,.95-1.47,.41-1,.53-2.05,.43-3.12-.03-.25-.11-.45-.3-.63-.74-.71-1.52-1.39-2.32-2.03-.22-.18-.45-.35-.71-.54,0,.1,.01,.16,.02,.22,.03,.28,.07,.57,.08,.86,.02,.53-.05,1.06-.15,1.58-.31,1.54-1.09,2.79-2.4,3.69-1.04,.72-2.19,1.16-3.39,1.53-.51,.15-1.02,.28-1.57,.42-.08,.02-.17,.04-.25,.05-1.44,.28-2.86,.58-4.3,.82-1.19,.2-2.39,.34-3.62,.5h0Zm-1.04,15.17c.09-.01,.18-.02,.26-.04,.68-.13,1.35-.27,2.02-.39,2.41-.43,4.8-.96,7.15-1.63,.22-.06,.43-.14,.68-.2,.6-.19,1.21-.38,1.82-.56,.61-.18,1.2-.42,1.83-.6-.01,.06-.01,.08-.02,.09-.51,.97-1.16,1.83-1.94,2.6-.07,.07-.12,.14-.22,.22-.02,.02-.05,.03-.07,.04-1.05,.95-2.29,1.58-3.62,2.02-.76,.25-1.53,.46-2.33,.7-.91,.25-1.83,.49-2.74,.74-1.94,.55-3.89,1.08-5.79,1.77-.92,.34-1.84,.71-2.69,1.21-.49,.29-.96,.63-1.47,.92-.14-.48-.31-.96-.43-1.45-.21-.82-.71-1.24-1.56-1.24h-3.06c-.11,0-.23,0-.34,.02-.51,.07-.87,.34-1.07,.81-.13,.31-.13,.63-.08,.95,.05,.31,.12,.61,.2,.92,.43,1.73,1.18,3.29,2.38,4.62,.04,.04,.06,.09,.06,.15-.77,1.68-1.06,3.43-.83,5.27,.14,1.12,.46,2.18,.93,3.2,.59,1.29,1.38,2.44,2.31,3.5,.55,.64,1.14,1.23,1.79,1.76,.08,.06,.18,.11,.27,.13,1.01,.24,2.02,.43,3.06,.53,.77,.08,1.54,.16,2.31,.19,1.35,.05,2.7,.03,4.04-.14,.77-.1,1.55-.2,2.32-.34,1.61-.3,3.18-.75,4.71-1.33,2.06-.78,3.99-1.78,5.81-3.01s3.5-2.63,4.96-4.27c.64-.71,1.26-1.45,1.84-2.2,1.11-1.44,2.03-2.98,2.82-4.61,.44-.91,.84-1.84,1.18-2.79,.56-1.56,.98-3.16,1.27-4.79,.2-1.15,.34-2.31,.39-3.48,.06-1.62,.03-3.24-.18-4.85-.13-.99-.29-1.96-.51-2.93-.38-1.64-.9-3.24-1.56-4.79-.59-1.39-1.3-2.72-2.11-4-.04-.06-.09-.11-.15-.19-.04,.06-.06,.08-.07,.11-.74,1.56-1.7,2.97-2.89,4.23-.82,.86-1.71,1.64-2.7,2.3-1.35,.91-2.79,1.68-4.27,2.38-2.12,.99-4.32,1.76-6.6,2.29-.99,.23-1.99,.44-2.98,.65-.51,.11-1.02,.2-1.59,.29-.11,.02-.23,.03-.34,.04-1.02,.13-2.03,.28-3.06,.38-1.38,.13-2.76,.22-4.14,.31-1.52,.1-3.03,.32-4.51,.69-.34,.08-.66,.2-1.03,.3-.51,.17-1.03,.33-1.53,.51-1.34,.5-2.64,1.09-3.88,1.8-.98,.56-1.91,1.19-2.75,1.95-1.28,1.15-2.2,2.54-2.86,4.11-.55,1.31-.86,2.66-.92,4.08-.03,.7-.05,1.4,.07,2.09,.22,1.3,.63,2.54,1.23,3.7,.25,.49,.56,.94,.83,1.42,1.14,1.95,2.54,3.68,4.22,5.19,.1,.09,.2,.17,.3,.25l.05-.05c-.05-.08-.09-.16-.14-.23-.44-.68-.82-1.4-1.14-2.14-.74-1.77-1.13-3.61-1.14-5.54,0-.93,.05-1.86,.24-2.78,.24-1.18,.66-2.29,1.22-3.35,.64-1.19,1.5-2.2,2.54-3.06,.92-.77,1.95-1.38,3.05-1.86,1.09-.48,2.21-.85,3.38-1.07,.81-.15,1.63-.29,2.44-.45,1.43-.28,2.85-.57,4.27-.86,.35-.07,.69-.15,1.08-.24Z"/><path class="cls-2" d="M50.2,44.29c.51-.1,1.03-.19,1.53-.29,1-.21,1.99-.42,2.98-.65,2.28-.54,4.48-1.3,6.6-2.29,1.48-.69,2.91-1.46,4.27-2.38,.99-.67,1.88-1.44,2.7-2.3,1.19-1.25,2.15-2.67,2.89-4.23,.02-.03,.04-.06,.07-.11,.06,.08,.11,.13,.15,.19,.81,1.28,1.51,2.61,2.11,4,.66,1.55,1.19,3.14,1.56,4.79,.22,.97,.38,1.94,.51,2.93,.21,1.61,.24,3.23,.18,4.85-.05,1.17-.19,2.32-.39,3.48-.28,1.63-.7,3.23-1.27,4.79-.34,.95-.73,1.88-1.18,2.79-.79,1.63-1.71,3.17-2.82,4.61-.58,.76-1.2,1.49-1.84,2.2-1.47,1.63-3.14,3.04-4.96,4.27s-3.76,2.23-5.81,3.01c-1.53,.58-3.1,1.03-4.71,1.33-.77,.14-1.54,.24-2.32,.34-1.34,.17-2.7,.2-4.04,.14-.77-.03-1.54-.11-2.31-.19-1.03-.1-2.05-.29-3.06-.53-.1-.03-.2-.07-.27-.13-.65-.53-1.24-1.12-1.79-1.76-.92-1.06-1.71-2.22-2.31-3.5-.47-1.02-.79-2.08-.93-3.2-.23-1.84,.05-3.59,.86-5.27,.67,.65,1.38,1.23,2.17,1.71,1.43,.87,2.97,1.39,4.6,1.73,.34,.07,.68,.13,1.05,.2v4.21c0,.22,0,.43,0,.66,0,.27,.1,.51,.26,.72,.37,.47,.86,.72,1.44,.74,.94,.03,1.88,.01,2.82,0,.41,0,.77-.14,1.05-.45,.35-.39,.55-.85,.55-1.37v-4.51c.88-.16,1.7-.36,2.51-.65,1.96-.71,3.68-1.78,5.04-3.38,1.5-1.77,2.27-3.81,2.35-6.12,.03-.71-.01-1.43-.1-2.14-.15-1.19-.46-2.32-1.05-3.37-.03-.05-.04-.09-.06-.14,.06-.07,.12-.15,.19-.21,.78-.77,1.43-1.63,1.94-2.6,0-.02,0-.03,.02-.09-.63,.18-1.22,.42-1.83,.6-.61,.18-1.21,.37-1.84,.54-.44-.32-.84-.65-1.28-.91-1.16-.7-2.42-1.15-3.73-1.47-.82-.22-1.65-.38-2.49-.56Z"/><path class="cls-2" d="M34.61,40.85c-.88,.3-1.78,.57-2.64,.9-1.93,.73-3.7,1.75-5.28,3.08-1.5,1.27-2.71,2.77-3.75,4.43-.87,1.4-1.56,2.9-2.06,4.48-.19,.61-.34,1.24-.5,1.86-.02,.07-.04,.13-.1,.2-.1-.36-.22-.72-.31-1.09-.33-1.23-.57-2.47-.72-3.74-.09-.73-.13-1.47-.18-2.21-.03-.61-.05-1.22-.04-1.83,.02-.75,.08-1.49,.13-2.24,.1-1.4,.37-2.78,.7-4.14,.35-1.43,.82-2.82,1.39-4.18,1.07-2.54,2.48-4.87,4.23-7,.65-.78,1.32-1.53,2.04-2.24,1.83-1.78,3.85-3.29,6.08-4.53,2.28-1.27,4.68-2.2,7.21-2.81,1.03-.25,2.08-.43,3.13-.56,1.6-.21,3.2-.24,4.8-.18,.94,.04,1.89,.12,2.83,.29,.56,.1,1.12,.17,1.67,.29,1.04,.23,1.96,.71,2.8,1.36,.61,.47,1.11,1.03,1.44,1.74,.34,.72,.41,1.47,.31,2.25-.15,1.19-.69,2.2-1.49,3.07-.38,.41-.84,.73-1.31,1.03-.71,.44-1.47,.81-2.28,1.11-.78-.26-1.55-.4-2.36-.49v-4.64c0-.13,0-.26-.03-.39-.14-.7-.87-1.3-1.64-1.31-.98-.01-1.95,0-2.93,0-.41,0-.75,.17-1.01,.46-.33,.38-.52,.82-.52,1.33v4.34c-.33,.06-.61,.1-.9,.16-1.74,.34-3.36,.96-4.82,1.99-1.39,.98-2.47,2.22-3.18,3.77-.43,.95-.69,1.95-.78,2.99-.08,.81-.06,1.62,.05,2.43Z"/><path class="cls-1" d="M59.22,48.99s.06,.09,.08,.14c.59,1.05,.91,2.18,1.05,3.37,.09,.71,.12,1.43,.1,2.14-.08,2.31-.85,4.36-2.35,6.12-1.36,1.6-3.08,2.68-5.04,3.38-.81,.29-1.63,.49-2.51,.65v4.51c0,.53-.2,.99-.55,1.37-.28,.31-.64,.45-1.05,.45-.94,0-1.88,.03-2.82,0-.58-.02-1.07-.27-1.44-.74-.17-.21-.26-.45-.26-.72,0-.22,0-.43,0-.66v-4.21c-.37-.07-.71-.12-1.05-.2-1.62-.34-3.18-.87-4.6-1.73-.78-.48-1.49-1.05-2.15-1.72-.05-.05-.07-.1-.1-.13-1.2-1.33-1.96-2.89-2.38-4.62-.08-.3-.14-.61-.2-.92-.06-.32-.06-.64,.08-.95,.21-.47,.57-.74,1.07-.81,.11-.02,.23-.02,.34-.02h3.06c.85,0,1.36,.42,1.56,1.24,.12,.49,.29,.97,.44,1.48,.24,.6,.56,1.12,.98,1.57,.74,.83,1.69,1.34,2.75,1.63,1.56,.43,3.16,.53,4.76,.31,1.09-.15,2.11-.53,3.02-1.17,1.11-.79,1.84-1.83,2.05-3.19s.1-2.66-.82-3.79c-.01-.02-.02-.03-.02-.05,.76-.23,1.54-.44,2.3-.69,1.34-.43,2.57-1.06,3.62-2.02,.01-.02,.04-.03,.08-.05Z"/><path class="cls-2" d="M47.58,49.5c-.35,.08-.69,.18-1.04,.24-1.43,.29-2.85,.58-4.27,.86-.81,.16-1.63,.3-2.44,.45-1.17,.22-2.29,.59-3.38,1.07-1.1,.48-2.12,1.09-3.05,1.86-1.04,.86-1.9,1.86-2.54,3.06-.56,1.06-.98,2.17-1.22,3.35-.19,.92-.24,1.84-.24,2.78,.01,1.92,.4,3.77,1.14,5.54,.31,.75,.69,1.47,1.14,2.14,.05,.08,.1,.15,.14,.23l-.05,.05c-.1-.08-.21-.17-.3-.25-1.68-1.51-3.08-3.25-4.22-5.19-.28-.48-.58-.93-.83-1.42-.61-1.17-1.02-2.41-1.23-3.7-.12-.69-.09-1.39-.07-2.09,.06-1.41,.38-2.77,.92-4.08,.66-1.57,1.59-2.96,2.86-4.11,.84-.75,1.77-1.38,2.75-1.95,1.24-.71,2.54-1.31,3.88-1.8,.51-.19,1.02-.34,1.57-.51,.09,.05,.14,.1,.19,.14,1,.84,2.15,1.4,3.37,1.84,1.86,.67,3.8,1.01,5.75,1.27,.38,.05,.76,.14,1.14,.21Z"/><path class="cls-1" d="M34.63,40.85c-.13-.81-.15-1.61-.08-2.42,.09-1.04,.34-2.04,.78-2.99,.71-1.55,1.79-2.79,3.18-3.77,1.46-1.03,3.08-1.65,4.82-1.99,.29-.06,.58-.1,.9-.16v-4.34c0-.51,.19-.96,.52-1.33,.26-.3,.6-.46,1.01-.46,.98,0,1.95-.01,2.93,0,.76,.01,1.49,.6,1.64,1.31,.03,.13,.03,.26,.03,.39v4.64c.81,.09,1.57,.23,2.34,.49-.07,.05-.16,.1-.26,.14-1.72,.68-3.49,1.24-5.26,1.78-3.11,.96-6.24,1.84-9.39,2.66-.06,.02-.13,.04-.21,.07,.29,.12,1.88,.1,5.85-.04-.07,.06-.15,.1-.24,.14-1.15,.57-1.92,1.45-2.22,2.72-.14,.6-.14,1.21-.11,1.82-.9,.18-1.81,.35-2.71,.53-1.17,.23-2.34,.51-3.51,.83Z"/><path class="cls-2" d="M53.2,51.75s.03,.03,.04,.05c.92,1.13,1.02,2.44,.82,3.79-.21,1.35-.95,2.4-2.05,3.19-.9,.65-1.92,1.02-3.02,1.17-1.61,.23-3.2,.12-4.76-.31-1.06-.29-2-.8-2.75-1.63-.41-.46-.73-.97-.96-1.56,.48-.34,.95-.67,1.44-.97,.85-.51,1.76-.88,2.69-1.21,1.9-.69,3.85-1.21,5.79-1.77,.91-.25,1.83-.49,2.76-.74Z"/><path class="cls-1" d="M47.61,49.49c-.41-.07-.78-.16-1.17-.21-1.95-.26-3.88-.6-5.75-1.27-1.22-.43-2.37-1.01-3.37-1.84-.05-.05-.1-.09-.17-.14,.31-.11,.64-.22,.98-.31,1.48-.37,2.98-.59,4.51-.69,1.38-.1,2.76-.19,4.14-.31,1.02-.1,2.03-.25,3.06-.38,.11-.02,.22-.03,.36-.04,.86,.18,1.7,.34,2.53,.54,1.31,.33,2.57,.77,3.73,1.47,.44,.26,.84,.59,1.27,.91-.21,.09-.42,.17-.64,.23-2.35,.67-4.74,1.2-7.15,1.63-.68,.12-1.35,.26-2.02,.39-.09,.03-.18,.03-.28,.04Z"/><path class="cls-2" d="M56.9,32.96c.51-.14,1.03-.27,1.53-.43,1.19-.37,2.35-.82,3.39-1.53,1.31-.9,2.08-2.15,2.4-3.69,.1-.52,.17-1.05,.15-1.58-.01-.28-.05-.57-.08-.86,0-.06,0-.12-.02-.22,.26,.2,.49,.37,.71,.54,.81,.64,1.57,1.32,2.32,2.03,.19,.18,.28,.38,.3,.63,.1,1.07-.02,2.12-.43,3.12-.22,.54-.57,1.01-.95,1.47-.68,.82-1.51,1.44-2.45,1.92-.77,.39-1.53,.83-2.32,1.2-.79,.38-1.61,.71-2.49,.96-.27-.69-.56-1.34-.92-1.95-.33-.57-.73-1.09-1.16-1.6Z"/><path class="cls-2" d="M40.87,39.49c-.05-.61-.05-1.22,.09-1.82,.3-1.27,1.07-2.14,2.22-2.72,.09-.04,.17-.09,.27-.14,.65-.05,1.28-.08,1.91-.13,.84-.07,1.68-.16,2.51-.24,.27-.03,.53-.07,.82-.09,.15,.06,.29,.1,.43,.13,1.8,.38,3.11,1.38,3.87,3.07,.04,.09,.06,.18,.1,.27-.57,.09-1.15,.19-1.72,.27-.73,.1-1.46,.21-2.19,.3-.65,.08-1.29,.15-1.94,.23-.66,.08-1.33,.16-1.99,.24-.59,.07-1.19,.14-1.78,.23-.86,.13-1.71,.27-2.59,.41Z"/><path class="cls-1" d="M53.1,37.82c-.05-.1-.07-.19-.11-.28-.76-1.69-2.07-2.69-3.87-3.07-.13-.03-.27-.07-.41-.12,1.19-.18,2.4-.31,3.58-.52,1.44-.24,2.87-.55,4.3-.82,.08-.02,.17-.04,.28-.05,.44,.51,.85,1.03,1.18,1.61,.36,.62,.65,1.27,.89,1.96,.1,.37,.19,.72,.27,1.07,.06,.26,.06,.52,0,.78-.12,.57-.61,.99-1.2,1.03-.08,0-.15,0-.24,0-.99,0-1.99-.02-2.98,0-.73,.02-1.34-.47-1.5-1.07-.05-.19-.13-.35-.21-.53Z"/></g></svg>